/* XPM */
static char *result[] = {
/* columns rows colors chars-per-pixel */
"64 64 191 2 ",
"   c #060606",
".  c #0B0B0C",
"X  c #130E0B",
"o  c #0F0F10",
"O  c #0E1111",
"+  c #131314",
"@  c #1A1715",
"#  c #161718",
"$  c #15191A",
"%  c #1A1B1C",
"&  c #2C0403",
"*  c #340B0D",
"=  c #281B17",
"-  c #241F1C",
";  c #1C1F20",
":  c #1D2324",
">  c #232224",
",  c #2B2623",
"<  c #262729",
"1  c #292728",
"2  c #24292C",
"3  c #2B2B2D",
"4  c #382C26",
"5  c #3D342E",
"6  c #2D2E31",
"7  c #2C3235",
"8  c #333235",
"9  c #3A3533",
"0  c #353538",
"q  c #33393D",
"w  c #3A393C",
"e  c #443817",
"r  c #5A2C29",
"t  c #42362E",
"y  c #433933",
"u  c #4A3C32",
"i  c #423D3C",
"p  c #4C423C",
"a  c #54443B",
"s  c #584139",
"d  c #564A3E",
"f  c #3B3E42",
"g  c #414145",
"h  c #46464A",
"j  c #48494D",
"k  c #574B43",
"l  c #594E46",
"z  c #604F44",
"x  c #655446",
"c  c #685747",
"v  c #64564B",
"b  c #6C594B",
"n  c #7A5644",
"m  c #725D4D",
"M  c #7B5D4D",
"N  c #6D5D53",
"B  c #7A644F",
"V  c #6B625C",
"C  c #766153",
"Z  c #7E6353",
"A  c #776558",
"S  c #7E7261",
"D  c #815D4D",
"F  c #915947",
"G  c #8C654E",
"H  c #846456",
"J  c #876C57",
"K  c #9B6552",
"L  c #986D57",
"P  c #8C725D",
"I  c #97745F",
"U  c #AB6A54",
"Y  c #B56553",
"T  c #AB7C5D",
"R  c #986A6B",
"E  c #857363",
"W  c #887262",
"Q  c #8A7769",
"!  c #937563",
"~  c #9E7761",
"^  c #9B7A64",
"/  c #A67F62",
"(  c #A97D61",
")  c #918056",
"_  c #AB825E",
"`  c #9E8163",
"'  c #9D826C",
"]  c #968371",
"[  c #9C8573",
"{  c #A58165",
"}  c #AC8463",
"|  c #A3836B",
" . c #A6896F",
".. c #AC8C6D",
"X. c #B58C65",
"o. c #B38D6C",
"O. c #B98F68",
"+. c #B6916E",
"@. c #BC936E",
"#. c #A48671",
"$. c #A58A73",
"%. c #AC8D74",
"&. c #A38778",
"*. c #A78E7B",
"=. c #AB8E7A",
"-. c #B28F73",
";. c #B78B75",
":. c #AD9175",
">. c #A7907D",
",. c #AE927B",
"<. c #B49274",
"1. c #BB9574",
"2. c #BD9976",
"3. c #B4957A",
"4. c #BA967A",
"5. c #B6997C",
"6. c #BC9A7C",
"7. c #BFA07D",
"8. c #C48468",
"9. c #C2956E",
"0. c #C6996C",
"q. c #C29673",
"w. c #CF9370",
"e. c #C39B75",
"r. c #C99D75",
"t. c #C0977A",
"y. c #C39D7C",
"u. c #C99E7C",
"i. c #D59978",
"p. c #C7A077",
"a. c #CBA077",
"s. c #C5A17E",
"d. c #CAA27C",
"f. c #8E8E8E",
"g. c gray59",
"h. c #A79080",
"j. c #AC9584",
"k. c #A5958D",
"l. c #B59781",
"z. c #B59A83",
"x. c #BC9D82",
"c. c #B59C8A",
"v. c #BB9E89",
"b. c #B7A087",
"n. c #BEA184",
"m. c #B6A18E",
"M. c #BDA28C",
"N. c #BCA493",
"B. c #BDAB9D",
"V. c #C29E82",
"C. c #C99F81",
"Z. c #C19F88",
"A. c #C5A284",
"S. c #C9A484",
"D. c #C4A887",
"F. c #CBA986",
"G. c #C4A58A",
"H. c #C9A68A",
"J. c #C6A98D",
"K. c #CBAA8C",
"L. c #D0A685",
"P. c #D1AC8B",
"I. c #D4B18F",
"U. c #C3A691",
"Y. c #C5AA93",
"T. c #CBAC92",
"R. c #C6AC99",
"E. c #C9AE99",
"W. c #D0AF93",
"Q. c #CDB195",
"!. c #CCB29B",
"~. c #CFB89E",
"^. c #D3B392",
"/. c #D3B39A",
"(. c #D1B89B",
"). c #E6B99C",
"_. c #CFBBA3",
"`. c #D2B9A4",
"'. c #D9B8A3",
"]. c #D4C1A8",
"[. c #DEC1AF",
"{. c #F1C5A8",
"}. c #F3CAAD",
"|. c #EDCFBC",
" X c #F6CFB3",
".X c #F5D1B6",
"XX c #F5D4BE",
"oX c #F9D5BA",
"OX c #EED9CC",
"+X c #F7DBC9",
"@X c #F9E2D3",
/* pixels */
"5.l.4.z.3.<.1.1.5.6.z.4.6.4.5.4.4.x.Z.y.V.y.2.6.4.V.A.x.l.z.x.l.c.l.l.l.l.l.3.:.$.:.o.%.%.3.5.4.3.<.3.5.3.3.<.3.3.3.3.5.6.4.4.4.",
"V.u.y.V.A.y.A.y.C.C.C.C.C.G.V.V.V.u.t.q.q.1.8.9.6.5.A.V.y.x.x.V.G.S.S.A.t.e.1.1.x.x.G.A.s.A.V.y.A.S.S.y.V.y.1.y.y.e.y.e.e.r.y.t.",
"y.A.S.y.A.A.H.C.G.S.H.Z.G.G.V.C.C.V.t.t.4.t.t.t.l./ V.A.V.y.y.A.H.K.K.H.H.S.u.t.5.G.H.K.L.F.F.F.S.F.S.u.A.s.s.d.d.s.y.s.s.S.s.y.",
"V.G.V.V.V.A.G.T.T.T.P.P.H.S.S.H.H.G.G.G.Z.K.K.H.Y.$.4.G.V.G.K.W.H.H.Q.T./.!.T.H.G.G.H.A.S.S.S.S.S.S.S.y.s.s.s.S.d.y.y.s.D.K.H.G.",
"T.Y.T.G.z.=.&.v.U.Y.G.T.T.T.T.K.y.1.-.V.Z.Y.Y.M.Z.l.x.Y.G.H.L.K.S.S.A.G.V.V.D.S.G.x.V.H.P.P.F.S.u.u.C.L.C.S.S.S.H.H.S.V.y.H.H.K.",
"H.K.Y.G.,.$.( q.t.4.V.V.y.S.d.A.t.H.H.A.V.U.G.G.G.Z.H.K.K.P.S.L.u.y.H.K.x.t.y.y.C.4.H.K.S.u.S.S.y.S.L.S.V.S.y.S.S.S.S.y.s.S.V.C.",
"H.G.G.G.5.| 9.C.G.1.u.H.P.P.P.S.q.u.S.G.C.G.A.H.V.V.A.S.S.S.L.L.d.K.K.H.S.t.S.S.V.5.P.H.S.C.H.S.F.S.u.4.u.P.P.P.L.P.W.P.P.K.S.A.",
"Z.V.A.t.1...=.U.G.y.4.u.u.t.u.e.r.r.t.t.t.V.y.4.4.y.y.y.u.u.u.q.e.t.t.4.1.o.1.e.4.6.y.4.y.u.y.2.y.4.1.6.y.V.S.S.A.S.C.H.H.G.G.V.",
"{ { { |  .#.#.#.&.,.5.4.3.;.-.;.,.;.3.-.-.-.-.-.-...-.<.o.o.1.<.<.<.o.%.%...<.-.<.o.} } } o.} _ _ } } } } } _ } ( ( ( { { / | | ",
"G.G.G.G.G.Y.G.G.G.G.H.H.G.H.A.A.Z.C.C.A.A.A.S.D.S.D.S.S.F.P.H.S.F.S.A.3.<.V.A.s.V.y.t.e.e.d.y.y.y.u.y.u.y.t.u.A.A.y.A.x.x.G.U.G.",
"M.n.A.G.A.G.G.G.G.G.G.G.G.H.G.C.G.S.C.V.y.t.y.y.y.V.A.A.u.V.V.V.V.y.t...%.y.x.y.A.6.V.A.A.y.A.G.H.D.G.H.G.G.G.T.J.G.J.T.E.Y.Y.v.",
"Z.N.4.t.4.-.3.v.Z.x.V.V.t.t.y.V.C.T.K.T.T.T.J.G.H.G.G.G.G.K.T.H.H.x.x.G.G.G.G.Y.T.J.J.G.G.G.V.V.G.S.C.u.a.t.t.u.y.y.t.y.y.y.V.V.",
"G.M.5.u.q.-.y.V.V.A.A.C.A.V.A.A.S.H.T.U.T.E.E.H.A.V.y.e.t.V.V.A.K.J.G.G.T.G.Y.T.R.Q.Y.G.G.A.H.T.G.S.T.T.E.Y.Y.T.Y.Y.U.U.Y.G.G.Z.",
"G.G.M.G.G.C.H.G.Y.T.T.E./.T.T.T.W.T.G.H.P.T.T.K.G.Y.Y.G.G.Y.T.J.G.G.G.A.G.J.H.Y.G.G.A.H.T.T.K.T.J.Y.Y.T.H.l.x.v.V.n.G.M.Y.G.G.G.",
"G.G.n.M.E.T.H.H.H.H.H.H.H.H.H.S.H.C.C.C.Z.C.S.H.A.G.A.A.S.S.V.y.V.S.y.V.V.S.A.A.D.S.V.A.A.A.H.F.A.C.A.S.G.V.V.H.G.C.C.A.G.H.U.H.",
"Z.v.x.v.H.Y.G.Z.H.H.H.H.K.H.H.H.S.H.H.S.Z.Z.H.Z.H.G.C.A.D.G.H.S.S.A.S.C.S.A.S.S.S.A.y.A.G.H.V.V.C.y.A.G.C.x.4.x.x.x.x.V.A.Z.Z.V.",
"3.z.c.4.l.3.3.l.5.3.3.3.3.<.<.4.3.3.3.4.-.=.%.%.-.-.3.-.-.%.-.3.-.,.3.,.3.<.,.-.-.=.-.,.,.-.%.%.%.-.%.3.<.%.%.,.-.3.=.3.3.,.3.3.",
"G.Z.C.S.G.G.G.G.G.G.H.H.H.S.F.H.H.H.H.S.A.C.A.A.V.S.A.V.s.V.y.V.A.G.G.G.G.V.S.S.S.C.S.C.S.C.C.V.S.S.C.y.y.y.C.G.G.V.G.A.G.V.G.Z.",
"v.U.c.x.Z.V.Z.G.A.G.G.V.x.V.G.V.C.G.A.V.A.V.A.G.A.G.A.A.S.A.C.V.A.G.G.A.V.V.G.G.G.G.G.G.G.H.H.H.H.K.T.K.G.A.A.G.A.x.v.V.Z.Z.v.Z.",
"v.v.v.l.E.Y.Y.U.U.U.Y.R.G.T.Y.Y.G.T.G.G.A.G.Z.G.G.G.G.G.G.%.m p i k [ G.G.G.G.G.G.x.Z.G.G.x.Z.Z.G.G.G.U.Y.Y.R.R.Y.m.c.M.c.c.v.v.",
"A.S.G.x.T./.Y.G.J.J.T.T.J.T.Q.T.R.T.T.T.Y.Y.Y.Y.E.E.E.R.N i g j h g 8 p j.Y.R.!.Y.Y.R.!.E.R.E.E.T.E.Y.Y.E.E.!.T.Y.G.U.M.G.G.C.V.",
"s.C.Z.C.H.L.H.C.A.S.S.S.A.S.S.G.A.A.D.G.A.n.Z.M.H.Y.H.A g h g w 0 0 0 3 9 j.Y.R.R.R.E.R.Y.Y.R.K.T.T.G.H.H.H.H.G.G.A.A.G.C.A.s.A.",
"G.Y.G.S.H.V.S.d.S.d.d.S.y.s.C.C.V.A.C.V.V.V.V.V.A.A. .w 8 8 0 8 3 + 3 3 > 9 G.G.G.Y.Y.G.H.H.S.L.H.K.P.H.H.H.H.H.G.H.H.H.D.S.K.K.",
"M.M.Z.Z.V.y.x.y.6.y.x.V.x.6.6.4.6.6.x.V.y.6.6.5.x./ w 0 3 6 0 i b l 3 ; % > l.4.4.z.V.V.C.C.C.V.A.C.C.x.V.y.V.V.y.x.x.x.V.G.C.x.",
"*.>.>.*.l.#.%.=.3.,.3.=.#.#.&.$.=.*.=.&.$.$.=.&.[ 9 w < 1 N c. X'.Q 3 # % < ' %.%.%.=.,.=.,.=.%.-.=.%.=.=.#.| =.3.,.#.,.-.*.h.h.",
"B.N.N._.R.Y.Y.G.Y.E.Y.3.l.c.v.v.U.v.G.x.v.n.G.Z.%.3 . . D i. XoX.XN 3 ; 6 0 N C.G.G.H.H.S.H.H.Z.G.G.Y.Y.v.*.[ c.Z.%.c./.G.U.R.R.",
"N.v.Y.E.Y.Y.Y.T.E.(.V.3.N.Y.E.`.`.U.G.!.!.T.G.V.%.9 % . T Y 8. X}.K + 1 w 6 C G.A.A.C.t.V.C.G.G.G.G.H.x.4.V.U.v.G.4.U.T.G.Z.N.v.",
"4.x.G.6.l.4.4.4.V.x.V.G.V.G.Z.G.H.H.G.G.G.G.A.x.C.! 3 + D R 8.}.{.K . . w > E T.4.Y.V.x.T.Z.Y.V.T.V.Y.V.4.Y.T.H.G.E.Y.Z.G.G.G.Z.",
"V.x.y.G.G.Z.G.Z.Z.x.V.A.A.G.C.G.G.H.A.V.V.C.V.C.C.6.a f > #.).oX.X^ @ > ; y V.V.V.V.C.S.u.V.C.V.A.A.V.Z.Z.H.H.Y.Y.C.V.V.x.4.t.C.",
"u.u.t.S.T.G.F.F.H.C.H.S.A.H.H.H.G.Z.C.A.A.G.C.V.A.C f 0 8 1 l E.Q ; 8 ; # > P V.V.u.y.y.u.u.C.u.C.C.u.u.C.C.S.H.H.H.Z.G.V.C.C.V.",
"y.u.u.S.K.K.L.H.S.y.3.y.S.H.S.H.H.G.A.A.A.H.H.K.%.i j w 6 > > o + > < 3 < 3 y 4.S.S.S.C.V.C.d.S.C.C.V.u.C.C.C.H.G.Z.S.C.V.u.u.V.",
"-.1.<.-.4.4.4.<.1.o.o.<.1.<.<.<.<.;.<.o.<.o.<.<.a w 0 8 1 % % # # % 1 3 6 3 > b 2.t.q.t.1.1.t.t.t.q.1.1.@.1.3.3.4.4.1.;.1.q.4.<.",
"2.2.2.2.2.1.2.2.1.<.+.1.:.<.5.5.5.6.n.5.6.5.1.5.x ~ G % , : , 3 > 1 3 4 r L I m s.7.7.2.2.2.1.2.2.1.2.@.s.2.1.1.6.6.2.2.7.2.1.1.",
"e.p.p.p.s.e.s.p.2.7.2.2.7.2.6.7.7.s.6.s.A.D.s.S.Z +XL s F ^ ]..Xh.k.I U s T OXB F.d.p.p.d.F.d.d.d.d.a.p.p.p.F.K.A.s.d.s.S.s.p.e.",
"2.@.2.7.s.1.+.@.2.2.5.1.1.7.7.5.n.6.7.7.7.n.D.7.C XXD = n w.|.@X@X X8.= , L |.M 7.p.s.D.s.S.s.s.F.Q.d.p.p.s.D.E.K.A.A.s.7.p.2.@.",
"0.@.@.O.O.X.1.7.2.2.s.7.7.7.7.+.2.6.7.n.,.d v k 9 v z # # 5 V V V N 4 X X ).).t 7.D.K.7.J.D.7.D.(.(.F.d.s.S.7.D.D.T.J.1.n.s.1.+.",
"7.7.s.s.7.7.7.n.7.7.7.n.b.7.5.2.7.5.7.n.n.V V g.g.g.g.g.g.g.g.g.f.f.) e & ( 8.* S ].Q.D.D.7.n.J.D.G.s.7.7.s.s.D.s.n.n.s.s.s.7.7.",
"p.2.s.s.7.d.s.7.A.n.n.7.7.7.7.7.7.6.6.6.n.n.5.B B u = % : $ + O O O     . b H Q ].].M.D.D.s.D.~.~.~.T.J.s.s.D.s.D.s.s.D.s.s.s.2.",
"H.H.F.D.D.D.J.J.T.T.z.z.b.J.b.3.b.D.n.D.D.J.J.D.D.H.5.3 7 : % 2 : % ; O $ x M.Y.M.Y.!.Q.K.J.K.Q.Q.Q.Q.^.Q.^.K.J.s.D.s.s.S.S.s.D.",
"5.5.2.5.5.:.7.7.,.3.,.>. .' ' $.:.,.5.:.<.:.<.......^ ; f : : % q 7 ; $ : d $.$.$.n.5.<.<.<.<.<.<.<.<.<.<.5.5.<.+.+.<.<.<.@.<.5.",
"5.5.b.5.n.b.b.x.z.z.z.z.z.z.5.v.b.b.b.b.z.z.z.l.l.l.A % 2 2 2 $ : % % 2 > c 5.5.z.z.5.z.z.z.z.5.5.5.z.7.z.5.z.5.,.7.n.z.4.5.5.3.",
"s.s.s.s.S.s.A.7.2.s.s.A.7.7.2.y.7.s.s.D.s.s.7.7.s.3.H n.[ k % - % + , 8 [ B A.A.A.A.D.A.A.D.A.A.D.A.D.S.A.s.s.$.' n.S.D.A.A.s.s.",
"s.s.s.S.s.s.s.s.A.A.A.D.S.D.D.D.D.F.S.S.F.A.D.S.s.2.! [.'.#. .s.A.` c./.[.A F.K.K.K.F.Q.Q.K.F.W.I.F.K.W.F.s.2.' ] 7.7.2.y.A.s.s.",
"A.A.S.K.D.F.K.K.I.^.P.F.J.F.F.K.P.F.F.F.K.W.K.F.F.A.| J J  .A.A.D.D.' W W :.J.J.J.J.H.J.F.J.Q.Q.Q.K.K.6.6.S.D.D.D.7.7.K.A.e.2.y.",
"A.A.A.S.F.F.^.Q.y.S.Q.Q.K.F.T.K.Q.^.K.W.^.K.F.A.S.s.s.p.s.A.n. .z.M.3.7.D.J.J.K.J.J.G.D.n.D.K.K.K.K.D.<.7.n.J.n.n.F.H.K.D.D.A.A.",
"n.A.A.D.S.s.d.6.3.G.G.A.D.D.n.s.7.S.A.A.F.A.A.s.s.2.7.s.s.s.7.P $.5.5.7.5.n.n.A.J.G.H.G.G.D.A.A.A.D.A.F.S.A.D.7.A.D.G.D.A.D.D.n.",
"A.S.F.D.F.d.d.F.K.G.S.D.A.s.s.s.s.s.s.S.F.A.S.s.s.e.2.p.p.d.s.7.6.6.6.2.2.s.s.A.S.D.S.D.s.s.s.s.d.d.d.s.s.d.s.y.s.s.D.F.A.S.A.A.",
"2.2.2.2.y.2.2.7.6.6.6.6.6.6.1.5.1.5.3.2.2.5.6.2.5.5.@.1.1.1.5.:.<.<.+.+.+.5.1.2.2.2.2.2.1.5.1.1.1.1.<.1.1.<.1.3.2.2.2.6.2.6.6.2.",
"2.5.x.y.H.S.e.t.y.2.6.x.G.V.n.z.<.3.6.x.x.x.x.5.5.z.x.6.<.2.6.<.+.5.3.o.o.2.1.6.2.@.1.3.3.2.1.o.1.1.1.5.6.<.3.2.<.6.y.x.2.6.6.x.",
"A.a.d.d.a.a.d.a.d.d.a.a.d.y.s.y.s.e.2.y.s.2.e.2.2.y.2.t.e.r.r.y.y.2.n.x.e.r.s.r.r.e.e.y.a.u.u.r.s.d.s.d.d.S.S.S.S.S.d.S.S.d.S.d.",
"d.d.d.d.p.a.a.u.d.a.u.s.r.s.y.e.y.e.e.2.2.2.2.2.y.y.7.s.a.s.s.s.2.6.b.D.2.2.2.S.s.y.y.A.A.S.S.s.A.G.I.F.S.d.d.S.d.a.d.s.y.a.u.u.",
"d.F.d.i.u.s.u.r.u.y.t.s.t.t.S.s.2.A.s.A.2.A.A.s.A.s.@.o.1.2.1...] 3.D.G.A.s.s.2.G.D.A.A.D.F.G.F.F.Q.F.s.y.d.H.H.S.s.y.s.A.S.s.a.",
"K.V.P.I.I.P.d.9.9.t.t.4.2.V.H.H.s.H.A.A.s.A.F.A.A.n.V.y.A.A.y.3.:.5.s.D.D.A.S.G.F.J.D.A.S.A.s.F.F.F.K.K.K.H.H.K.T.6.G.J.K.G.x.y.",
"n.;.P.P.P.P.F.F.F.H.K.J.K.K.K.F.H.S.A.x.A.F.H.H.A.D.S.D.S.A.D.y.s.s.A.D.A.D.F.H.K.F.D.A.D.D.A.s.A.H.A.A.A.D.D.G.S.A.A.K.H.K.Y.G.",
"T.3.D.K.K.K.H.K.L.H.H.K.K.H.H.A.G.D.G.A.A.S.S.G.H.K.K.K.H.G.D.A.G.H.K.K.K.K.W.K.K.Q.K.K.K.K.G.K.K.F.G.G.H.H.H.Y.J.K.K.T.P.K.K.T.",
"G.z.5.4.2.2.3.2.2.4.<.<.4.4.3.2.3.3.5.<.<.+.<.<.2.5.3.3.5.5.<.<.3.5.x.5.6.b.<.<.,.n.5.x.z.5.x.2.2.3.<.2.5.6.2.2.6.V.y.6.2.4.V.z.",
"a.u.u.0.0.r.t.q.a.y.q.8.q.e.2.e.t.e.r.e.e.@.1.1.-.2.2.2.7.2.@.<.2.e.y.2.2.e.2.1.1.2.<.2.y.2.y.2.@.e.t.y.a.S.p.e.u.d.d.r.w.d.d.d.",
"d.u.9.q.q.e.t.w.u.1.t.r.y.r.q.q.9.q.q.9.1.1.1.#.^ <.2.e.e.r.p.r.e.e.d.d.a.p.d.p.e.2.e.1.e.e.e.r.e.e.e.t.e.e.r.S.d.d.S.d.a.a.a.a.",
"V.A.V.x.y.V.V.V.y.y.V.Z.A.C.C.y.y.V.C.u.2.x.6.3.2.V.A.y.s.y.y.d.d.u.y.d.d.S.D.<.6.2.s.S.y.1.t.t.t.A.V.y.V.4.t.C.A.y.t.9.u.Z.K.A.",
"Y.x.R.;.H.4.Z.;.4.G.G.4.4.V.1.S./.T.l.;.J.<.y.H.F.4.4.T.A.V.T.S.s.K.H.F.S.H.J.J.T.F.K.H.K.S.D.H.G.J.n.v.Y.K.V.A.H.A.G.;.C.(.G.<.",
"G.c.v.x.Y.l.Z.l.;.t.l.V.4.Z.P.T.W.H.K.Z.A.A.C.V.V.S.H.K.1.Z.K.S.y.K.(.^.D.H.T.T.S.K.x.H.2.A.Q.T.G.4.D.z.R.J.A.G.H.G.G.G.Z.x.H.G.",
"M.G.G.Y.H.W.H.P.Z.V.C.Z.C.C.H.C.L.H.Z.L.V.V.C.S.L.H.C.C.S.S.t.y.D.S.A.s.A.D.F.S.A.D.2.K.2.2.G.Q.y.2.2.6.T.G.<.G.H.K.S.A.G.C.A.x.",
"K.G.G.H.W.H.H.K.C.H.Z.L.P.H.T.Z.H.T.H.K.H.S.K.P.P.K.P.P.K.F.S.S.d.S.s.F.F.P.H.S.F.F.F.I.K.H.A.F.H.K.K.Y.G.F.K.K.F.K.K.P.P.H.K.K.",
"5.,.3.3.=.-.4.x.t.V.t.x.l.l.C.C.2.y.;.1.1.t.1.1.+.e.y.t.1.2.@.2.2.@.X.+.2.<.3.3.<.5.6.5.<.3...o.<.%.3.<.<.+.1.1.1.o.o.<.2.2.3.4."
};
