/* XPM */
static char *_a7a853c92af48eae2a9c7d56becfe72J7x3Ebh5AXUbozc3[] = {
/* columns rows colors chars-per-pixel */
"64 64 207 2 ",
"   c #3C1D09",
".  c #3F1814",
"X  c #3F200C",
"o  c #301D22",
"O  c #352324",
"+  c #44230B",
"@  c #49260E",
"#  c #492712",
"$  c #4D2A13",
"%  c #46271A",
"&  c #482A1D",
"*  c #542D15",
"=  c #552F1A",
"-  c #5A351B",
";  c #5B331C",
":  c #61361D",
">  c #462B25",
",  c #4E3124",
"<  c #5D3825",
"1  c #4F3730",
"2  c #543632",
"3  c #643B21",
"4  c #693F24",
"5  c #613D2A",
"6  c #713835",
"7  c #6A4126",
"8  c #764B2F",
"9  c #634234",
"0  c #6B4637",
"q  c #66443C",
"w  c #75493B",
"e  c #4D4945",
"r  c #5E4B41",
"t  c #555153",
"y  c #6D4C41",
"u  c #764E41",
"i  c #665042",
"p  c #6C5146",
"a  c #6C584A",
"s  c #74554B",
"d  c #795749",
"f  c #79574B",
"g  c #735A4C",
"h  c #635850",
"j  c #745D54",
"k  c #7B5E51",
"l  c #7D6555",
"z  c #7F6B5D",
"x  c #855649",
"c  c #955B4B",
"v  c #865E51",
"b  c #8B624D",
"n  c #93624F",
"m  c #806356",
"M  c #876C57",
"N  c #836B5B",
"B  c #8C6D5A",
"V  c #966859",
"C  c #85705F",
"Z  c #8D725C",
"A  c #9A775E",
"S  c #A86C57",
"D  c #A9795D",
"F  c #836F60",
"G  c #946A66",
"H  c #8D7667",
"J  c #9A7D67",
"K  c #967F6A",
"L  c #A67F62",
"P  c #A97E61",
"I  c #A57D6A",
"U  c #AA7C69",
"Y  c #BC7D63",
"T  c #B07E69",
"R  c #AB825E",
"E  c #9D826C",
"W  c #998372",
"Q  c #A58165",
"!  c #AC8463",
"~  c #A3836B",
"^  c #A4886E",
"/  c #AD8C6D",
"(  c #B68968",
")  c #B38D6C",
"_  c #B6916E",
"`  c #BC936E",
"'  c #A48671",
"]  c #AE8071",
"[  c #A58A74",
"{  c #AC8D74",
"}  c #A78E7A",
"|  c #AB8E7A",
" . c #B28F73",
".. c #B58F77",
"X. c #AE9275",
"o. c #A7907D",
"O. c #AD927B",
"+. c #B49374",
"@. c #BB9574",
"#. c #BD9976",
"$. c #B4957A",
"%. c #BA967A",
"&. c #B6997C",
"*. c #BC9A7C",
"=. c #BFA17E",
"-. c #CA8667",
";. c #C68C6E",
":. c #D18C6E",
">. c #C2956E",
",. c #C6996C",
"<. c #D5916F",
"1. c #C29673",
"2. c #C99677",
"3. c #C39B75",
"4. c #C99D75",
"5. c #C0977A",
"6. c #C39D7C",
"7. c #C99E7C",
"8. c #D39173",
"9. c #DC9B77",
"0. c #DD9D7A",
"q. c #E09F79",
"w. c #C7A077",
"e. c #CBA077",
"r. c #C5A17E",
"t. c #CAA27C",
"y. c #E4A47C",
"u. c #B59781",
"i. c #B99783",
"p. c #B69A82",
"a. c #BC9D82",
"s. c #B59D89",
"d. c #BB9E89",
"f. c #B09B94",
"g. c #BEA184",
"h. c #B7A18B",
"j. c #BDA28C",
"k. c #BDA492",
"l. c #BDAB9D",
"z. c #A6A5A4",
"x. c #C69781",
"c. c #C29E82",
"v. c #C99F81",
"b. c #C19F88",
"n. c #D49F85",
"m. c #C49B93",
"M. c #C5A284",
"N. c #C8A386",
"B. c #C9A484",
"V. c #CAA585",
"C. c #C4A887",
"Z. c #CBA986",
"A. c #C1A289",
"S. c #C4A58A",
"D. c #C6A68A",
"F. c #C9A68A",
"G. c #C6A98D",
"H. c #CAA98A",
"J. c #CBAA8C",
"K. c #CAA98E",
"L. c #CEAA8E",
"P. c #D0A685",
"I. c #DFA482",
"U. c #D1AC8C",
"Y. c #D4B18F",
"T. c #C3A691",
"R. c #C5AA93",
"E. c #CBAC92",
"W. c #C6AC99",
"Q. c #C9AE99",
"!. c #D2AD92",
"~. c #D8AC95",
"^. c #CDB195",
"/. c #C6B09F",
"(. c #CCB29A",
"). c #CFB89E",
"_. c #D3B392",
"`. c #D3B39A",
"'. c #D1B89B",
"]. c #E5A780",
"[. c #E5AB87",
"{. c #E8AD87",
"}. c #E4AC8B",
"|. c #E9AF8A",
" X c #EAB28E",
".X c #E8B698",
"XX c #ECBA9B",
"oX c #CFBBA3",
"OX c #D2B9A4",
"+X c #D8B8A3",
"@X c #D9BEB0",
"#X c #EBBEA2",
"$X c #D4C2A8",
"%X c #EBC2AA",
"&X c #F1C4A6",
"*X c #F0C6AB",
"=X c #F4CAAC",
"-X c #EEC7B1",
";X c #EECCBC",
":X c #F5CEB2",
">X c #F1CEB9",
",X c #F7D0B4",
"<X c #F8D2B7",
"1X c #F2D1BC",
"2X c #F9D5BA",
"3X c #F9D9C3",
"4X c #FAE6DC",
/* pixels */
"&.&.&.p.%.+.+.@.*.*.&.%.*.&.%.%.&.a.c.6.c.6.#.*.&.c.c.c.i.p.p.u.u.p.u.u.u.u.+.X.[ X./ { { +.&.&.$.+.&.&.$.$.+.$.$.$.$.&.&.%.&.%.",
"6.6.6.6.M.6.M.6.M.M.M.c.M.N.c.6.c.6.3.1.@.` >.>.*.*.M.c.5.5.c.c.M.M.N.M.6.1.` #.M.a.N.N.M.M.M.r.M.B.M.c.c.6.@.3.6.6.6.3.2.2.3.3.",
"6.B.B.6.M.M.B.N.N.N.F.F.N.N.M.N.D.6.5.5.%.%.5.1.&.~ b.N.c.5.6.N.D.K.K.F.B.N.B.3.%.A.F.H.U.Z.B.B.B.B.B.B.M.r.r.t.B.6.6.6.r.M.r.6.",
"b.A.b.*.M.M.F.E.E.E.L.U.H.B.B.B.F.D.M.D.D.K.E.F.D.[ %.M.b.M.H.!.H.K.E.E.`.(.Q.F.A.D.K.N.B.B.B.B.N.M.B.6.r.r.r.B.t.6.6.M.M.H.H.M.",
"K.E.E.D.i.| [ d.T.R.D.R.R.Q.Q.K.*.@.@.a.A.D.T.j.j.u.i.K.D.K.L.H.B.r.M.M.M.c.N.F.D.a.c.M.L.U.Z.B.c.6.B.Z.M.B.B.B.Z.F.B.6.r.F.F.F.",
"F.K.R.D.O.[ L 1.3.%.6.M.M.B.B.r.6.B.H.N.M.D.D.G.M.M.K.H.L.H.B.Z.t.7.F.K.a.3.6.6.c.%.F.L.B.t.B.B.r.Z.B.B.c.N.r.M.N.B.M.6.r.B.M.M.",
"F.D.D.D.&.~ ` M.D.#.3.H.U.U.U.t.3.6.B.M.c.D.N.N.c.c.N.N.B.B.P.Z.t.Z.K.F.M.6.r.B.c.&.H.Z.B.t.B.B.B.t.7.%.6.U.U.U.U.U.Y.H.L.L.N.N.",
"b.b.N.*.@./ +.T.D.*.*.6.6.6.6.3.3.3.3.5.5.c.5.*.*.3.6.3.6.6.7.2.3.3.3.%.@.) @.*.*.*.*.*.*.5.*.*.5.3.@.&.6.B.B.B.M.M.B.B.F.D.D.b.",
"Q Q Q ~ ^ { ' ' [ | $.%.%.+. . . . .+. . .+.+. .{ /  .+.) ) @.@.+.+.{ { / { +.+.+.) ! R ! ( / D R ! ! ! ! ! ! ! Q P P L Q Q ~ ~ ",
"A.D.D.D.D.D.D.A.D.D.G.F.D.D.N.M.N.N.N.N.M.N.N.N.B.N.M.B.Z.H.Z.B.B.B.M.$.+.r.M.M.c.6.3.3.3.t.6.6.6.6.6.7.6.3.6.r.6.c.M.a.a.A.D.A.",
"g.g.M.A.A.D.D.D.D.A.D.D.D.F.D.N.D.N.M.M.6.6.3.6.M.c.M.M.r.6.c.c.c.5.*./  .5.6.6.c.6.c.M.M.c.M.D.F.N.D.F.D.D.D.E.G.D.D.R.Q.R.W.j.",
"A.D.%.3.#.+.$.a.g.a.M.c.3.3.6.c.N.E.K.E.E.E.G.D.F.D.D.D.D.G.K.F.D.a.a.A.D.D.G.G.E.R.G.D.D.D.M.c.D.M.7.7.6.3.5.6.6.6.6.6.6.6.M.c.",
"D.j.&.4.>.+.a.a.M.M.M.c.c.c.M.N.M.K.E.D.E.Q.R.F.N.6.6.3.6.c.c.N.K.D.D.G.E.D.R.W.W.Q.R.D.D.N.K.E.G.B.L.E.(.R.W.R.R.R.D.D.T.D.A.A.",
"D.D.j.g.D.M.F.D.E.E.E.E.`.Q.E.E.E.L.F.D.K.E.E.E.D.R.R.D.D.E.R.G.D.D.M.M.M.G.G.E.D.D.N.D.E.R.K.E.G.R.R.R.D.a.a.a.M.A.A.D.D.D.D.D.",
"D.D.j.j.Q.E.K.D.F.F.F.H.F.F.N.N.F.N.M.N.N.N.N.N.N.M.N.N.N.N.M.6.6.M.6.6.c.M.N.M.N.N.M.M.D.N.F.B.N.N.N.M.N.c.c.N.N.N.M.M.M.F.F.K.",
"c.a.i.g.R.R.D.D.D.F.F.F.F.K.D.B.F.B.N.N.N.N.N.N.D.N.N.N.M.D.F.B.N.N.N.N.N.B.B.N.N.N.c.M.D.F.c.M.M.c.M.M.M.*.*.a.c.a.a.b.M.N.b.c.",
"&.i.u.i.u.$.$.&.&.&.&.$.+.+.+.$.+.$.$.$. .{ { { { +.+.+.{ {  .+.X.+.$.+.+.+.+. .+.+.+.+.+.+.{ {  . .{ +.X.{ { +.+.O.O.+.$.+.&.$.",
"A.A.M.M.D.D.D.D.D.D.F.F.F.B.F.F.F.F.B.B.N.M.M.N.M.N.N.6.r.6.6.c.M.D.D.M.M.M.N.B.N.M.N.M.N.B.M.6.B.B.B.t.6.6.M.N.D.N.D.N.M.c.A.A.",
"g.j.p.a.M.M.A.A.M.M.N.M.a.M.N.M.M.D.N.M.N.M.M.M.N.N.M.M.M.M.B.c.M.D.D.M.c.M.M.D.D.A.A.D.D.F.F.F.F.K.L.L.M.M.N.M.M.a.a.c.a.a.a.b.",
"d.j.d.u.R.R.R.R.T.T.W.R.T.R.E.K.D.E.D.N.M.A.D.D.A.D.D.D.N.&.E E E E } D.D.D.D.D.A.a.M.A.D.b.M.A.A.D.A.T.R.W.Q.Q.T.j.d.k.h.d.d.a.",
"M.B.M.a.E.!.E.D.G.G.Q.E.D.E.^.Q.E.Q.Q.Q.R.T.R.R.Q.Q.Q.Q.H f U d.i.] x j s.W.W.(.R.R.Q.Q.Q.R.Q.Q.Q.(.R.R.Q.(.(.Q.R.D.T.j.R.D.M.c.",
"t.B.D.N.F.H.B.B.B.B.B.B.B.B.B.M.M.N.M.M.N.g.M.A.K.K.G.W n &X2X2X2X:X|.Y s k.W.W.W.Q.Q.Q.R.R.Q.E.E.E.D.D.F.F.K.D.D.M.N.M.B.M.M.M.",
"D.R.D.N.N.B.B.B.B.B.B.B.6.6.M.N.c.M.N.M.c.c.6.M.N.N.M.y .X3X4X2X2X2X=Xy.x O.D.D.A.R.E.D.F.F.B.B.H.L.H.F.B.F.H.F.F.F.F.D.M.B.H.L.",
"j.j.a.b.c.6.6.*.*.*.a.c.*.*.*.&.*.*.a.a.*.*.*.*.*.&.&.f :X3X4X3X2X2X2X{.D J &.&.&.&.a.c.c.N.c.c.N.c.c.c.c.c.c.M.c.a.a.a.a.M.M.a.",
"} o.} | $.{ { | O.O.O.| ' ' [ [ | o.} [ [ { [ [ } } C c :X2X2X2X2X2X2X{.Y p | { { { { O.O.| | { { { { | | ~ ~ O.$.O.' O.{ o.o.} ",
"l.k.W./.W.R.R.D.R.(.E.%.$.d.d.d.j.j.A.a.a.M.A.b.a.a.N Y XX2X2X2X2X2X=X].8.g M.M.D.D.D.F.F.F.D.D.D.D.R.R.g.| W u.b.{ a.).D.k.W.l.",
"k.j.R.(.R.T.R.R.(.).g.+.D.R.Q.OXOXD.A.(.).Q.D.c.*.K.K ] [.=X<X2X2X:X X0.n.j D.F.N.M.M.*.c.N.D.D.D.D.D.g.&.M.D.j.A.%.D.Q.D.D.D.j.",
"&.a.N.*.&.%.&.*.c.6.c.D.M.M.b.D.F.F.D.D.A.D.b.~ a.*.N.H S y. X X X].y.-.N j.(.^.*.Q.c.a.E.c.E.a.E.a.G.M.%.E.^.D.D.(.F.b.D.D.M.M.",
"a.a.*.M.A.A.D.b.c.c.b.M.M.D.N.F.D.D.N.c.c.c.c.e h A B s w -.y.y.y.y.<.c p k *.c.c.M.M.M.6.6.c.c.N.N.c.c.N.F.D.E.E.M.c.c.*.%.5.c.",
"6.6.6.N.E.F.B.B.B.B.F.B.B.F.F.D.D.D.N.N.N.N.b.z z.t G ;X#X8.q.y.y.y.:..X>Xm.k c.c.c.6.6.6.6.v.7.7.v.6.6.B.N.N.D.F.F.N.N.c.6.6.6.",
"6.6.6.B.L.L.H.B.B.6.O.6.B.B.B.D.D.D.N.N.M.B.F.K.F j %X3X2X:XXX[.[. X=X2X2X3XV  .N.B.B.v.B.B.B.B.B.B.7.6.6.7.M.D.D.N.N.N.c.6.r.B.",
"@.@.@.+.@.%.%.+.+.+.) @.@.+.+.+.+.+.+. ._ _ +.+./ f y.}.:X2X2X2X2X2X2X<XXXI.D Z #.#.1.#.@.@.#.3.#.1.#.@.@.@.@.$.*.%.@.@.@.#.@.@.",
"#.#.#.*.#.@.#.*.+.+._ +.+.+.$.&.&.*.a.*.&.*.+.+.l ( 0.0 ;.=X=X,X2X&X<X[.w Y I.y 6.6.#.#.#.#.#.#.#.#.#.@.6.*.@.@.*.*.#.3.#.*.@.#.",
"3.6.6.t.B.6.6.6.6.6.#.#.3.#.6.6.6.6.6.M.M.M.M.B.B @XT i w 9.{.:X2X XI.S O u 1Xl Z.Z.t.t.t.B.t.t.t.t.t.e.e.t.Z.K.M.r.t.t.t.r.3.3.",
"1.1.1.6.r.` ` @.#.#.@.#.@.*.*.#.M.#.*.M.g.g.C.6.M `.!.> & b ;.`.+X2.P 9 o I :Xg 3.r.M.B.M.M.M.r.Z.^.t.3.3.r.M.Q.K.B.M.M.6.#.3.@.",
"` @.` _ _ ( @.#.#.#.r.M.*.g.g.+.*.*.$.g.g.*.*.6.M x.2XV # $ % , & % 0 4 q *X%Xy *.G.H.g.G.M.6.M.(.'.Z.t.r.M.M.G.M.E.K.@.M.r.@.+.",
"#.6.r.r.r.#.#.M.g.#.M.M.g.*.*.&.*.&.*.g.M.G.*.=.{ v !.A # * @ @ + $ 3 : b U.U = a $X(.G.D.r.M.G.G.G.M.r.6.r.M.M.r.M.M.M.M.r.*.#.",
"6.6.r.r.6.r.M.M.M.M.a.a.*.=.=.=.=.*.&.*.M.M.g.#.#./ r   @ @ + + $ * * 7 0 j g . H oXG.M.M.r.M.).).(.R.G.M.M.M.M.M.r.M.M.r.r.6.3.",
"F.H.Z.Z.M.H.K.K.E.R.s.p.j.G.a.&.g.D.D.M.C.G.R.C.M.H.N $ + = - 7 3 @ : 8 9 K h.G.j.W.(.E.E.K.K.^.^.^.E.^.E.^.E.H.M.M.M.M.M.M.M.B.",
"+.&.&.$.+.$.&.&.&.$.O.o.' E E [ X.&.+.X.+.+.+./ / / a < * + - 4 @ ; 3 8 & r E [ { h.&.+.+.+.+.+.+.+.+.+.+.$.+.+.{ ) +.+.+.+.+.+.",
"&.&.i.i.g.a.a.a.p.p.p.p.p.p.&.i.a.h.h.p.p.p.u.p.u.p.2 2 5 = + + X ; < 1 2 6 K *.p.p.&.p.p.p.p.i.&.p.a.*.a.a.i.O.$.a.g.&.&.&.&.$.",
"M.r.r.M.B.M.M.6.*.6.r.M.r.*.#.*.r.r.r.M.M.6.6.r.6.c.s ~.f.q g N z N q -X;Xn ^ M.M.M.M.N.M.M.M.M.M.M.B.B.M.r.6.[ E M.N.M.M.M.r.r.",
"r.r.M.M.M.r.r.r.M.M.M.M.M.M.M.M.Z.Z.B.B.B.M.B.B.B.M. .y l y +.r.r.M.m f s Z F.H.K.K.K.L.L.L.K.L.^.K.L.K.Z.M.#.~ E a.6.3.6.M.M.M.",
"M.M.M.K.H.M.H.L._._.L.H.K.H.K.H.K.H.H.H.L.L.H.H.B.B.B.t.6.r.M.M.Z.M.a.K.K.G.G.K.G.K.G.K.K.K.E.E.L.K.K.&.*.B.H.D.M.*.r.K.M.3.#.6.",
"M.M.M.B.B.Z._.!.r.B.^.E.K.K.K.L.^.E.L.E.^.L.B.M.M.r.r.6.r.M.M./ a.j.+.M.D.D.G.K.G.G.D.M.M.M.K.K.K.K.M.+.*.M.R.a.g.M.H.K.M.M.M.M.",
"M.M.N.M.M.r.r.&.+.M.M.M.M.M.M.M.M.M.M.B.Z.B.M.r.r.6.6.r.r.r.*.Z ' p.*.*.$.g.M.M.D.G.K.G.C.G.M.M.M.M.B.Z.M.M.M.a.M.M.H.M.M.D.D.M.",
"B.B.B.B.B.B.Z.H.K.D.F.H.M.M.r.r.r.r.r.B.B.B.M.r.6.6.3.3.r.r.M.p.*.*.*.*.*.6.M.M.M.B.B.M.M.M.r.t.t.r.r.M.M.r.r.6.r.B.Z.F.M.B.M.M.",
"#.#.*.*.3.3.#.*.*.*.*.&.*.*.*.*.+.@.@.*.*.&.*.*.%.@.@.@.@.@.+.X.+.+._ ) +.@.@.#.*.#.*.*.@.+.@.@.@.@.@.@.@.@.@.%.%.#.*.*.#.*.*.#.",
"&.&.*.6.F.B.3.3.3.*.*.a.M.M.g.&.+.$.a.a.a.a.a.&.&.i.a.a.@.@.*.+._ *.$.) ) #.@.*.*.@.@.+.%.*.@.) @.@.@.&.&.+.$.%.+.*.*.6.*.*.*.*.",
"M.t.t.t.e.e.t.t.t.t.t.t.t.6.6.6.6.3.3.6.6.6.6.#.#.3.#.3.3.3.3.6.6.6.a.c.3.6.r.4.2.3.3.6.r.t.4.7.6.t.t.t.B.B.B.B.M.B.t.B.t.r.t.t.",
"7.t.t.7.t.t.t.7.t.t.7.t.6.6.6.6.6.3.3.#.#.6.#.#.6.6.#.6.r.r.r.r.*.*.h.D.#.@.6.B.r.6.6.B.B.B.B.r.M.F.K.H.B.t.t.B.t.t.t.6.6.t.7.7.",
"B.Z.t.7.7.t.7.3.6.3.3.6.3.3.M.r.#.M.r.M.3.6.M.*.M.r.` ) @.#.@./ W O.D.D.M.6.#.*.G.M.M.M.M.B.H.H.H.K.H.r.6.B.F.F.B.r.6.r.M.t.r.t.",
"D.6.H._.Y.H.t.` ` 1.5.%.%.c.H.B.6.F.M.M.6.M.B.M.M.M.c.6.M.M.6.+.{ #.M.N.N.M.M.D.K.H.N.M.M.M.M.Z.Z.H.L.L.H.H.D.L.E.*.D.K.K.D.c.5.",
"d...Z.U.U.U.Z.Z.B.H.K.K.K.L.L.B.B.B.N.a.M.B.H.H.M.M.M.M.M.M.M.6.r.r.M.M.N.N.H.H.H.H.D.M.M.M.M.r.M.B.N.N.N.B.M.D.M.M.N.K.H.K.K.A.",
"R.$.M.U.L.L.H.L.H.Z.H.K.L.F.F.M.M.M.D.N.B.B.B.F.H.H.H.K.H.D.N.M.D.K.L.E.L.L.L.K.L.L.L.K.K.K.H.K.K.F.D.M.D.D.D.G.G.K.K.K.L.L.K.E.",
"M.a.i.@.@.@.+.*.*.$.+.+.$.%.$.&.$.$.&.$.+.+.+.+.&.&.$.$.&.&.+.+.$.&.*.&.&.a.$.+.$.a.&.p.a.&.i.&.@.+.+.&.*.*.#.*.*.6.6.#.*.*.a.a.",
"r.r.t.,.3.4.3.2.t.6.@.` 1.1.1.3.#.3.6.3.3.` #.+.) #.#.#.#.#.@.@.@.#.#.@.#.#.#.@.+.*.+.*.6.*.6.#.@.3.1.6.6.Z.t.3.4.t.t.4.4.t.t.t.",
"t.7.1.3.1.3.1.3.3.@.1.3.6.3.1.1.1.1.1.1.1.@.@.{ J +.3.3.3.4.3.3.3.3.t.t.e.w.t.3.1.>.1.1.1.3.3.3.3.3.3.3.3.3.6.t.t.t.Z.t.t.t.7.3.",
"c.N.c.*.5.c.6.c.5.*.b.N.N.N.B.6.5.6.B.6.*.*.&.%.*.c.M.6.c.6.t.t.t.6.6.B.t.M.M.+.a.#.r.M.5.#.3.3.3.c.c.*.c.*.3.c.N.5.5.@.6.c.F.N.",
"T.i.W...F.%.b. .%.D.D.%.%.c.@.M.^.E.a.) G.+.*.F.B.%.*.E.b.c.K.N.r.L.H.B.B.H.K.G.K.Z.L.H.H.F.M.F.H.G.j.a.D.L.M.N.D.N.N...N.`.D.+.",
"D.d.g.a.E.$.D.$.%.5.*.%.*.N.L.L.U.F.E.b.M.N.c.c.c.N.F.H.@.a.E.B.5.E.`.`.M.D.^.E.M.H.*.F.*.M.E.E.D.%.M.i.Q.R.N.D.F.D.D.D.b.5.D.D.",
"D.M.D.D.E.Q.K.K.N.5.b.N.c.N.B.N.Z.Z.N.H.c.M.N.B.Z.B.v.7.N.N.6.6.B.B.M.M.M.M.F.B.M.B.#.H.*.#.K.E.6.@.*.&.W.D.+.M.F.H.F.N.M.M.N.c.",
"K.G.K.F.L.F.F.L.M.B.F.F.E.F.K.F.F.L.F.Z.B.B.Z.H.H.U.L.H.H.Z.B.Z.Z.B.t.Z.Z.L.D.B.H.H.K.U.K.Z.M.Z.H.K.K.K.D.F.L.H.Z.H.L.H.U.H.L.H.",
"&.+.+.$.+.{ &.&.*.5.%.*.i.&.c.c.*.*.@.@.@.#.@.#.+.6.6.3.#.#.+.*.#.` ( ) #.+.+.+.+.+.&.&.+.+./ +. .{ +.$. .+.@.@.@.) ( +.*.#.$.$."
};
