/* XPM */
static char *result[] = {
/* columns rows colors chars-per-pixel */
"64 64 124 2 ",
"   c #461514",
".  c #481616",
"X  c #4D1B1B",
"o  c #531E14",
"O  c #521F1F",
"+  c #56241D",
"@  c #58241B",
"#  c #6B331A",
"$  c #783112",
"%  c #733A1D",
"&  c #7A3D1B",
"*  c #542424",
"=  c #592525",
"-  c #55292A",
";  c #5A2C2C",
":  c #562F31",
">  c #5D3131",
",  c #602D25",
"<  c #6C3622",
"1  c #62322F",
"2  c #653B2F",
"3  c #623434",
"4  c #663A3A",
"5  c #693D3D",
"6  c #703F3F",
"7  c #6F4639",
"8  c #714A32",
"9  c #7E403D",
"0  c #6D4242",
"q  c #664649",
"w  c #624B4D",
"e  c #724545",
"r  c #794747",
"t  c #774B4B",
"y  c #7B4C4D",
"u  c #6A574D",
"i  c #735343",
"p  c #7C5742",
"a  c #665757",
"s  c #735956",
"d  c #6E6165",
"f  c #6B6B6C",
"g  c #7C6660",
"h  c #726966",
"j  c #7C6967",
"k  c #746B6C",
"l  c #6F6E70",
"z  c #706F72",
"x  c #6F7172",
"c  c #737275",
"v  c #767479",
"b  c #79767C",
"n  c #75797C",
"m  c #7B797E",
"M  c #8B5329",
"N  c #875A3F",
"B  c #955B3A",
"V  c #B16723",
"C  c #BA6D24",
"Z  c #B56D2B",
"A  c #BD732A",
"S  c #B57534",
"D  c #B5773A",
"F  c #C96013",
"G  c #CD6A19",
"H  c #D06614",
"J  c #D6741C",
"K  c #C67020",
"L  c #C57A2F",
"P  c #CC7F2A",
"I  c #DA7F23",
"U  c #C27735",
"Y  c #C47C3A",
"T  c #885A40",
"R  c #885F48",
"E  c #855454",
"W  c #93785C",
"Q  c #946262",
"!  c #87766F",
"~  c #807070",
"^  c #847A79",
"/  c #A47E61",
"(  c #DC8226",
")  c #DD8528",
"_  c #E08F2E",
"`  c #E09034",
"'  c #E29538",
"]  c #A78D79",
"[  c #C38346",
"{  c #E49B41",
"}  c #DAA55F",
"|  c #E6A249",
" . c #E7A650",
".. c #7D7B81",
"X. c #827D85",
"o. c #847F88",
"O. c #7C8286",
"+. c #7E8589",
"@. c #818087",
"#. c #85838B",
"$. c #88868F",
"%. c #81898E",
"&. c #878790",
"*. c #888790",
"=. c #858B92",
"-. c #8A8B94",
";. c #8C8F98",
":. c #8B9097",
">. c #879298",
",. c #8D929B",
"<. c #8D989F",
"1. c #959597",
"2. c #91969E",
"3. c #A19A91",
"4. c #8F97A0",
"5. c #8D9AA2",
"6. c #9097A1",
"7. c #929BA5",
"8. c #949FA8",
"9. c #96A3AC",
"0. c #97A7B0",
"q. c #98A7B1",
"w. c #97A8B1",
"e. c #9BACB6",
/* pixels */
"e.e.e.e.e.e.n f f f f b 7.e.e.e.2.v f f f f c m x $.e.0.o.X.f f f X.w.e.e.e.*.c f f f f v 5.e.e.e.6.b f f f f z ..l *.e.e.q.X.f ",
"f #.#.#.o.z ..8.q.9.-.c ..o.#.#.m v X.v z X.*.8.m c #.#.X.X.f X.X.f #.#.#.#.z m 7.q.0.-.z ..o.o.#...z X.b x ..&.8...l *.e.e.X.f ",
"X.f f f f f X.#.#.#.#.c f f f f v -.6.b c ;.w.e.8.m z X.X.f X.e.0.X.k f f f f m o.*.#.o.c f l f f v ;.6.b c -.e.e.8...z #.o.f X.",
"o.f f f f f f f l l f f v ..X.v v #...c &.w.e.e.w.7.X.f c X.q.e.e.o.f f f f f f l l l l f v ..X.c v o.X.c &.q.e.e.e.7...l l X.0.",
"9.X.f f b X.......l v ..,.9.;.v f l f c ;.e.e.e.0.$.X.f X.0.e.e.e.9.X.f f b ........l v ..,.9.,.v f l f z ;.e.e.e.q.#.X.f X.9.e.",
"e.#.f b 7.8.9.9.&.c b ,.q.e.&.v m m ..b m 6.9.-.#.z z f #.e.e.e.e.e.#.f b 7.9.8.9.-.z b ,.w.e.=.v X.....b b 4.9.-.#.z z f #.e.e.",
"e.8.X.c &.q.e.e.9.#.v #.9.e.%.v ;.8.8.,.v ..#.x c b m b c ,.e.e.e.e.9.X.c *.0.e.e.9.#.v O.9.e.+.c ;.8.8.,.b b #.z c ..b b v ;.e.",
"e.e.#.f c &.w.e.4.m v c #.;...+.9.e.e.q.;.v v b X.8.8.2.b c ;.e.e.e.e.#.f z *.q.e.5...v c #.,.....q.e.e.q.;.v v b X.8.7.6.b c ,.",
",.,.v b v v &.,.m v -.%.c c l ..8.e.e.e.q.=.x &.8.e.e.e.2.b c ,.2.,.,.b v b v &.,...v ;.#.c c l ..8.e.e.e.w.-.l *.8.e.e.e.4.b c ",
"c v v ,.5...v v v ;.q.9.#.l f x #.8.9.,.,.#.v 8.e.e.e.e.q.c f c v c c v ,.7...v c v -.9.9.#.l f x O.9.9.,.,.#.v 8.e.e.e.e.e.c f ",
"v f X.q.e.7.x c -.q.e.e.;.c f f v -.#.v v x v 7.e.e.e.e.;.f v v v b f X.w.e.8.x x -.q.e.e.,.c f f c *.&.v v c v 7.e.e.e.e.;.f v ",
"X.f ,.e.e.e.n =.q.e.e.e.;.x f f v ..v c c v v O.4.7.4.,.v f #.,.,.X.f ;.w.e.e.n =.q.e.e.e.,.v f f c ..v c v c v ..6.7.6.,.v f X.",
"b f 4.7.e.8.c -.q.e.e.e.;.c x ..+.n O.,.,.;.m l b b b v f f v 7.7.b f ,.7.e.8.v -.w.e.e.e.,.c l ..O.c O.,.,.-...l b b b v f f b ",
"z c b b 5...f v ,.7.8.8.#.v O.9.+...7.e.e.9.#.x f c z f c c c v b c z b b ,.O.f c ,.7.7.8.#.c #.8.=.n 7.e.e.9.*.z f z z f z v z ",
";.;...O.m f f c b m ..b c #.8.e.=.O.0.e.e.q.,.v m *...l ;.;.*.f c ;.;.O.....f f x v ....m v O.8.e.=.O.9.e.e.w.,.b b -...l -.-.;.",
"e.e.e.e.+.f f #.v z f f O.8.e.e.-.v *.q.w.,.b n ,.q.#.c e.e.5.c *.e.e.e.e.+.x f #.n l f l ..8.e.e.,.c &.q.e.,.b v ,.e.#.x e.e.5.",
"e.e.e.e.9.c ..9.2.o.c c ,.w.e.q.;.c c &.,.m v ,.e.e.9.c 9.w.f *.e.e.e.e.e.9.c ..8.6.#.z v ;.q.e.w.,.c c &.,.n v ,.e.e.9.x 9.e.f ",
"e.9.q.9.$.l ..9.e.-.c f b 2.9.;.b f z c v c ,.e.e.e.5.f #.w.f 9.e.e.0.0.0.*.l ..8.e.;.c f b 2.9.,.n f f c v c ,.e.e.e.7.f #.w.f ",
"w.X...X.X.f m 8.q.*.c f v X.....v b #...f O.w.e.e.7.b f #.9.f X.q.q.o.....X.l b 7.q.-.z f v ....X.v b #...f ..w.e.e.8.b f X.9.f ",
"X.f f f f f f b X.X.c f f f f f v ,.e.7.b c *.e.8...f f f X.f f X.X.f f f f f f ^ o.X.z f f f f f v ,.e.8.m x &.e.9...f f f ..f ",
"f f X.#.#.#.X.z f f ..o.c f f f v ,.e.7.b f f X.X...f f f f o.#.f f f X.o.o.o.o.z f f ..o.v f f f c ,.e.7.b f k X.X.X.f f f f #.",
"X.f X.w.e.e.*.z ..8.e.e.;.l f f f v X.b f f f f f z X.X.f #.e.e.o.o.f ..0.e.e.-.z ..7.e.e.,.c f f f c X.b f f f f f f X.X.f o.e.",
"e.X.f q.e.e.e.n ..o.#.#.X.c v X.c f f c X.X.X.b l #.9.X.f #.e.e.e.e.o.l 0.e.e.w.....o.o.#.#.c v X.v f f c X.X.X.b z $.9.X.f #.e.",
"e.o.f q.e.e.-.z f f f f f f =.,.v c X.-.w.q.8.m n q.e.8.X.z #.e.e.e.o.f 0.e.e.-.l f f l f f f %.,.v c X.*.w.w.8...v w.e.9.X.f #.",
"e.#.f #.&.#.#.l f f v ....c ..#.v v -.e.e.e.e.,.x ;.q.#.X.8 u #.e.e.o.l o.*.#.o.z f f v X...c n #.b v -.e.e.e.e.<.l ;.9.#.X.f f ",
"*.z ^ z l l l b l f b 6.9.-.v l f v 1.e.e.e.e.9.b c k > 4 3 3 3 4 4 4 % f z l z b c f v 2.9.-.v z f c ;.e.e.e.e.9.m c #.l f f f ",
"l ..8.7...l b 4.#.l b 7.e.q.+.+.+.v ;.e.e.e.e.,.7 r y Q e 5 4 3 4 5 5 5 3 3 a d 6.#.z b 7.e.w.+.O.%.c ;.e.e.e.e.9.X.f z ..m f f ",
"f o.-.-.o.l ,.e.9.#.v 4.e.7.n =.9.#...-.;.;.j 4 E E e 0 5 3 ; = ; ; 3 4 5 0 6 > g 8.#.v ,.e.8.m %.9.%.X.;.-.-.-.*...f X.8.7.m m ",
"f z z c z b 9.,.;.#.c ..,...f ..;...f c c c X r Q 0 0 > - * @ M     . - 3 0 0 0 ; s $.c O.-.O.f m ;...f z c z c c c X.8.e.e.8.8.",
"b b b b b v *...c c f z c v b v x x f c v i X e t 0 5 ; O < [ Y A L G & X 3 0 t r - h f z c b b v c x f z b b v f X.8.q.,.e.e.e.",
"6.6.7.7.6...v v v b v l c &.5.&.v c f c *.i X 4 e 0 4 > + ! e.X.f ~ / C * 3 0 0 0 - 2 v k c &.7.&.v c f c *.,.m x #.6.e.6.,.,.e.",
"e.e.e.e.e.*.l ..;.*.b b &.q.e.9.5.#.x c ;.> X > 0 0 0 4 - q ,.v =.4.w.1.- 5 0 0 5 - : m v &.9.e.9.<.$.z c -.8...z #.7.e.e.,.o.6.",
"e.e.e.e.e.$.f m ,.$.c m 8.e.e.e.e.6.b c *.- . * 3 5 E 5 3 1 ; - % % + * 3 0 0 6 3 O y c b 7.e.e.e.e.7.b c *.;.m l #.7.e.e.e.X.v ",
"7.e.e.e.e.$.x v v b f b 7.e.e.e.9.&.c l v w O * O > 4 0 5 5 4 ; 3 3 4 5 5 5 0 4 - X ; l b 7.e.e.e.q.&.c l b b v v b #.7.e.6.X.f ",
"b 7.8.7.8...c ..O.O.v b ;.7.8.7.&.v c l l c j L % X * > 3 5 5 5 5 5 4 5 3 > 3 * O # k n c -.7.7.8.=.v c x f c m *.c ..#.6.o.X.f ",
"c b b b m f X.6.8.8.*.c c b b b v ..*.b c #.1.L _ _ o X * = - 3 3 3 - - - * . 9 % } 8.*.c c b m b b ..*.b c #.6.q.&.c m o.X.b z ",
"o.f f f f f v b b ..b z l c c f v ;.;.v m 6.e.3.D ( P & . X = 3 , B T R N M $ S { ^ ....c f c c f v -.;.b b 4.e.e.q.#.c X.b z -.",
"*.z f f l z z z z f l z ..-.#.v c ..v c ,.e.e.e.1.] J K V Z Z U A ' |  .{ ` ( D W k f f z O.*.#.v c ..v c ;.e.e.e.e.8.X.f z -.e.",
"e.o.f f #.*.*.*.o.c b #.8.e.,.v l l l c *.w.e.9.7.X...p F H J I ( ( ) I ( V #.*.*.#.c b $.8.e.5.v f z f c *.q.e.9.7.X.b k #.e.e.",
"e.&.k X.9.e.e.e.;.v b 6.e.e.+.v #.*.#...c *.6.X.b f f z #.q.e.e.1.R p h ..8.e.e.e.,.v b ,.w.e.+.v #.$.$...c *.7.....f l l o.q.e.",
"e.e.#.f ..8.e.e.e.&.c b 4.q.+.v 6.e.e.8...z b f c #.#.o.f o.q.e.e.e.e.$.l ..8.e.e.e.*.c b 4.q.#.b 6.e.e.8...c b f z *.#.o.l X.q.",
"e.e.o.f f ..8.e.*.z ..c b X.c =.e.e.e.e.8...c o.;.e.e.e.X.l X.e.e.w.w.#.f f ..8.e.*.c ..c v X.v =.e.e.e.e.8...z o.-.e.e.e.X.f X.",
"o.X.f X.o.l X.X.l ..8.,.v f f c 4.e.e.e.e.,.z -.e.e.e.e.q.X.f X.#.X.X.k X.X.l ..X.c b 8.,.c f f v ,.e.e.e.e.5.z -.e.e.e.e.w.X.f ",
"f f X.q.e.#.z f b 8.e.e.;.c f f v ,.8.o.#.....e.e.e.e.e.q.f f f f f f X.0.e.#.l f b 7.e.e.;.c f f v 2.7.o.o...n e.e.e.e.e.q.f f ",
"X.f X.w.e.e.v b 8.e.e.e.;.c f f c #.m f f f c ;.e.e.e.q.o.f X...X.X.f X.q.e.e.n b 8.e.e.e.2.c f f c o...f f f z -.e.e.e.e.o.f X.",
"X.f 9.e.e.e.n 5.e.e.e.e.;.x f f b b c X.....b v #.#.*.#.f l o.q.q.o.f 9.e.e.e.n ,.e.e.e.e.,.c f f c b c ..X.X.b v #.*.#.#.f f o.",
"l f #.*.q.;.l @.9.e.e.e.,.c c :.#.v ;.9.9.7.m f z l l l f f l &.&.l f #.*.q.;.l O.9.e.e.e.,.c c -.=.v &.9.q.6...f l f k z f f f ",
"X.b x l #.c f l #.*.-.*.b b >.w.=.+.q.e.e.w.4.v f ..b f b ....l l ..b z l #.v f f #.*.*.-...v ,.w.=.O.q.e.e.e.4.b f X.b f b ....",
"8.8.5.5.v f f v c x l z b ;.q.e.=.n 7.e.e.9.#.c O.6...x 8.8.8.f ..8.9.5.5.v f f v c z z l v ;.w.e.>.n 5.e.e.0.#.c #.5.X.l 8.9.8.",
"e.e.e.e.5.c v ,.#.m l c ;.q.e.e.,.b ..5.9.#.c #.9.e.4.c e.w.....7.e.e.e.e.5.x b ,.#.b l c ;.q.e.e.<.v ..5.9.#.c O.8.e.4.x e.e...",
"e.e.e.e.2.l ..9.8.&.z l #.8.e.8.O.l l ..#.c O.9.e.e.8.x ,.e.f 7.e.e.e.e.e.,.c m 9.9.&.c l #.8.e.8.@.f f ..&.v O.8.e.e.9.l ,.w.f ",
"e.,.,.2.o.f X.9.e.;.c f v -.,.&.v x v v x ..8.e.e.q.=.l #.w.f ,.e.e.2.,.,.#.f X.9.e.;.c f v *.,.*.v c m v x v 8.e.e.e.-.f #.w.f ",
"6.b c v c f c -.,.*.x f c c c c v #.4.&.c n 7.e.q.-.c f v ,.f v 6.2.v v c v f c &.,.*.c f l c c v v #.4.-.c v 5.e.q.;.c f v ,.f ",
"v f v v v v v v v v v v l f f f v ,.e.8.b l ..4.,...f f f v v v v v f v v c b c v v v v v c f f f c 1.e.7.b l ..4.,...f f f v v ",
"c f X.;.,.,.#.z z O.;.,...f f f l #.7.&.c f l v v v v c f v ,.,.v c f X.,.,.,.#.z z O.;.,...l f f c %.6.-.c f l v b v v x f v ,.",
";.v b q.e.e.6.c ..,.7.7.-.c l c l l b v c c c x l v ;...f #.e.e.;.;.v v q.e.e.4.v b ,.7.7.-.c l c f f b v c c c z f b ;...f #.e.",
"e.o.f q.e.e.9.v v b b b b z ..*.v l z ..;.;.-...z 4.e.-.x ..7.e.e.e.#.f 9.e.e.9.v c m v m m z ..*.v z z ..;.;.-...z ,.e.-.z ..7.",
"e.#.f 5.9.8.#.l f f z z z z #.;.v c #.7.e.e.9.#.v 7.e.6...f ..7.e.e.#.f 6.8.8.*.l f f l z x l +.;.v v #.6.e.e.q.#.v 8.e.7.X.f ..",
"9...c b ..b ..z f f b *.-...v ..c v ,.e.e.e.e.8.c o.5.....f f ..9.8...z b ......c f f b *.-...v X.z z ,.e.e.e.e.8.x @.7...b f f ",
"..l &.n l f l #.v f b 7.e.6.n x l v ,.e.e.e.e.9...l b l l f f f X...z *.b z f f #.v f b 7.e.7.v c z v 2.e.e.e.e.9...f ..f f f f ",
"f X.9.q.#.l #.9.,.v b 5.e.w.+.=.>.v ;.q.9.9.0.6...f c &.o.l l f f f X.8.q.#.l o.9.,.v b 5.e.e.+.=.>.n -.q.9.q.9.6.X.f z *.#.l f ",
"f ..X.X...k 8.w.q.-.c >.q.;.c =.e.&.z X.X.X.X.X.b z -.e.e.&.o.f f f ..X.X.X.z 5.w.q.;.z -.q.;.c +.q.=.c X.X.X.X.X.X.z -.e.e.*.#.",
"f f f f f X.9.&.X.X.l v X.v f v X.z f f f f f f z -.e.e.e.e.w.o.d f f f f f ..8.&.X.X.x v X.v f v ..v f f f f f f z -.e.e.e.e.e.",
"o.o.X.X.o.f ..f f f f f f b X.v f f f z o.o...z -.e.0.#.e.e.e.o.f ..o.o.o.o.l ..l f f f f f v o.v f f f z X.o.b z *.e.q.#.e.e.e."
};
