/* XPM */
static char *result[] = {
/* columns rows colors chars-per-pixel */
"64 64 177 2 ",
"   c #050505",
".  c #0B0B0C",
"X  c #1F0608",
"o  c #17110F",
"O  c #0E1011",
"+  c #131415",
"@  c #1E1414",
"#  c #161618",
"$  c #161B1B",
"%  c #1A1C1D",
"&  c #231C0F",
"*  c #231A1B",
"=  c #2B2411",
"-  c #372D11",
";  c #1E1E21",
":  c #231E22",
">  c #1D2324",
",  c #232223",
"<  c #2E2422",
"1  c #242628",
"2  c #252B2D",
"3  c #2A2A2D",
"4  c #332424",
"5  c #3A2727",
"6  c #3D3227",
"7  c #3D332E",
"8  c #2C2C31",
"9  c #2E3437",
"0  c #333335",
"q  c #383432",
"w  c #363639",
"e  c #33393D",
"r  c #3A3A3D",
"t  c #4B2924",
"y  c #42342D",
"u  c #5F3128",
"i  c #463634",
"p  c #423A35",
"a  c #473D35",
"s  c #523E39",
"d  c #4B443F",
"f  c #53433B",
"g  c #5B493A",
"h  c #6C443B",
"j  c #3D3D41",
"k  c #433F41",
"l  c #4F4741",
"z  c #444449",
"x  c #48494D",
"c  c #534740",
"v  c #554C46",
"b  c #5A4E44",
"n  c #5C5047",
"m  c #5D5149",
"M  c #434950",
"N  c #675444",
"B  c #62554D",
"V  c #655C54",
"C  c #675E58",
"Z  c #685F59",
"A  c #69625C",
"S  c #726356",
"D  c #7C6453",
"F  c #7F6B5B",
"G  c #786B69",
"H  c #8A483E",
"J  c #826957",
"K  c #8B765A",
"L  c #A16D5E",
"P  c #AA7F5D",
"I  c #8F7463",
"U  c #927964",
"Y  c #9E7768",
"T  c #977D68",
"R  c #A67F62",
"E  c #A87F61",
"W  c #9F8266",
"Q  c #9D826B",
"!  c #968371",
"~  c #9C8575",
"^  c #A58165",
"/  c #AC8463",
"(  c #A4836B",
")  c #A6896D",
"_  c #AC8C6D",
"`  c #B48A68",
"'  c #B38D6D",
"]  c #B98F68",
"[  c #B6916E",
"{  c #BC936E",
"}  c #A48671",
"|  c #A58A73",
" . c #AC8D73",
".. c #A78E7B",
"X. c #AB8E7A",
"o. c #B28F73",
"O. c #BA8D74",
"+. c #B08F7A",
"@. c #AE9275",
"#. c #A7907D",
"$. c #AD927B",
"%. c #B49274",
"&. c #BB9574",
"*. c #BD9976",
"=. c #B4957A",
"-. c #BA967A",
";. c #B6997C",
":. c #BC9A7C",
">. c #BFA17E",
",. c #C3876A",
"<. c #C2956E",
"1. c #C6996C",
"2. c #C29673",
"3. c #C39B75",
"4. c #C99D75",
"5. c #C0977A",
"6. c #C39D7C",
"7. c #C99E7C",
"8. c #E39A78",
"9. c #C7A077",
"0. c #CBA077",
"q. c #C5A17E",
"w. c #CAA27C",
"e. c #8C8C8C",
"r. c #AF9584",
"t. c #B59781",
"y. c #B59A82",
"u. c #BC9D82",
"i. c #B69E88",
"p. c #BB9E8A",
"a. c #B7A087",
"s. c #BEA184",
"d. c #B6A18E",
"f. c #BDA28C",
"g. c #BCA492",
"h. c #BDAB9D",
"j. c gray69",
"k. c #C29E82",
"l. c #C99F81",
"z. c #C19F88",
"x. c #C5A284",
"c. c #C9A484",
"v. c #C4A887",
"b. c #CBA986",
"n. c #C4A58A",
"m. c #C9A68A",
"M. c #C6A98D",
"N. c #CBAA8C",
"B. c #D0A685",
"V. c #D1AC8B",
"C. c #D4B18F",
"Z. c #C3A691",
"A. c #C5AA93",
"S. c #CBAC92",
"D. c #C6AC99",
"F. c #C9AE99",
"G. c #D0AF93",
"H. c #CDB195",
"J. c #C6B09F",
"K. c #CCB29A",
"L. c #CFB99E",
"P. c #D3B392",
"I. c #D3B49A",
"U. c #D6B69B",
"Y. c #E0A381",
"T. c #EAB28E",
"R. c #EAB494",
"E. c #E7B89A",
"W. c #CFBBA3",
"Q. c #D7B7A2",
"!. c #D2B9A4",
"~. c #EBBFA8",
"^. c #D4C1A8",
"/. c #F3C9AC",
"(. c #F4CFB4",
"). c #F9D5BA",
"_. c #F6D6C1",
/* pixels */
";.t.-.y.-.%.&.-.-.:.:.-.:.-.-.-.t.k.u.7.u.6.-.:.-.x.u.k.t.t.y.t.t.y.t.t.t.t.=. .| o._ _  .=.;.-.-.%.=.;.-.=.@.;.%.-.-.;.;.-.-.-.",
"k.7.6.k.x.6.x.6.k.x.z.l.k.m.k.k.k.7.5.2.O.<.,.<.:.-.x.k.k.6.k.k.n.n.c.x.6.&.{ 5.k.p.x.m.x.x.q.q.x.x.x.6.q.6.&.:.6.6.6.6.3.3.3.6.",
"6.x.c.6.k.x.m.z.m.c.m.z.c.n.x.k.n.7.5.5.-.5.2.2.t.( k.x.k.k.k.x.m.N.N.N.m.c.l.6.u.z.M.N.B.b.c.c.c.c.c.q.6.x.q.w.w.7.3.q.x.x.k.6.",
"k.n.k.k.k.x.m.S.S.N.V.V.m.c.c.m.m.n.x.n.n.S.S.n.n.| -.n.k.x.N.V.b.N.S.S.I.F.S.m.k.n.M.x.c.m.w.m.c.c.c.7.q.q.c.q.x.6.6.q.m.b.b.m.",
"S.S.A.m.y.X.| p.A.A.M.A.A.A.S.N.6.&.O.u.z.Z.Z.n.n.t.u.S.n.M.V.b.c.l.m.k.k.k.x.b.M.k.k.c.V.V.m.c.6.7.l.B.7.c.c.c.m.c.m.6.6.m.m.m.",
"m.M.A.n.=.| R 2.5.-.6.k.c.c.c.7.7.c.b.x.p.n.A.M.n.z.m.M.V.B.c.B.q.7.n.M.u.2.6.k.k.-.m.m.c.w.c.c.q.c.B.m.k.l.q.c.c.m.k.7.q.c.6.x.",
"m.c.n.n.;.R O.k.n.&.7.m.N.V.V.w.4.5.c.c.k.m.n.x.k.k.x.c.c.B.B.B.c.c.N.n.n.6.q.m.k.;.m.m.c.7.B.c.c.q.7.-.k.V.V.B.V.V.G.V.V.m.m.x.",
"z.z.k.:.&._ =.Z.n.5.-.7.7.7.7.5.5.5.7.5.5.k.6.-.-.6.6.6.7.5.7.5.3.6.6.&.&.] &.2.:.:.6.6.:.7.6.&.7.6.&.:.6.c.m.c.c.l.c.m.m.n.n.k.",
"( R ( R ) } } } ..+.;.-.=.O.o.o.o.+.O.o.o.o.o.o. .o.' [ ' ' O.&.&.o.o. ._  .@.%.%.' / / / ` _ P P / / / / / / / E P P R ^ R ^ ^ ",
"p.n.n.n.n.A.n.n.n.n.m.n.z.m.x.l.z.z.m.x.x.x.l.c.m.x.x.m.B.N.c.c.c.c.c.%.%.k.x.6.k.6.6.3.3.q.6.6.6.6.7.7.7.5.6.6.k.6.k.p.p.n.Z.n.",
"f.s.x.n.n.n.n.n.n.n.n.n.m.M.n.x.m.c.l.k.6.6.6.6.q.6.x.x.q.k.k.k.k.6.:._  .6.k.k.x.6.6.k.x.6.x.n.m.x.n.m.x.n.n.S.M.n.n.D.F.D.Z.g.",
"p.n.5.5.-.o.-.y.p.k.k.k.5.5.7.k.l.S.m.S.A.N.M.M.m.M.n.M.n.N.S.M.m.u.u.n.n.n.n.n.A.A.M.n.n.n.c.6.n.x.l.7.7.6.k.7.6.7.6.6.6.6.k.k.",
"n.Z.;.7.2.O.:.k.k.x.c.z.k.k.k.n.x.S.S.n.F.S.S.Z.x.6.6.2.6.k.k.x.S.n.n.n.S.n.S.A.D.H.Z.n.n.x.N.A.M.m.N.S.S.D.A.S.A.A.A.Z.Z.n.n.n.",
"n.n.p.n.m.k.N.M.S.S.S.G.I.S.S.S.G.N.m.n.S.S.G.S.n.D.Z.n.n.S.A.M.n.n.n.x.x.M.M.A.M.x.x.m.S.A.N.S.N.Z.F.A.n.u.u.u.p.z.n.n.n.M.n.n.",
"n.n.f.f.S.S.M.m.m.m.m.m.m.m.m.c.m.c.l.k.l.k.m.l.c.n.x.x.c.x.k.k.6.l.6.k.k.x.c.x.x.c.k.x.m.x.m.m.x.k.x.m.c.z.k.l.c.k.k.k.c.M.n.S.",
"k.k.y.p.Z.S.z.m.z.m.m.m.m.m.m.m.c.m.m.l.m.z.m.k.m.m.x.x.x.m.m.m.m.c.c.x.m.c.c.c.c.x.k.x.m.c.k.k.k.k.q.c.z.-.u.u.k.u.u.z.k.k.z.u.",
"t.y.t.t.t.=.=.t.;.;.;.%.%.%.%.=.=.-.%.=.+.X.o. .o.o.=.o. . .o.%.+.%.$.=.=.o.%.o.+.%.o.o.o.o.o.o.o.o.o.%.%. . .=.+.X.+.=.=.=.=.=.",
"p.n.x.m.m.m.n.n.n.n.m.n.m.m.m.m.m.m.m.c.c.k.x.x.x.x.x.k.6.x.6.k.x.n.n.x.x.x.x.m.c.k.x.c.c.l.k.k.c.c.l.6.6.6.k.c.c.x.n.x.x.p.n.z.",
"z.Z.t.u.k.p.z.z.x.x.x.x.k.k.n.k.k.m.x.k.n.k.x.n.x.x.x.n.m.c.c.k.x.n.n.x.u.x.x.n.n.n.z.n.A.m.n.m.M.N.S.N.m.x.k.n.n.u.p.k.u.p.p.z.",
"p.f.p.t.S.S.A.A.Z.Z.D.D.Z.S.A.M.n.S.m.n.k.n.k.n.n.n.n.x.x.k.k.c.k.n.g.n.n.n.n.n.k.p.n.z.n.u.z.z.n.n.z.A.Z.D.F.F.Z.d.p.d.d.p.p.u.",
"x.m.n.u.S.I.S.n.M.M.F.Z.M.S.S.F.S.F.F.S.F.Z.Z.D.D.H.F.F.D.~ l l l B ..g.p.D.D.F.F.D.D.F.F.D.F.F.S.F.S.A.F.F.F.S.A.n.Z.f.Z.n.k.k.",
"7.l.z.k.m.m.m.l.c.c.w.c.c.c.m.m.x.x.x.n.x.p.x.x.S.N.M.f.d w x x z j 0 n r.g.D.D.D.F.F.D.A.S.S.Z.A.S.M.m.m.M.M.m.n.x.n.x.l.l.q.c.",
"m.Z.n.m.c.c.c.l.c.c.c.c.6.6.l.k.k.x.x.k.k.6.u.x.x.x.x.7 z z r r r 0 0 3 n Z.n.n.n.A.Z.m.m.m.B.c.B.m.m.m.c.c.m.m.x.m.m.m.x.m.N.m.",
"f.f.u.k.z.:.k.6.:.6.:.k.:.:.5.t.:.:.6.U k.:.:.;.:.-.F 0 3 0 0 0 , . j 1 , N t.-.;.;.k.k.l.z.l.k.m.k.l.k.k.k.k.k.k.u.u.u.k.n.x.k.",
"#.#.#.X.t.|  . .X.=.+.X.R } ..| X.r.| O c | | ....S w 0 3 w r v S p j % : y $. .+. . .+.X.+. . . . .| X...} ( r.=.$.} +. .X.r...",
"h.g.g.W.A.A.A.Z.D.F.A.-.r.p.p.p.n.p.n.F j.b n.z.} r w % q ~ D.(.F.m 0 # , 7 x.x.n.n.M.m.m.c.m.n.M.m.A.D.p.| ~ t.k. .y.Q.Z.Z.D.h.",
"g.p.Z.J.D.A.A.S.F.W.p.%.n.D.D.!.!.n.n.D.A e.b k.Y k . . ,.Y.).).(.4 > % w 1 n.M.x.k.x.5.k.z.m.m.n.n.N.s.-.n.A.p.n.-.Z.S.n.p.z.g.",
"-.u.n.6.t.-.-.-.u.6.k.m.z.k.z.M.Z.M.z.n.p.Z e.b  .r . o 8.H 8.).R.t + 0 w 1 H.F.-.S.k.u.S.k.A.u.S.k.Z.k.O.S.S.z.n.J.M.z.n.n.n.z.",
"u.k.6.k.n.z.m.z.k.k.x.x.x.x.k.M.m.m.k.k.k.k.C e.b J 1 % O.h R.).E.u   : 1 : k.k.k.k.c.k.7.k.l.k.k.c.k.z.k.m.n.S.S.z.k.k.u.-.k.k.",
"7.7.6.x.S.M.c.m.c.x.m.m.c.n.m.m.n.k.k.x.x.c.u.Z e.b D z , c./.).(.f . 3 *  .l.k.k.7.7.6.7.7.l.7.l.l.7.7.l.c.m.m.n.n.k.m.k.7.5.7.",
"6.7.7.m.S.m.V.c.c.6.%.6.c.m.c.m.M.m.k.c.c.c.m.x.A e.a x w , B X.n ; 3 #  .m.m.c.c.c.c.l.k.l.w.c.l.l.k.7.7.l.l.n.m.k.c.l.k.7.l.l.",
"o.&.%.' &.=.-.&.%.O.' %.&.%.%.%.o.O.%.o.o.o.%.&.' V e.0 0 , % . % : 1 , g &.&.&.&.5.2.5.&.&.5.5.5.2.&.&.O.2.=.-.-.-.=.O.&.2.&.=.",
"*.%.*.*.;.&.*.%.&.[ [ @.@.&.=.;.;.u.:.;.-.:.&.%.&.U r e.3 # # # % , 3 8 i :.:.:.q.>.>.*.*.*.*.*.*.*.*.&.>.*.&.-.-.:.*.:.>.&.&.&.",
"9.9.9.0.q.9.w.9.>.>.*.*.*.*.>.>.:.q.:.q.v.v.v.q.c.( ` k K =   p : y 1 : N w.w.w.b.w.0.9.9.b.q.w.w.0.0.4.0.0.b.N.c.q.w.w.w.w.3.9.",
"*.{ *.>.9.{ [ { { *.&.>.{ >.>.&.x.:.>.v.>.s.v.>.6.^ ).4 - & @ J L ~.I . W 6.3.3.9.9.w.v.v.v.q.w.b.C.9.w.3.9.v.H.N.v.x.q.q.*.*.*.",
"<.{ { [ ] ] { >.*.*.q.s.>.>.>.@.:.%.%.v.s.*.*.>.q.^ T.*   5 !._.(.,.y + 6 3.*.>.v.v.M.s.M.c.q.s.H.L.b.q.w.v.s.f.v.M.N.%.>.q.*.[ ",
">.*.q.w.>.>.*.v.>.:.>.s.>.>.>.;.>.:.>.>.v.M.>.>.>.W ,.* > p /.E.N = $ > 6 M.M.H.L.^.H.M.v.>.v.v.M.M.v.>.>.9.q.v.>.s.v.s.c.q.>.*.",
"9.>.q.q.>.w.q.s.v.q.>.s.>.>.;.>.>.>.;.:.s.s.s.:.:.:.h 3 > 2 i 5 X > > $ < v.f.H.^.^.v.s.q.>.n.L.L.H.H.v.q.q.v.w.v.q.q.w.>.q.q.*.",
"M.b.b.v.v.v.M.M.M.H.i.t.f.f.a.;.a.s.M.s.v.M.M.v.x.m.( M 2 $ > > # $ $ $ . ;.s.g.f.A.K.H.S.N.N.H.H.H.H.P.H.H.S.N.w.v.q.v.w.v.c.v.",
"%.&.;.;.%.;.;.>.;.$.$...| W Q | @.;.=.@.@.@.%._ _ _ K e 9 > $ 2 9 2 $ $ > d ) @.| s.;.%.@.%.%.%.=.%.%.%.%.%.%.=.' [ [ @.&.%.%.&.",
";.;.y.:.a.s.y.y.y.y.y.t.y.;.;.;.a.a.a.y.a.y.y.y.t.y.T > j > > # 2 % $ 2 1 * U :.t.t.;.y.;.y.y.;.;.;.y.:.y.;.y.;.$.a.s.:.;.%.;.;.",
"q.c.q.q.b.q.x.x.:.q.q.v.q.>.>.:.>.q.q.q.c.:.>.q.6.x.s n v ; $ . O O $ % f U.f c.v.q.v.n.v.v.v.x.x.c.b.v.c.q.q.| Q q.b.q.x.v.q.q.",
"q.>.q.v.q.q.q.q.v.q.c.x.x.v.c.c.v.b.v.b.w.v.c.c.q.q.N r.T G ) ) ) ) ..f S D ;.N.N.N.N.N.H.N.N.V.H.N.N.V.v.q.:.W Q a.>.:.6.x.q.x.",
"v.c.c.b.b.b.N.N.C.C.S.b.M.N.N.M.V.b.b.b.S.S.N.b.v.m.6._ ) %.x.x.b.v.s.M.M.M.M.N.M.M.M.N.M.N.N.H.S.N.N.:.:.b.v.n.s.>.q.N.c.6.*.2.",
"v.x.v.b.v.b.H.C.6.x.H.H.M.N.S.N.H.V.V.S.P.b.v.c.q.q.q.9.w.v.s.) a.f.@.s.v.M.x.M.M.M.x.n.s.n.M.N.V.H.v.' :.x.M.s.s.c.b.N.v.v.s.x.",
"x.>.x.x.v.w.q.:.=.n.n.c.w.v.s.q.q.v.v.v.b.b.v.q.q.:.q.q.q.q.:.K ~ >.>.>.%.s.v.v.v.M.M.M.v.v.c.v.v.q.v.b.v.q.v.>.v.v.M.n.x.n.v.s.",
"x.x.b.c.b.w.w.N.N.m.v.b.v.q.q.c.q.q.q.c.c.c.c.q.q.6.*.9.9.q.v.>.>.:.*.:.:.q.c.v.c.v.m.c.q.c.q.w.w.q.w.q.q.q.w.:.9.c.v.b.c.v.c.c.",
"*.&.*.:.3.*.3.:.:.:.:.;.:.:.%.:.&.%.&.-.-.:.:.%.-.%.&.{ &.*.%.@.@.[ [ ' [ &.%.*.&.*.*.*.&.%.&.%.*.{ %.&.*.*.%.-.&.%.*.>.%.*.:.&.",
"-.-.:.q.b.c.6.*.2.:.:.:.x.x.p.;.%.%.u.u.u.u.u.;.;.y.:.u.*.&.:.%.%.&.=.' ] *.*.:.:.&.&.%.&.-.&.' &.*.%.:.:.%.-.&.%.:.u.q.:.6.:.;.",
"c.w.w.w.0.0.w.w.w.w.w.w.q.6.w.6.w.*.:.3.*.q.3.*.*.6.:.2.3.3.9.3.9.*.a.x.:.3.w.3.4.3.3.9.w.7.7.4.w.q.w.w.w.c.c.m.c.w.w.w.c.q.q.c.",
"w.w.w.w.0.0.4.7.w.7.7.w.6.6.6.3.q.3.2.*.*.6.*.*.:.6.>.q.w.q.q.q.:.:.a.v.*.*.3.c.w.:.:.q.c.c.x.q.c.n.S.b.c.7.q.c.q.w.w.6.7.w.w.7.",
"w.B.w.7.7.7.w.4.7.6.2.q.2.6.c.q.*.x.q.x.6.:.c.>.x.q.[ ] &.*.&._ ! $.s.n.c.6.:.>.v.v.x.n.c.v.M.b.v.H.b.w.6.q.N.b.c.q.7.w.q.w.q.w.",
"M.7.V.P.C.V.q.<.2.2.5.-.:.k.m.m.q.m.m.x.6.x.m.x.x.x.x.6.x.x.q.%.@.&.v.x.c.c.c.x.N.b.x.x.v.x.q.b.b.N.N.N.N.b.M.N.S.:.n.M.N.n.p.6.",
"f.O.b.C.V.C.b.b.c.m.N.n.N.N.V.c.c.v.x.u.q.m.b.b.x.n.x.x.n.x.x.q.q.q.v.x.q.v.M.b.N.b.n.v.c.n.q.q.q.m.x.x.x.m.m.x.m.k.x.N.N.N.n.n.",
"A.$.n.V.N.N.b.N.V.c.N.N.N.b.m.x.n.x.n.x.c.c.m.m.b.b.N.M.b.n.x.n.n.N.N.N.S.S.S.N.H.N.S.N.b.N.b.N.N.b.n.n.M.b.n.M.M.N.N.N.N.V.N.S.",
"n.:.:.%.*.&.-.;.:.-.%.%.;.-.%.-.=.=.;.%.%.%.%.%.;.;.-.-.;.;.%.%.;.;.;.:.:.s.%.@.%.a.;.:.p.;.y.;.&.%.%.:.-.:.:.:.:.k.6.6.:.-.u.u.",
"7.6.7.1.4.4.2.4.w.6.2.,.2.3.*.3.&.2.6.3.2.{ &.%.[ :.*.*.>.*.{ &.*.*.3.*.*.:.*.*.&.:.%.*.:.:.6.*.{ 3.5.6.w.w.w.4.4.w.w.4.1.w.B.w.",
"7.4.4.2.<.2.2.5.6.<.5.5.6.4.2.2.2.2.2.1.2.&.&.} T %.2.2.4.9.3.4.3.3.w.w.0.0.w.9.3.{ 3.<.<.9.3.3.3.3.3.2.3.3.6.w.c.w.c.7.0.0.7.4.",
"k.c.z.-.k.k.k.k.6.6.k.l.k.l.7.6.7.k.k.7.;.u.:.;.:.6.x.6.6.6.q.q.q.7.6.w.w.x.n.%.:.6.6.x.6.&.2.6.6.6.x.:.k.5.5.k.x.6.5.<.7.k.m.x.",
"Z.u.D.O.n.-.z.O.-.n.M.-.5.k.-.c.G.S.u.O.b.%.6.m.m.:.-.S.k.x.N.x.q.V.b.m.c.b.M.M.S.b.N.N.N.m.n.b.N.Z.f.p.n.N.x.x.m.x.n.O.z.I.n.&.",
"n.p.p.p.S.+.z.t.O.5.k.k.-.z.G.V.G.m.V.z.k.n.l.k.6.m.M.m.&.k.N.m.6.N.U.U.m.x.H.H.m.b.:.b.:.x.S.S.n.-.n.u.S.M.x.n.n.n.n.n.z.k.M.n.",
"n.n.f.n.S.G.m.V.z.k.k.z.k.l.m.l.m.m.z.m.k.x.l.c.B.c.l.7.c.m.:.6.x.c.q.q.x.c.b.c.x.v.:.N.*.*.N.S.6.&.:.;.A.n.-.s.m.b.b.c.c.k.k.k.",
"N.n.M.M.G.z.m.S.z.l.l.m.G.z.V.m.m.V.m.m.c.m.b.V.b.V.G.V.N.b.w.b.c.w.9.b.b.S.n.x.N.N.b.C.N.b.c.v.N.M.b.Z.M.m.N.N.N.N.N.V.V.N.S.N.",
";.=.+.%.o.o.-.u.5.k.5.t.u.-.k.z.-.5.&.&.&.5.&.2.%.6.3.5.2.*.[ :.*.{ ` [ *.%.;.%.%.%.:.;.%.%._ [ @.@.%.-.o.[ &.&.%.] ` %.*.-.%.-."
};
