/* XPM */
static char *result[] = {
/* columns rows colors chars-per-pixel */
"64 64 37 1 ",
"  c #6B6B6C",
". c #6F6E70",
"X c #706F72",
"o c #6F7172",
"O c #737275",
"+ c #767479",
"@ c #79767C",
"# c #75797C",
"$ c #7B787E",
"% c #7D7B81",
"& c #827D85",
"* c #847F88",
"= c #7C8286",
"- c #7E8589",
"; c #818087",
": c #85838B",
"> c #88868F",
", c #81898E",
"< c #878790",
"1 c #888790",
"2 c #858B92",
"3 c #8A8B94",
"4 c #8C8F98",
"5 c #879298",
"6 c #8D929B",
"7 c #8D989F",
"8 c #90969F",
"9 c #8F97A0",
"0 c #8D9AA2",
"q c #9097A1",
"w c #929BA5",
"e c #949FA8",
"r c #96A3AC",
"t c #97A7B0",
"y c #98A7B1",
"u c #97A8B1",
"i c #9BACB6",
/* pixels */
"iiiiii#    @wiii8@    O$.1iy&&   &yiii1X    +qiiiq$    .$.1iiy* ",
" ::::X%wtt3O%*::@O&@X%1r$O::&& && ::::X%eyt3+@:*:$X&@X&>e%X1ii& ",
"&     &::>*X    +48@X4yie$.&&.&iy&.    %:::*O    O4q$O3iiw%X:: &",
"*       . . +%&++:%O1yiiie$..&yii&     .X X  +&%++*&O2yiiiw%..&r",
"r&  $$%&%X+%6r4+ . O6iiir>% &yiiir&. @%%&%X#$6r6+ . X4iiir>& &ri",
"i: @wrrr1X$qyi2+$$&+$qr1:...:iiiii: +8err1O@6ui2O&$&+$6r3:XX :ii",
"ie&O1yiie:O;ri,+4rr3@$:OO$$@+4iiiir%O1yiir>O;ri,+4ee4@@>OO$$$O6i",
"ii: X1yiq%#+;4%;riiy3#O$&we8@O6iiii:.X1yiq$+#;6$=riiy4@O$%weq@O4",
"64#@@O26%+3;#+.%eiiiy2X1riii8+X8866+##+16$@3:+O %eiiit2X>eiii9@O",
"O++6q%+O#3yr;X .;er88;#eiiiiy+ OOO++6q%+O@3re:O .;er66>+wiiiiiO ",
"+ &yiwoO3yii4O  +1>#+O#wiiiy4 ++++ &riw#O3tii4O  O1>#OX#wiiii6 +",
"* 4iii#2yiii4.  O&OOO+O%qq86+ :88&.3iii#,uiii8O  +&+O+O+%qwq6+ *",
"+ qqiwO3iiii6XX%=O=661$ $@@+  #q8$ 88ywO3uiii8O.#=#%844% @@@+  @",
"X+$$0%.#6www,+;e5#wiiy>X OX OOO#@OO@#8& +6wew:#;e2#wiir1X XX XXX",
"36%%$  .#@$$+;ei2=yiiy6@#3& 333 O34==$  .#$$$O;ei2%tiiy8$@3& 444",
"iiii-  >@X .&rii3+1yy8@#6r>Oii7O1iiii- O:#.  ;eii6O2ry8+#6y>oii0",
"iiiirO%r8*X+8yiy4+X16@+6iirOru 1iiiiirO&e8*++4yiu6OX28@#4iir.ry ",
"ittr>.%ri4X @8r4+ .O++6iiiq :u riiyyy> $ei4X +8r6# .O@O4iiiw :u ",
"u&%&& $wy1O +&$$+@:& %yiiw$ :r &yy&%&&X$wy4X +%%&#@>% $yiie$ ;r ",
"&      $&&O     +8iw#O1ie%   &  &&      $*&X     O6iw$X>ie&   % ",
"  &:::&X  %*O   O8i8# .&&%   .&:   &**:*X  &*+   X4iw$ .&&%    :",
"& &yii1X$eii4X   O:$      && :ii*& &yii1X$wii6O   +&@     .&& :i",
"i&.riii#$*::&O#&O  O*&&@.>r& :iiii* riii#&**:*O#&+  X&&&$.>y& &i",
"i: yii1O .    26+O&3yyw$@yir%.:iii: rii4X      ,6+X&4yye$+yir& >",
"i& :>>&.  @%&O$:+O4yiii7.3y>&  >ii: :>:*X  +&&O$:@O4iiii6O3y>&  ",
"1O$O OX$  $8y3+  +8iiiir$O:..  .11X$X.XX@. #6r1#  O6iiiir#O: .  ",
"O$ew; @0:.$wiy-=;O8iiiir% O$@   X $ww& @q>X$wit-=:O6iiiir$ O$$  ",
" &33: 6ir:+6iq#2r:%33331$ &rw@@   &44: 6yr:+6iw%-r:&3414>& &ew$@",
"  OOO@r63>X;4& %4= O.OOOO&riiwe@  OOOO@r84:O=4%.=3% XXOXOO&eiiee",
"$@$$@O1$OO XO+@#O. .@$O.&ry8iii& @@#@@O>$OO XO@$#Oo X$$+ %ei6iii",
"qqwqq%+@#@#.O2q>+. O16$X:8i888y& %qwwq%O#+@@ O1q,#O O14%X:qyq66i",
"iiiii> %4>@+<rir8>OO4w$.>8ii8&8+,6iiii1o$4>@@1rir6>OX4e%X:wii8*q",
"iiiii> $6>O@wiiiiq$O14$X:eiiy&+O8iiiii1O$4>X$qiiiiw@X14%X:wiii&+",
"wiiii>O+@@ @wiiiy1XX@+++$:eyq& @@qiiii1oO#@.@qiiiy1OX#@+O$:wiq& ",
"@wwww%O%=-@@4www1@XX O%2+$:q*& OO@8www;O==-$@3www2#O. O%1O$:q*& ",
"O@$$$ &8ww1OX$$$#%1$O:qy1X%*&@O44O$@$$ %8ww1OO@$$@%1@O>qy1O$*&$X",
"&     O$$$$X XX.O44+%qiiy1X&@O4ii:     +$$$%O .O O44+@6iiy:X$$X3",
"4X  XXXXO  X&4:+O%+X4iiiyw& O4iii1O   X...  O&1>+O%OX4iiiiw& X3i",
"i*  :111*O$:wi6O...+1yyrq&+ :iiiii:  :>>>:O$:wi6+XXXO1yiyw$$.*ii",
"i>.$riii4O$qii,#*>:%X4q&$ .X:yiiii>O&eiii6+#6ii,+*:1&O<w&$..X*ii",
"ii: &eiii<O@9y-@qiie%X$ O::*X*yiiii> &eiii1+@8y,@8iie&O$ X1>*.&y",
"ii&. $ei1X%O@&O,iiiie$X*4iii& &iiiy:  $ry1O$O#&+,iiiye$X*1iiy*.&",
"&& &&.&&.%e6O  +8iiii7X4iiiii& &:&& && &&O$w6O  +6iiii8X3iiiiy& ",
"  &yi>X %wii4O  @8w**$%iiiiir      &yi1  $wii3O  +8w::%#iiiiiy  ",
"& &uii+$eiii4O  O:$   O4iiiy* &&&& &yii#$wiii6O  O&$   X3iiiy: &",
"& riii#7iiii4o  @@O&&%@O::1:  *ty& eiii#7iiii6+  O$O&&&@+>>::  &",
"  :>y4.;riii6OO3,O3yyq$  X.   .<1  :1y4O%riii6+O3,+1yrq$  ..   .",
"&$O.>O  :131@@6y2-yiiyq+.%@ $%%.X&%XX:O .;133%#3i2-yiii8@.$@ &$$",
"er00#  @OXXX+6yi2#wiir:O;9%oere $erq7#  +OXXX#3yi5#6iir:+;q&.rrr",
"iiii0.O6;$X+3yii6+%0e,+;ri9Oiy%$eiiii0O+6:$.O3yii7#%8r,O;ri7oii#",
"iiii8X&re1O :rie;..%>+;riir.6i wiiiii6O$rr>OX;rir;  %>+;riir 6y ",
"i866*.%ri4O @161+.@+.#eiit2 :y 6ii866:.$ri4O @161+O$+.#riiy3 ;i ",
"8+O+O X38:X OOO++;q3X#wiu4X @4 +68+OOO O18:O XOOO+:81O#qiy3O #6 ",
"+ +++++++++#.   #6iw@.&q4%   @++@# O++@+++++@    +8ie$ %84&   O+",
"O &488*XX%46%.  X:w1O .+#@+X @66+O &666:OO=36=.  .:81O  #@@OO +8",
"4++yii8O%6ww3O ..X@+OOOX @4% :ii44+@yii7O$6qw3O.O .#++OOO @4& &i",
"i* tiie##$$$$X&>+.X%441%O6i3O%wiii: riir#O@@@$O$>@ O$641$O6y3O$w",
"i: 0rw>.  XXX ,4+O:wiir,#eiq% %wii: qee>.  .OX :4@O>wiiy:Oriw& $",
"r&O@$$%O  $:1%+$O+6iiiiwX*w%%  %re&O$%$%O  @>1&@$OO4iiiiwO;w$$  ",
"%.1#. .:O @wiq@Xo+6iiiiy%.@.    &%X:$X  ;@ #wiq#oOO8iiiir$.$.   ",
" &rr: *r4#@wiy-26#3ryryq% X1:..   &er> *r6+@qiy,,6#1yryrw% O>:  ",
" $&&&.eyt3O3y6O2y2O&&&&&@X3iy:*   &&&&O0yy3O5y6O,y2O&&&&&$X4ii>>",
"     &r1&& @&# #&X      X3iiiii&      %e1:& @&O O%#      .1iiiii",
"*&*&* %      @&O   X*&$X3iy:iii& %&**&.%      @&+   O*&$.1iy>iii"
};
