/* XPM */
static char *_dc09de239fc4661e4a6669b2223c1d0NDPWgdrZLSNRsIYa[] = {
/* columns rows colors chars-per-pixel */
"64 64 201 2 ",
"   c #0A0707",
".  c #1E0505",
"X  c #18130D",
"o  c #240F10",
"O  c #3E2514",
"+  c #3D2518",
"@  c #3E2B25",
"#  c #38302B",
"$  c #383434",
"%  c #491F1E",
"&  c #4B2810",
"*  c #44291E",
"=  c #4C301F",
"-  c #573119",
";  c #5E341D",
":  c #63381E",
">  c #432C23",
",  c #542B2C",
"<  c #4A352B",
"1  c #563429",
"2  c #433531",
"3  c #493B34",
"4  c #553933",
"5  c #643F2B",
"6  c #613933",
"7  c #5F4534",
"8  c #69422A",
"9  c #625228",
"0  c #6B493D",
"q  c #594D44",
"w  c #5B5552",
"e  c #644A41",
"r  c #6E4C40",
"t  c #774C44",
"y  c #6E564E",
"u  c #765447",
"i  c #755549",
"p  c #7D5C4D",
"a  c #615B58",
"s  c #765D55",
"d  c #755F57",
"f  c #7B644F",
"g  c #776357",
"h  c #75625C",
"j  c #7E6B5E",
"k  c #5D6A74",
"l  c #6C6763",
"z  c gray43",
"x  c #716C62",
"c  c #767473",
"v  c #8B5748",
"b  c #94624F",
"n  c #8E6252",
"m  c #866D57",
"M  c #836858",
"N  c #9D6C57",
"B  c #956758",
"V  c #8B725C",
"C  c #987B5F",
"Z  c #A86954",
"A  c #A1715C",
"S  c #AB7D5E",
"D  c #B5745C",
"F  c #826B61",
"G  c #857165",
"H  c #8F7964",
"J  c #957B65",
"K  c #997B67",
"L  c #A17362",
"P  c #A57D63",
"I  c #A87F61",
"U  c #BD7B60",
"Y  c #C07B68",
"T  c #AB825E",
"R  c #9C836C",
"E  c #968371",
"W  c #9B8374",
"Q  c #A58265",
"!  c #AC8463",
"~  c #A4836B",
"^  c #AD8C6D",
"/  c #B68A67",
"(  c #B38D6C",
")  c #B6916E",
"_  c #BC936E",
"`  c #A38671",
"'  c #A48B74",
"]  c #AC8D74",
"[  c #A48778",
"{  c #A68D7A",
"}  c #AB8E79",
"|  c #B28F73",
" . c #B88C78",
".. c #AE9275",
"X. c #A7907D",
"o. c #AD927B",
"O. c #B49274",
"+. c #BB9574",
"@. c #BD9976",
"#. c #B4957A",
"$. c #BA967A",
"%. c #B6997C",
"&. c #BC9A7C",
"*. c #BFA17E",
"=. c #C88165",
"-. c #C58568",
";. c #CB866C",
":. c #C2956E",
">. c #C6996C",
",. c #C29673",
"<. c #CD9273",
"1. c #C39B75",
"2. c #C99D75",
"3. c #C0977A",
"4. c #C39D7C",
"5. c #C99E7C",
"6. c #D99978",
"7. c #C7A077",
"8. c #CBA077",
"9. c #C5A17E",
"0. c #CAA27C",
"q. c #E1A079",
"w. c #637C8C",
"e. c #8D8D8D",
"r. c #8F9795",
"t. c #939393",
"y. c #B98C84",
"u. c #B59782",
"i. c #BE9286",
"p. c #B69A82",
"a. c #BC9D82",
"s. c #B79F8B",
"d. c #BB9E8A",
"f. c #BEA184",
"g. c #B7A18B",
"h. c #BDA28C",
"j. c #BDA492",
"k. c #BDAB9D",
"l. c #97AFB7",
"z. c #C29E82",
"x. c #CA9E82",
"c. c #C19F88",
"v. c #C5A284",
"b. c #C8A386",
"n. c #C9A484",
"m. c #CAA585",
"M. c #C4A887",
"N. c #CBA986",
"B. c #C1A289",
"V. c #C4A58A",
"C. c #C6A68A",
"Z. c #C9A68A",
"A. c #C6A98D",
"S. c #CAA98A",
"D. c #CBAA8C",
"F. c #CAA98E",
"G. c #CEAA8E",
"H. c #D0A685",
"J. c #D1AC8B",
"K. c #D4B18F",
"L. c #C3A691",
"P. c #C5AA93",
"I. c #CBAC92",
"U. c #C5AC99",
"Y. c #C9AE99",
"T. c #D0AE94",
"R. c #CDB195",
"E. c #C6B09F",
"W. c #CCB29A",
"Q. c #CFB99E",
"!. c #D3B392",
"~. c #D3B49A",
"^. c #D7B499",
"/. c #E6AA84",
"(. c #E5AC8A",
"). c #E8B28F",
"_. c #E0AB91",
"`. c #EAB593",
"'. c #E4B59E",
"]. c #EBBA9C",
"[. c #CAB7A5",
"{. c #D6B8A4",
"}. c #EBBDA2",
"|. c #D4C1A8",
" X c #DDC8B7",
".X c #ECC1A9",
"XX c #F1C4A4",
"oX c #F1C7AD",
"OX c #F5CBAE",
"+X c #ECCCB7",
"@X c #F4CEB3",
"#X c #F1CDB9",
"$X c #F5D0B7",
"%X c #F8D3B7",
"&X c #F7D4BB",
"*X c #F9D5BB",
"=X c #F7DAC7",
"-X c #F9D9C1",
";X c #F9DDCB",
":X c #F9E3D4",
">X c #FAECE7",
/* pixels */
"%.%.%.p.$.+.+.+.&.&.%.$.&.%.$.$.%.a.z.4.z.4.@.&.%.z.z.z.a.p.p.u.u.p.u.u.u.u.O...' ..^ ] ] O.%.%.#.O.%.%.#.#.O.#.#.#.#.%.%.$.%.$.",
"4.4.4.4.v.4.v.4.v.v.v.z.v.b.z.4.z.4.1.,.+._ :.:.&.&.v.z.3.3.z.z.v.v.b.v.4.,._ @.v.a.b.b.v.v.v.9.v.n.v.z.z.4.+.1.4.4.4.1.2.2.1.1.",
"4.n.n.4.v.v.n.b.b.b.Z.Z.b.b.v.b.V.4.3.3.$.$.3.,.%.~ c.b.z.&.4.v.V.F.F.Z.n.b.n.1.$.B.Z.S.J.N.n.n.n.n.n.n.v.9.9.0.n.4.4.4.9.v.9.4.",
"c.B.c.&.v.v.Z.I.I.I.G.J.S.n.n.n.Z.V.v.V.V.F.I.Z.V.] $.b.c.v.S.T.S.F.I.I.~.W.Y.Z.B.V.F.b.n.n.n.n.b.v.n.4.9.9.9.n.0.4.4.v.v.S.S.v.",
"F.I.I.V.p.} ' d.L.P.V.P.P.Y.Y.F.&.+.+.a.B.V.L.h.h.u.a.F.V.F.G.S.n.9.v.v.v.z.b.Z.V.a.z.v.G.J.N.v.z.4.n.N.v.n.n.n.N.Z.n.4.9.Z.Z.Z.",
"Z.F.P.V.o.' I ,.1.$.4.v.v.n.n.9.4.n.S.b.v.V.V.A.v.v.F.S.G.S.n.N.0.5.Z.F.a.1.4.4.z.$.Z.G.n.0.n.n.9.N.n.n.z.b.9.v.b.n.v.4.9.n.v.v.",
"Z.V.V.V.%.~ _ v.V.@.1.S.J.J.J.0.1.4.n.v.z.V.b.b.z.z.b.b.n.n.H.N.0.N.F.Z.v.4.9.n.z.%.S.N.n.0.n.n.n.0.5.$.4.J.J.J.J.J.K.S.G.G.b.b.",
"c.c.b.&.+.^ O.L.V.&.&.4.4.4.4.1.1.1.1.3.3.z.3.&.&.1.4.1.4.1.5.2.1.1.1.$.+.( +.&.&.&.&.&.3.4.&.&.3.1.+.%.4.n.n.n.v.v.n.n.Z.V.V.c.",
"Q Q Q ~ ~ ] ` ` ] } #.$.$.O.| | | | O.| | O.O.| ] ^ | O.( ( +.+.O.O.] ] ^ ] O.O.O.( ! T ! ( ^ S T ! ! ! ! ! ! ! Q I I I Q Q ~ ~ ",
"B.V.V.V.V.V.V.B.V.V.A.Z.V.V.b.v.b.b.b.b.v.b.b.b.n.b.v.n.N.S.N.n.n.n.v.#.O.9.v.v.z.4.1.1.1.0.4.4.4.4.4.5.4.1.4.9.4.z.v.a.a.B.V.B.",
"f.f.v.B.B.V.V.V.V.B.V.V.V.Z.V.b.V.b.v.v.4.4.1.4.v.z.v.v.9.4.z.z.z.3.&.^ | 3.4.4.z.4.z.v.v.z.v.V.Z.b.V.Z.V.V.V.I.A.V.V.P.Y.P.U.h.",
"B.V.$.1.@.O.#.a.f.a.v.z.1.1.4.z.b.I.F.I.I.I.A.V.Z.V.V.V.V.A.F.Z.V.a.a.B.V.V.A.A.I.P.A.V.V.V.v.z.V.v.5.5.4.1.3.4.4.4.4.4.4.4.v.z.",
"V.h.%.2.:.O.a.a.v.v.v.z.z.z.v.b.v.F.I.V.I.Y.P.Z.b.4.4.1.4.z.z.b.F.V.V.A.I.V.P.U.U.Y.P.V.V.b.F.I.A.n.G.I.W.P.U.P.P.P.V.V.L.V.B.B.",
"V.V.h.f.V.v.Z.V.I.I.I.I.~.Y.I.I.I.G.Z.V.F.I.I.I.V.P.P.V.V.I.P.A.V.V.M.v.v.V.A.I.V.V.b.V.I.P.F.I.A.P.P.P.V.a.a.a.v.B.B.V.V.V.V.V.",
"V.V.h.h.Y.I.F.V.Z.Z.Z.S.Z.Z.b.b.Z.b.v.b.b.b.b.b.b.v.b.b.b.b.v.4.4.v.4.4.z.v.b.v.b.b.v.v.V.b.Z.n.b.b.b.v.b.z.z.b.b.b.v.v.v.Z.Z.F.",
"z.a.a.f.L.L.V.V.V.Z.Z.Z.Z.F.V.n.Z.n.b.b.b.b.b.b.V.b.b.b.v.V.Z.n.b.b.b.b.b.n.n.n.b.b.z.v.V.Z.z.v.v.z.v.v.v.&.&.a.z.a.a.c.v.b.c.z.",
"%.a.u.a.u.#.#.%.%.%.%.#.O.O.+.#.O.#.#.#.| ] ] ] ] O.O.O.] ] | O...O.#.O.O.O.O.| O.O.O.O.O.O.] ] | | ] O.O.] ] O.O.O.o.O.#.O.%.#.",
"B.B.v.v.V.V.V.V.V.V.Z.Z.Z.n.Z.Z.Z.Z.n.n.b.v.v.b.v.b.b.4.9.4.4.z.v.V.V.v.V.v.b.n.b.v.b.v.b.n.v.4.n.n.n.0.4.4.v.b.V.v.V.b.v.v.B.B.",
"f.h.p.a.v.v.B.B.v.v.b.v.a.v.b.v.v.V.b.v.b.v.v.v.b.b.v.v.v.v.n.z.v.V.V.v.z.v.v.V.V.B.B.V.V.Z.Z.Z.Z.F.F.G.v.v.b.v.v.a.a.z.a.a.a.c.",
"d.h.f.u.P.P.L.P.L.L.U.P.L.P.I.F.V.I.V.b.v.B.V.V.B.V.V.V.b.a.O.O.O.O.p.V.V.V.V.V.B.a.v.B.V.c.v.B.B.V.B.L.P.U.Y.Y.L.h.d.j.g.d.d.a.",
"v.n.v.a.I.T.I.V.A.A.Y.I.V.I.R.Y.I.Y.Y.Y.P.L.P.P.Y.Y.Y.Y.W i n [ ` B t j s.U.U.W.P.P.Y.Y.Y.P.Y.Y.Y.W.P.P.Y.W.W.Y.L.V.L.h.V.V.v.z.",
"0.n.V.b.Z.S.n.n.n.n.n.n.n.n.b.b.v.b.v.v.b.f.v.B.F.F.A.[ v }.*X*X*X@X`.Z d j.U.U.U.Y.Y.Y.P.P.Y.I.I.I.V.V.Z.Z.F.V.V.v.b.v.n.v.v.v.",
"V.P.V.b.b.n.n.n.n.n.n.n.4.4.v.b.z.v.b.v.z.z.4.v.b.b.v.u ^.;X>X-X*X*X*X/.t u.V.V.B.P.I.V.Z.Z.n.n.S.G.S.Z.n.Z.S.Z.Z.Z.Z.V.v.n.S.G.",
"h.h.a.c.z.4.4.&.&.&.a.z.&.&.&.%.&.&.a.a.&.&.&.&.&.%.%.i OX-X;X*X*X*X*XXXN R %.%.%.%.a.z.z.b.z.z.b.z.z.z.z.z.z.v.z.a.a.a.c.v.v.a.",
"{ X.{ } #.] ] } o.o.o.} ` ` { { } X.{ { { ] ] { { { } i OX*X*X*X*X*X*XXXA J } ] ] ] ] o.o.} } ] ] ] ] } } ~ ~ o.#.o.` o.] X.X.{ ",
"k.j.U.E.U.P.P.V.P.W.I.$.#.d.d.d.h.h.B.a.a.v.B.c.a.a.R v `.*X*X*X*X*X*X`.D M v.v.V.V.V.Z.Z.Z.V.V.V.V.P.P.f.} W u.c.] a.W.V.j.U.k.",
"j.h.P.W.P.L.P.P.W.W.f.O.V.P.Y.{.{.V.B.W.W.Y.V.z.&.F.K z.6.x.i.@X%XT. .6.).g V.Z.b.v.v.&.z.b.V.V.V.V.V.f.%.v.V.h.B.$.V.Y.V.V.V.h.",
"%.a.b.&.%.$.%.&.z.4.z.V.v.v.c.V.Z.Z.V.V.B.V.c.z.z.&.} W <.r.w.+X@Xl.k x.u.W W.R.&.Y.z.a.I.z.I.a.I.z.A.v.$.I.R.V.V.W.Z.c.V.V.v.v.",
"a.a.&.v.B.B.V.c.z.z.c.v.v.V.b.Z.V.V.b.z.z.z.z.z.v.4.1.| 0 ^.[.*X*X XU.A 4 M 3.z.z.v.v.v.4.4.z.z.b.b.z.z.b.Z.V.F.I.v.z.z.&.$.3.z.",
"4.4.4.b.I.Z.n.n.n.n.Z.n.n.Z.Z.V.V.V.b.b.b.b.c.b.b.z.K i v Y _..X.X].;.6.#Xy.M z.z.z.4.4.4.4.x.5.5.x.4.4.n.b.b.V.Z.Z.b.b.z.4.4.4.",
"4.4.4.n.G.G.S.n.n.4.o.4.n.n.n.V.V.V.b.b.v.n.Z.G.S.~ n +X}.].;.=.=.Y (.%X=X@Xu $.b.n.n.x.n.n.n.n.x.n.0.4.4.5.v.V.V.b.b.b.z.4.4.n.",
"+.+.+.O.+.$.$.+.O.O.( +.+.O.O.O.O.O.O.| ) ) O.+.+.r {.:X*X*XXXXXXXXX%X%X6.;.b C @.@.,.@.+.+.@.,.@.,.@.+.+.+.+.#.&.$.+.+.+.@.+.+.",
"@.@.@.&.@.+.@.$.+.O.) O.O.+.#.%.%.&.a.%.%.&.+.+.+.u (.(.].*X*X*X*X*X*X).v D U e 4.4.@.@.@.@.+.@.@.@.@.+.4.@.+.+.&.&.@.1.@.&.+.@.",
"1.4.4.0.n.4.4.4.4.4.@.@.1.@.4.4.4.4.4.v.v.v.v.n.n.p /.Z -.#X;X*X*X;XoX=., U q.< ^ N.0.0.0.n.0.0.0.0.0.8.8.0.N.F.v.9.0.0.0.9.1.1.",
",.,.,.4.9._ _ +.@.@.+.@.+.&.&.@.v.@.@.v.f.f.M.4.4.G &Xt 6 -.XX:X:X&XS * o v 6.% 7 9.v.n.v.v.9.9.N.R.0.4.1.9.M.Y.F.n.v.v.4.@.1.+.",
"_ +._ ) / / +.@.@.@.9.v.&.f.f.O.&.&.%.f.f.&.@.4.9.F ;XL 1 0 d h h d > X . L N f &.V.S.f.A.v.4.M.W.Q.N.9.9.v.v.A.M.I.F.+.v.9.+.O.",
"@.4.9.9.9.@.@.M.f.@.v.v.f.&.&.%.&.%.&.f.f.A.&.*.9.p @X'.1 8 : & = 2 x 9   3 ` I.Q.|.R.A.V.9.v.A.V.V.v.9.4.9.v.v.9.v.v.v.v.9.&.@.",
"4.4.9.9.4.9.v.v.v.v.a.a.&.&.*.*.*.&.%.&.f.f.f.@.@.0 '.Y 4 - O # z e.w X   { A.I.|.[.A.v.v.9.M.Q.Q.W.P.A.v.v.v.v.v.9.v.v.9.9.4.1.",
"Z.S.N.N.v.S.F.F.I.P.s.p.h.A.a.%.f.V.V.M.M.A.P.M.v.#.p y < 2 z t.a * ; : + R g.A.h.U.W.I.I.F.F.R.R.R.G.R.I.R.I.S.v.v.9.v.v.v.v.n.",
"+.%.%.#.+.#.%.%.%.#.o.X.` R R ' ..%.O...O.O.O.^ ^ Q f $ z t.a + ; ; 8 5 > H ` ' ] g.%.O.O.O.O.O.O.O.O.+.O.#.+.O.] ( O.O.O.O.+.+.",
"%.%.a.a.f.a.a.a.p.p.p.p.p.p.%.a.a.g.a.p.p.p.u.X.j q z t.c h 2 @ > 6 P N e #.%.&.p.p.%.p.p.p.p.a.%.p.a.&.a.a.a.o.#.a.f.%.%.&.%.#.",
"v.9.9.v.n.v.v.4.&.@.9.v.9.&.@.&.9.9.9.v.v.4.4.g c t.l q h g G %.G / $XoXv ] v.v.v.v.v.b.v.v.v.v.v.v.n.n.v.9.4.' R v.b.v.v.v.9.9.",
"9.9.v.v.v.9.9.9.v.v.v.v.v.v.v.v.N.N.n.n.n.v.n.+.m m &.n.n.4.9.9.J L  . .n ..Z.S.F.F.F.G.G.G.F.G.R.F.G.F.N.v.@.~ R a.4.1.4.9.v.v.",
"v.v.v.F.S.v.S.G.!.!.G.F.F.S.F.S.F.S.S.S.G.G.S.S.n.n.n.0.4.9.v.v.N.J V H ' V.A.F.A.F.V.F.F.F.I.I.G.F.F.%.&.n.S.V.M.&.9.F.v.1.@.4.",
"M.v.v.v.n.N.!.T.9.n.R.I.F.F.F.G.R.I.G.I.R.G.n.v.v.9.9.4.9.v.v.^ a.h.+.v.V.V.V.F.A.V.V.M.v.M.F.F.F.F.v.O.&.v.P.a.f.v.S.F.v.v.v.v.",
"v.v.b.v.v.9.9.%.O.v.v.v.v.v.v.v.v.v.v.n.N.n.v.9.9.4.4.9.9.9.@.V ` p.&.&.#.f.M.v.V.V.F.V.V.V.v.v.v.v.n.N.v.v.v.a.v.v.S.v.v.V.V.M.",
"n.b.n.n.n.n.N.S.F.V.Z.Z.v.v.9.9.9.9.9.n.n.n.v.9.4.4.1.1.9.9.v.p.%.%.&.&.&.4.v.v.v.n.n.v.v.v.9.0.0.9.9.v.v.9.9.4.9.n.N.Z.v.n.v.v.",
"@.@.&.&.1.1.@.&.&.&.&.%.&.&.&.&.+.+.+.&.&.%.&.&.$.+.+.+.+.+.+...O.O.) ( O.+.+.@.&.@.&.&.+.+.+.+.+.+.+.+.+.+.+.$.$.+.&.&.@.&.&.@.",
"%.%.&.4.Z.n.1.1.1.&.&.a.v.v.f.%.O.#.a.a.a.a.a.%.%.a.a.a.+.+.&.+.) #.#.( ( @.+.&.&.+.+.+.$.&.+.( +.+.+.%.%.O.#.$.O.&.&.4.&.&.&.&.",
"v.0.0.0.8.8.0.0.0.0.0.0.0.4.4.4.4.1.1.4.4.4.4.@.@.1.@.1.1.1.1.4.4.4.f.z.1.4.9.2.2.1.1.4.9.0.2.4.4.0.0.0.n.n.n.n.v.n.0.n.0.9.0.0.",
"5.0.0.5.0.0.0.5.0.0.5.0.4.4.4.4.4.1.1.@.@.4.@.@.4.4.@.4.9.9.9.9.&.&.g.V.@.+.4.n.9.4.4.n.n.n.n.9.v.Z.F.S.N.0.0.n.0.0.0.4.4.0.5.5.",
"n.N.0.5.5.0.5.1.4.1.1.4.1.1.v.9.@.v.9.v.1.4.v.&.v.9._ ( +.@.+.^ E o.V.V.v.4.4.&.V.v.v.M.v.n.S.S.S.F.S.9.4.n.Z.Z.n.9.4.9.v.0.0.0.",
"V.4.S.!.K.S.0._ _ ,.3.$.$.z.S.n.4.Z.v.v.4.v.n.v.v.v.z.4.v.v.4.+.] @.v.b.b.v.v.V.F.S.b.b.v.v.v.N.N.S.G.G.S.S.V.G.I.&.V.F.F.V.z.3.",
"d.| N.J.J.J.N.N.n.S.F.F.F.G.G.n.n.n.b.a.v.n.S.S.v.v.v.v.v.v.v.4.9.9.v.v.b.b.S.S.S.S.V.v.v.v.v.9.v.n.b.b.b.n.v.V.v.v.b.F.S.F.F.B.",
"P.#.v.J.G.G.S.G.S.N.S.F.G.Z.Z.v.v.v.V.b.n.n.n.Z.S.S.S.F.S.V.b.v.V.F.G.I.G.G.G.F.G.G.G.F.F.F.S.F.F.Z.V.v.V.V.V.A.A.F.F.F.G.G.F.I.",
"v.a.a.+.+.+.+.&.&.#.O.O.#.$.#.$.#.#.%.#.O.O.O.O.%.%.#.#.%.%.O.O.#.%.&.%.%.a.#.O.#.a.%.p.a.%.a.%.+.O.+.%.&.&.@.&.&.4.4.@.&.&.a.a.",
"9.9.0.>.1.2.1.2.0.4.+._ ,.,.,.1.@.1.4.1.1._ @.O.( @.@.@.@.@.+.+.+.@.@.+.@.@.@.+.+.&.O.&.4.&.4.@.+.1.,.4.4.N.0.1.2.0.0.2.2.0.0.0.",
"0.5.,.1.,.1.,.1.1.+.,.1.4.1.,.,.,.,.,.,.,.+.+.] K O.1.1.1.2.1.1.1.1.0.0.8.7.0.1.,.:.,.,.,.1.1.1.1.1.1.1.1.1.4.0.0.0.N.0.0.0.5.1.",
"z.b.z.&.3.z.4.z.3.&.c.b.b.b.n.4.3.4.n.4.&.&.%.$.&.z.v.4.z.4.0.0.0.4.4.n.0.v.v.O.a.@.9.v.3.@.1.1.1.z.z.&.z.&.1.z.b.3.3.+.4.z.Z.b.",
"L.a.U.| Z.$.c.| $.V.V.$.$.z.+.v.R.I.a.( V.O.&.Z.n.$.&.I.c.z.F.b.9.G.S.n.n.S.F.A.F.N.G.S.S.Z.v.Z.S.A.h.a.V.G.v.b.V.b.b. .b.~.V.O.",
"V.d.f.a.I.#.V.#.$.3.&.$.&.b.G.G.J.Z.I.c.v.b.z.z.z.b.Z.S.+.a.I.n.3.I.~.~.v.V.R.I.b.S.&.Z.&.v.I.I.V.$.v.a.Y.P.b.V.Z.V.V.V.c.3.V.V.",
"V.M.V.V.I.I.F.F.b.3.c.b.z.b.n.b.N.N.b.S.z.v.b.n.N.n.x.5.b.b.4.4.n.n.v.v.v.v.Z.n.v.n.&.S.&.@.F.I.4.+.&.%.U.V.O.v.Z.S.Z.b.v.v.b.z.",
"F.V.F.Z.G.Z.Z.G.v.n.Z.Z.I.Z.F.Z.Z.G.Z.N.n.n.N.S.S.J.G.S.S.N.n.N.N.n.0.N.N.G.V.n.S.S.F.J.F.N.v.N.S.F.F.F.V.Z.G.S.N.S.G.S.J.S.G.S.",
"%.O.O.#.O.] %.%.&.3.$.&.a.%.z.z.&.&.+.+.+.@.+.@.O.4.4.1.@.@.O.&.@._ / ( @.O.+.O.O.+.%.%.+.O.^ O.| ] O.+.| O.+.+.+.( ( O.&.@.+.#."
};
