/* XPM */
static char *cad9c0360d254005e0c8d373ed328b54FsH65pzEpXlUIXhd[] = {
/* columns rows colors chars-per-pixel */
"64 64 191 2 ",
"   c #231818",
".  c #381E12",
"X  c #38251A",
"o  c #3C2621",
"O  c #49250D",
"+  c #452712",
"@  c #4E2A12",
"#  c #43261C",
"$  c #522D15",
"%  c #583118",
"&  c #5F381F",
"*  c #482A25",
"=  c #45302E",
"-  c #563A2B",
";  c #5A3A29",
":  c #433930",
">  c #4E3838",
",  c #513B34",
"<  c #673E24",
"1  c #59463B",
"2  c #574B3E",
"3  c #6A4227",
"4  c #6A432C",
"5  c #6A443B",
"6  c #7E493F",
"7  c #795033",
"8  c #574C41",
"9  c #584F45",
"0  c #5F5449",
"q  c #644C42",
"w  c #6B4C45",
"e  c #734C43",
"r  c #635049",
"t  c #765449",
"y  c #79584B",
"u  c #745D51",
"i  c #795C50",
"p  c #6B6156",
"a  c #756054",
"s  c #7D6454",
"d  c #7D6A56",
"f  c #786058",
"g  c #7D6B5A",
"h  c #6A6662",
"j  c #804E42",
"k  c #835749",
"l  c #AE5E4E",
"z  c #826454",
"x  c #82695C",
"c  c #916455",
"v  c #976559",
"b  c #946C5D",
"n  c #8A745A",
"m  c #A86C59",
"M  c #AA7F5D",
"N  c #BE745B",
"B  c #BF785E",
"V  c #856D61",
"C  c #8D7666",
"Z  c #9A7A68",
"A  c #A17763",
"S  c #A67D63",
"D  c #A87F61",
"F  c #B17360",
"G  c #AB825E",
"H  c #978067",
"J  c #9C826C",
"K  c #998373",
"L  c #A58165",
"P  c #AC8463",
"I  c #A3836B",
"U  c #A88669",
"Y  c #AD8C6D",
"T  c #BB8065",
"R  c #B68D66",
"E  c #B38D6C",
"W  c #B6916E",
"Q  c #BC936E",
"!  c #A48671",
"~  c #AC8774",
"^  c #A58A73",
"/  c #AC8D74",
"(  c #A58C7B",
")  c #AB8E7A",
"_  c #B28F73",
"`  c #B68B75",
"'  c #AE9175",
"]  c #A7907D",
"[  c #AE927B",
"{  c #B49274",
"}  c #BB9574",
"|  c #BD9976",
" . c #B4957A",
".. c #BA967A",
"X. c #B6997C",
"o. c #BC9A7C",
"O. c #C98265",
"+. c #C48A6C",
"@. c #CE8B6E",
"#. c #C2956E",
"$. c #C6996C",
"%. c #C78772",
"&. c #C29673",
"*. c #C39B75",
"=. c #C99D75",
"-. c #C0977A",
";. c #C39D7C",
":. c #C99E7C",
">. c #D29477",
",. c #C7A077",
"<. c #CBA077",
"1. c #C5A17E",
"2. c #CAA27C",
"3. c #898486",
"4. c gray56",
"5. c #979797",
"6. c #AF8884",
"7. c #B49782",
"8. c #B59A82",
"9. c #BC9D82",
"0. c #B49B88",
"q. c #BB9E8A",
"w. c #B7A087",
"e. c #BEA184",
"r. c #B6A18E",
"t. c #BDA28C",
"y. c #BCA492",
"u. c #BDAB9D",
"i. c #C39480",
"p. c #C29E82",
"a. c #C99F81",
"s. c #C19F88",
"d. c #C5A284",
"f. c #C8A386",
"g. c #CAA484",
"h. c #CAA585",
"j. c #C4A887",
"k. c #CBA986",
"l. c #C1A289",
"z. c #C4A58A",
"x. c #C9A78D",
"c. c #C6A98D",
"v. c #CAA98A",
"b. c #CDAA89",
"n. c #CAA98E",
"m. c #CEAA8E",
"M. c #D0A786",
"N. c #D9A38C",
"B. c #D1AC8B",
"V. c #DDAB8C",
"C. c #D4B18F",
"Z. c #C3A691",
"A. c #C5A991",
"S. c #C5AA93",
"D. c #C9AA91",
"F. c #CBAC92",
"G. c #CAAC94",
"H. c #C6AC99",
"J. c #C9AE99",
"K. c #D0AF93",
"L. c #D9AC97",
"P. c #CDB195",
"I. c #C6B09F",
"U. c #CCB29B",
"Y. c #CFB99E",
"T. c #D3B392",
"R. c #DEB297",
"E. c #D3B49A",
"W. c #E2A785",
"Q. c #E1AA8B",
"!. c #EBB795",
"~. c #E9B89A",
"^. c #CFB9A3",
"/. c #D2B9A4",
"(. c #E7BAA3",
"). c #ECBFA3",
"_. c #D4C1A8",
"`. c #DAC5B5",
"'. c #EFC2A6",
"]. c #F1C3A3",
"[. c #F1C7AC",
"{. c #F4CAAC",
"}. c #F4CDB1",
"|. c #F8D2B7",
" X c #F5D1BA",
".X c #F9D5BA",
"XX c #DCD2C1",
"oX c #F6D9C7",
"OX c #F9D8C1",
"+X c #F9E2D4",
"@X c #FAEAE4",
/* pixels */
"X.X.X.8...} } } o.o.X...o.X.....X.9.p.;.p.;.| ....p.p.p.8.8.8.7.7.8.7.7.7.7.{ ' ^ ' Y / / { X.X. .{ X.X. . .{  . . . .X.X...X...",
";.;.;.;.d.;.d.;.d.d.d.p.d.f.p.;.p.;.*.&.} Q #.#.o...d.p.-.-.p.p.d.d.f.d.;.&.Q | d.9.f.f.d.d.d.1.d.g.d.p.p.;.} *.;.;.;.*.=.=.*.*.",
";.g.g.;.d.d.g.f.f.f.x.x.f.f.d.f.z.;.-.-.| | -.&.X.I s.f.p.-.;.f.z.n.n.x.g.f.g.*...l.v.v.B.k.g.g.g.g.g.g.d.1.1.2.g.;.;.;.1.d.1.;.",
"s.l.s.o.d.d.x.D.D.D.m.m.b.g.g.g.x.z.d.z.z.n.D.x.z.~ ..d.s.d.v.K.v.n.F.F.E.U.G.x.l.z.n.f.g.g.g.g.f.d.g.;.1.1.1.g.2.;.;.d.d.v.v.d.",
"D.D.D.z.8.) ^ q.Z.A.z.A.A.G.G.n.o.} } 9.l.z.Z.t.t.7.8.n.z.n.m.v.g.1.d.d.d.p.f.x.z.9.p.d.m.B.k.g.p.;.g.k.d.g.g.g.k.x.g.;.1.x.x.x.",
"x.n.A.z.[ ^ D &.*.| ;.d.d.g.g.1.;.g.v.f.d.z.z.c.d.d.n.b.m.b.g.k.2.:.x.n.9.*.;.;.p...x.m.g.2.g.g.1.k.g.g.p.f.1.d.f.g.d.;.1.g.d.d.",
"x.z.z.z.X.U Q d.z.| *.b.B.B.B.2.*.;.g.d.p.z.f.f.p.p.f.f.g.g.M.k.2.k.n.x.d.;.1.g.p.X.b.k.g.2.g.g.g.2.:...;.B.B.B.B.B.C.b.m.m.f.f.",
"s.s.f.o.} Y { Z.z.o.o.;.;.;.;.*.*.*.*.-.-.p.-.o.o.*.;.*.;.*.:.=.*.*.*.| } R } o.o.o.o.o.o.-.o.o.-.*.} X.;.g.g.g.d.d.g.g.x.z.z.s.",
"L L L U U ~ ! ! ~ )  .....{ _ _ _ _  ._ _ { { _ / Y _ { E E } } { { / / Y / { { { E P G P E Y M G P P P P P P P L D D D L L U U ",
"l.z.z.z.z.z.z.l.z.z.c.x.z.z.f.d.f.f.f.f.d.f.f.f.g.f.d.g.k.b.k.g.g.g.d. .{ 1.d.d.p.;.*.*.*.2.;.;.;.;.;.:.;.*.;.1.;.p.d.9.9.l.z.l.",
"e.e.d.l.l.z.z.z.z.l.z.z.z.x.z.f.z.f.d.d.;.;.*.;.d.p.d.d.1.;.p.p.p.-.o.Y _ -.;.;.p.;.p.d.d.p.d.z.x.f.z.x.z.z.z.D.c.z.z.A.J.A.A.t.",
"l.z.| *.| {  .9.e.9.d.p.*.*.;.p.f.D.n.D.D.F.c.z.x.z.z.z.z.c.n.x.z.9.9.l.z.z.c.c.F.A.c.z.z.z.d.;.z.d.:.:.;.*.-.;.;.;.;.;.;.;.d.p.",
"z.t.X.=.#.{ 9.9.d.d.d.p.p.p.d.f.d.n.D.z.D.G.G.x.f.;.;.*.;.p.p.f.n.z.z.c.F.z.A.H.H.G.A.z.z.f.n.n.c.g.m.F.U.A.A.G.A.A.z.z.Z.z.l.l.",
"z.z.t.e.z.d.x.z.D.D.F.F.E.G.F.F.F.m.x.z.n.F.F.D.z.G.A.z.z.D.A.c.z.z.j.d.d.x.c.D.z.z.f.z.D.A.n.F.c.A.A.A.z.9.9.9.d.l.l.z.z.z.z.z.",
"z.z.t.t.G.F.n.z.x.x.x.v.x.x.f.f.x.f.d.f.f.f.f.f.f.d.f.f.f.f.d.;.;.d.;.;.p.d.f.d.f.f.d.d.z.f.z.g.f.f.f.d.f.p.p.f.f.f.d.d.d.x.x.n.",
"9.9.9.e.D.D.z.z.z.x.x.x.x.v.z.g.x.g.f.f.f.f.f.f.z.f.f.f.d.z.x.g.f.f.f.f.f.g.g.f.f.f.p.d.z.x.p.d.d.p.d.d.d.o.o.9.p.9.9.s.d.f.s.p.",
"X.8.7.8.7. . .X.X.X.X. . .{ }  . . . . ._ / / / / { { { / / _ { ' {  .{ { { { _ { { { { { { / / _ _ / { { / / { { [ [ {  .{ X. .",
"l.l.d.d.z.z.z.z.z.z.x.x.x.g.x.x.x.x.g.g.f.f.d.f.d.f.f.;.1.;.;.p.d.z.z.d.d.d.f.g.f.d.f.d.f.g.d.;.g.g.g.2.;.;.d.f.z.d.z.f.d.d.l.l.",
"q.t.8.9.d.d.l.l.d.d.f.d.9.d.f.d.d.d.f.d.f.d.d.d.d.f.d.d.d.d.g.p.d.z.z.d.9.d.d.z.z.l.l.z.x.x.x.x.x.n.n.m.d.d.f.d.d.9.9.p.9.9.9.s.",
"q.t.e.7.G.G.D.A.Z.Z.H.A.Z.G.D.n.z.n.z.f.d.l.z.z.l.z.z.z.f.f.f.f.d.f.z.z.z.z.z.z.l.9.d.l.z.s.d.l.l.z.l.Z.A.H.H.J.Z.t.q.y.r.q.q.9.",
"d.g.d.9.F.K.D.z.c.c.G.D.z.F.P.G.F.G.G.G.A.Z.A.A.G.G.J.J.A.Z.G.0.( ( ( ( y.A.H.U.H.A.J.J.J.A.J.J.G.U.A.A.G.U.U.G.D.z.Z.t.D.z.d.p.",
"2.g.f.f.x.b.g.g.g.g.g.g.g.g.g.d.d.f.d.d.f.e.d.l.n.n.c.A.Z.Z.x y S 0.~ k w 0.H.H.H.J.J.J.A.A.G.D.D.F.z.z.x.x.n.z.z.d.f.d.d.d.d.d.",
"z.A.z.f.f.g.g.g.g.g.g.g.;.;.d.f.p.d.f.d.p.p.;.d.f.f.f.d.d.x F }.OX.X.X{.@.w z.z.l.A.D.z.x.x.g.g.b.m.b.x.g.x.v.x.z.x.x.z.d.g.b.m.",
"t.t.9.p.p.;.;.o.o.o.9.p.o.o.o.X.o.o.9.9.o.o...o.o.X.X.o.{ e }.+X@X.X.X.X{.m C X.X.X.9.p.p.f.p.p.f.p.p.p.p.p.p.d.p.9.9.9.s.d.d.9.",
"( ] ) )  ./ / ) [ [ [ ) ! ! ^ ^ ) ] ( ^ ^ ~ ~ ^ ( ( ) [ J b .XOXoX.X.X.X|.>.u / / / / [ [ ) ) / / / / ) ) I I [  .[ ! [ / ] ] ) ",
"u.y.A.I.H.A.A.z.A.U.D... .q.q.q.t.t.l.9.9.d.l.s.9.9.p.p.{ ( .X.X.X.X.X.X.XV.d d.z.z.z.x.x.x.z.z.z.z.A.A.e.) K 7.s.~ 9.U.z.y.H.u.",
"y.t.A.U.A.Z.A.A.U.U.e. .z.A.J././.z.l.U.U.G.z.p.o.n.K.p.X.( .X.XOX.X.X!.Q.V.x x.f.d.d.o.p.f.z.z.z.z.z.e.X.d.z.t.l...z.G.z.z.z.t.",
"X.9.f.o.X.X.X.9.p.;.p.z.d.d.s.z.x.x.z.z.l.z.s.p.p.o.f.p.{ C .XR.6.R.].!.Q.T C P.o.G.p.9.F.p.D.9.D.9.c.d...D.P.z.z.U.x.s.z.z.d.d.",
"9.9.o.d.z.l.z.s.p.p.s.d.d.f.f.x.z.z.f.p.p.p.p.p.d.;.*.;.*.i .X3.4.XX!.~.m z p.p.p.d.d.d.;.;.p.p.f.f.p.p.f.x.z.D.D.d.p.p.o.| ;.p.",
";.;.;.f.D.x.g.g.g.g.x.g.g.x.x.x.z.z.f.f.f.f.s.f.f.p.1.g.:.s ~.^.`.|.~.B * ..d.p.p.p.;.;.;.;.a.:.:.a.;.;.g.f.f.z.x.x.f.f.p.;.;.;.",
";.;.;.g.m.m.b.g.g.;.[ ;.g.g.g.z.z.z.f.f.d.g.x.n.b.g.g.M.g.p.t >.).).>.l %.t o.g.f.g.g.a.g.g.g.g.a.g.2.;.;.:.d.z.z.f.f.f.p.;.;.g.",
"} } } { } ....} { { E } } { { { { { { _ W W { { } } } } { U j N O.O.@.'.@XL.t | | | &.| } } | &.| &.| } } | }  .o...} } } | } } ",
"| | | o.| } | ..} { W { { }  .X.X.X.8.X.X...} } | } } } } U Z ].].].}.|..X Xe o.;.;.| | | | | | } | | } ;.o.} } ..o.| *.| ..} | ",
"*.;.;.2.g.;.;.;.;.;.| o.*.| ;.;.;.;.;.d.d.d.d.g.g.d.g.g.b.X.( .X.X.X.X).V.|.z 2.k.k.2.2.2.g.2.2.2.2.2.<.<.2.k.n.d.1.2.2.2.1.*.*.",
"&.&.&.;.1.Q Q } | | } | } o.o.| d.| | d.d.e.j.;.;.1.1.1.d.{ b |.oXoX{.+.A }.5 *.*.1.d.g.d.d.1.1.k.P.2.*.*.1.j.G.n.g.d.d.;.| *.} ",
"Q } Q W R R } | | | 1.d.o.e.e.{ .... .j.j...| ;.1.;.1.R { I * (.[.W.+.6 ).R.s ;.d.x.v.e.c.d.;.j.U.Y.k.1.1.d.d.c.j.F.n.} d.1.} { ",
"| ;.1.1.1.| | j.e.| e.j.e.o.o.X.2 0 8 8 8 9 2 8 8 2 2 1 2 X   ! .XN.c N.}.c [ F.Y._.P.c.z.1.d.c.x.x.d.1.;.1.d.d.1.d.d.d.d.1.o.| ",
";.;.1.1.;.1.d.d.d.d.9.9.o.o.o.1.p h 5.5.5.5.5.5.5.5.5.4.4.n - * f > N.+X` i c.F._.^.c.d.d.1.j.Y.Y.U.A.c.d.d.d.d.d.1.d.d.1.1.;.*.",
"x.v.k.k.d.v.n.n.F.A.0.8.t.c.9.X.9.w.d d g g g d d d d d d : - 3 & # i.p.= 7.w.c.t.A.U.F.F.n.n.P.P.P.K.P.F.P.F.v.d.d.d.d.d.d.d.g.",
"} X.X. .}  .X.X.X. .[ ] ! J J ^ '  .{ ' { { { Y Y Y Y Y { u ; < $ O . X X H ! ^ / w.X.{ { { { { { { } } {  .} { / E { { } { } } ",
"X.X.8.8.e.9.9.9.8.8.8.8.8.8.X.8.w.w.w.8.8.8.7.8.7.8.8.7.8.r 7 % % < 3 O + a X.o.8.8.X.8.8.8.8.8.X.X.9.o.9.9.8.[  .9.e.X.X...X. .",
"1.1.1.d.g.d.d.;.;.;.1.d.1.o.| o.1.1.1.d.d.;.;.1.;.p.d.d.} q - 4 $ @ @ + # d d.d.d.d.d.f.d.d.d.d.d.d.g.g.d.1.;.^ J d.f.d.d.d.1.1.",
"1.1.d.d.d.1.1.1.d.d.d.d.d.d.d.d.k.k.g.g.g.d.g.g.g.d.g.o.k T O.j * o , ( v n x.v.n.n.n.m.m.m.n.m.P.m.m.m.k.d.| J J 9.;.*.;.1.d.d.",
"d.d.d.m.v.d.b.m.T.T.m.v.n.v.n.v.m.b.b.v.m.m.b.v.g.g.g.} 1 V y 5 ' a V V z x.x.n.c.n.x.n.n.n.F.F.m.v.n.X.o.g.v.z.j.o.1.m.d.*.| ;.",
"j.d.d.g.g.k.T.K.1.g.P.P.n.n.n.m.P.F.m.F.P.m.g.d.d.1.1.;.1.d.d.Y 9.t.{ d.z.z.x.n.c.x.z.j.d.j.n.n.n.P.d.{ | d.A.9.e.d.v.n.d.d.d.d.",
"d.d.f.d.d.1.1.X.{ d.d.d.d.d.d.d.d.d.d.g.k.g.d.1.1.;.;.1.1.1.| n ! 8.o.o. .e.j.d.z.x.n.x.j.x.d.d.d.d.g.k.d.d.d.9.d.d.v.d.d.z.z.j.",
"g.f.g.g.g.g.k.v.n.z.x.v.d.d.1.1.1.1.1.g.g.g.d.1.;.;.*.*.1.1.d.8.X.X.o...o.;.d.d.d.g.g.d.d.d.1.2.2.1.1.d.d.1.1.;.1.g.k.x.d.g.d.d.",
"| | o.o.*.*.| o.o.o.o.X.........} } } ....X.o.....} } } } } } [ { { W E { } } | o.| o...} } } } } } } } } } } ....| ....| o...| ",
"X.X.o.;.x.g.*.*.*.o.o.9.d.d.e.X.{  .9.9.9.9.9.X.X.8.9.9.} } o.} W .. .E E | } o.o.} } } ....} E } } } X.X.{  ...{ o.o.;.o.o.o.o.",
"d.2.2.2.<.<.2.2.2.2.2.2.2.;.;.;.;.*.*.;.;.;.;.| | *.| *.*.*.*.;.;.;.e.p.*.;.1.=.=.*.*.;.1.2.=.:.;.2.2.2.g.g.g.g.d.g.2.g.2.1.2.2.",
":.2.2.:.2.2.2.:.2.2.:.2.;.;.;.;.;.*.*.| | ;.| | ;.;.| ;.1.1.1.1.o.o.w.z.| } ;.g.1.;.;.g.g.g.g.1.d.x.m.b.g.2.2.g.2.2.2.;.;.2.:.:.",
"g.k.2.:.:.2.:.*.;.*.*.;.*.*.d.1.| d.1.d.*.;.d.o.d.1.Q E } | } Y K [ z.z.d.;.;.o.x.d.d.j.d.g.v.v.v.n.v.1.;.g.x.x.g.1.;.1.d.2.2.2.",
"z.;.b.T.C.b.2.Q Q &.-.| | p.v.g.;.x.d.d.;.d.g.d.d.d.p.;.d.d.;.} / | d.f.f.d.d.z.n.v.f.d.d.d.d.k.k.v.m.m.v.v.z.m.F.o.z.n.n.z.p.-.",
"q._ k.B.B.B.k.k.g.b.n.n.n.m.m.g.g.g.f.9.d.g.v.v.d.d.d.d.d.d.d.;.1.1.d.d.f.f.v.v.v.v.z.d.d.d.d.1.d.g.f.f.f.g.d.z.d.d.f.n.v.n.n.l.",
"A. .d.B.m.m.v.m.b.k.v.v.m.x.x.d.d.d.z.f.g.g.g.x.v.v.v.n.v.z.f.d.z.n.m.F.m.m.m.n.m.m.m.n.v.n.v.n.n.x.z.d.z.z.d.c.c.n.n.n.m.m.n.D.",
"d.9.8.} } } } ..o. .{ {  ... ... . .X. .{ { { { X.X. . .X.X.{ {  .X.o.X.X.9. .{  .9.X.8.9.X.8.X.} { } X...o.| o.o.;.;.| o...9.9.",
"1.1.2.$.*.=.*.=.2.;.} Q &.&.&.*.| *.;.*.*.Q | { E | | | | | } } } | | } | | | } } ..{ o.;.o.;.| } *.&.;.;.k.2.*.=.2.2.=.=.2.2.2.",
"2.:.&.*.&.&.&.*.*.} &.*.;.*.&.&.&.&.&.&.&.} } ~ Z { *.*.*.=.*.*.*.*.2.2.<.,.2.*.&.#.&.&.&.*.*.*.*.*.*.*.*.*.;.2.2.2.k.2.2.2.:.*.",
"p.f.p.o.-.p.;.p.-.o.s.f.f.f.g.;.-.;.g.;.X.o.X.....p.d.;.p.;.2.1.2.;.;.g.:.d.f.{ 9.| 1.d.-.| *.*.*.p.p.o.p.o.*.p.f.-.-.} ;.p.x.f.",
"Z.9.H._ x...s._ | z.z...-.p.} d.P.F.9.E x.{ o.x.g.| o.F.s.p.n.f.1.m.v.g.g.v.n.c.n.k.m.v.b.x.d.x.v.c.t.9.z.m.d.f.z.f.f.` f.E.z.{ ",
"z.q.e.9.D. .z. ...-.o...o.f.m.m.B.x.D.s.d.f.p.p.p.f.x.b.} 9.D.g.-.F.E.E.d.z.P.F.d.v.o.x.o.d.F.F.z...d.8.G.A.f.z.x.z.z.z.s.-.z.z.",
"z.j.z.z.D.G.n.n.f.-.s.z.p.f.g.f.k.k.f.x.p.d.f.g.k.g.a.:.f.f.;.;.g.g.d.d.d.d.x.g.d.g.| v.o.| n.F.;.} o.X.H.z.{ d.x.v.x.f.d.d.f.p.",
"n.x.n.x.m.x.x.m.d.g.x.x.m.x.x.x.x.m.x.k.g.g.b.b.b.B.m.b.b.k.g.g.k.g.2.k.k.m.z.g.v.b.m.B.m.k.d.k.v.n.n.n.z.x.m.b.k.b.m.b.B.b.m.v.",
"X.{ {  .{ / X.o.o.-.| o.8.X.p.p...o.} } } | } | { ;.;.*.| | { o.| Q R E | } } { { } X.X.} { Y { _ / { } _ { } } } E E { o.| }  ."
};
