/* XPM */
static char *_f72c2ff35514d94eaea518ca44d862fPFVr8AdyPRBDwB3O[] = {
/* columns rows colors chars-per-pixel */
"64 64 198 2 ",
"   c #3A1E0F",
".  c #361D11",
"X  c #3C261D",
"o  c #322122",
"O  c #442209",
"+  c #49260D",
"@  c #432511",
"#  c #4B2911",
"$  c #442A1E",
"%  c #4A2B1D",
"&  c #502B12",
"*  c #59341B",
"=  c #5D361D",
"-  c #422C25",
";  c #512E28",
":  c #4A3126",
">  c #41362C",
",  c #5B3928",
"<  c #443D3F",
"1  c #583833",
"2  c #623B21",
"3  c #763B37",
"4  c #57453A",
"5  c #66402A",
"6  c #72492D",
"7  c #6C443D",
"8  c #754836",
"9  c #77503E",
"0  c #5C5347",
"q  c #5F584F",
"w  c #5B5957",
"e  c #5B5A59",
"r  c #734D42",
"t  c #7B4D43",
"y  c #6A5B4C",
"u  c #755346",
"i  c #7C5344",
"p  c #795248",
"a  c #755A4B",
"s  c #665F57",
"d  c #7F5550",
"f  c #765E54",
"g  c #66635F",
"h  c #6A6158",
"j  c #746253",
"k  c #7B6254",
"l  c #7E6A56",
"z  c #7C645B",
"x  c #686868",
"c  c #6D7177",
"v  c #835F4F",
"b  c #A15A4B",
"n  c #866B56",
"m  c #836B5C",
"M  c #8B6C59",
"N  c #946756",
"B  c #8B715C",
"V  c #93765D",
"C  c #BA6F5A",
"Z  c #A6785C",
"A  c #B5725C",
"S  c #8B7564",
"D  c #8F7861",
"F  c #907563",
"G  c #9C7D66",
"H  c #957C68",
"J  c #9A7C69",
"K  c #A67F62",
"L  c #A87F61",
"P  c #AC7965",
"I  c #B77463",
"U  c #C47F6B",
"Y  c #AB825E",
"T  c #9D8065",
"R  c #9D826C",
"E  c #998373",
"W  c #A58165",
"Q  c #AC8463",
"!  c #A4846B",
"~  c #AC816C",
"^  c #AD8C6D",
"/  c #B38668",
"(  c #B38D6C",
")  c #BC8C6A",
"_  c #B5916E",
"`  c #BC936E",
"'  c #A38671",
"]  c #A58A74",
"[  c #AC8D73",
"{  c #A78D7A",
"}  c #AB8E7A",
"|  c #B28F73",
" . c #B58F77",
".. c #AE9175",
"X. c #A7907D",
"o. c #AE927B",
"O. c #B49274",
"+. c #BB9574",
"@. c #BD9976",
"#. c #B4957A",
"$. c #BA967A",
"%. c #B6997C",
"&. c #BC9A7C",
"*. c #BFA17E",
"=. c #CC8A6B",
"-. c #C2956E",
";. c #C6996C",
":. c #C58974",
">. c #C29673",
",. c #CC9176",
"<. c #C39B75",
"1. c #C99D75",
"2. c #C3967B",
"3. c #CF977B",
"4. c #C39D7C",
"5. c #C99E7C",
"6. c #D6987C",
"7. c #C7A077",
"8. c #CBA077",
"9. c #C5A17E",
"0. c #CAA27C",
"q. c #E1A37F",
"w. c #8A8987",
"e. c #819498",
"r. c #929191",
"t. c #9A9A9A",
"y. c #AE9480",
"u. c #B49682",
"i. c #B69A83",
"p. c #BC9D82",
"a. c #B69D8A",
"s. c #BB9E8A",
"d. c #BEA184",
"f. c #B7A18B",
"g. c #BDA28C",
"h. c #BCA492",
"j. c #BDAB9D",
"k. c #C29E82",
"l. c #C79B86",
"z. c #CB9F83",
"x. c #C19F88",
"c. c #D69C86",
"v. c #C5A284",
"b. c #C8A386",
"n. c #C9A484",
"m. c #CAA585",
"M. c #C4A887",
"N. c #CBA986",
"B. c #C1A289",
"V. c #C4A58A",
"C. c #C6A68A",
"Z. c #C9A78D",
"A. c #C6A98D",
"S. c #CAA98A",
"D. c #CDAA89",
"F. c #CBAA8C",
"G. c #CAA98E",
"H. c #CEAA8E",
"J. c #D6A687",
"K. c #D1AC8B",
"L. c #D4B18F",
"P. c #C3A691",
"I. c #C5AA93",
"U. c #CBAC92",
"Y. c #CAAC94",
"T. c #C6AC99",
"R. c #C9AE99",
"E. c #D0AF93",
"W. c #CDB194",
"Q. c #C6B09F",
"!. c #CCB29A",
"~. c #CFB99E",
"^. c #D3B392",
"/. c #D3B39A",
"(. c #D9B89D",
"). c #E7AB85",
"_. c #E4AA89",
"`. c #E0AF92",
"'. c #E9B494",
"]. c #EBBC9E",
"[. c #C8ADA0",
"{. c #D2B9A4",
"}. c #E9BCA4",
"|. c #D4C2A8",
" X c #EDC2A7",
".X c #EDC3AC",
"XX c #F1C4A5",
"oX c #F3C7A9",
"OX c #F5CCAF",
"+X c #ECC9B9",
"@X c #F4CDB3",
"#X c #F8D2B6",
"$X c #F9D5BA",
"%X c #D5CEC8",
"&X c #F7DAC7",
"*X c #F9DECC",
"=X c #F9E2D3",
"-X c #FAE6DC",
/* pixels */
"%.%.%.i.$.O.O.+.&.&.%.$.$.%.$.$.%.p.k.4.k.4.$.$.%.k.k.k.i.i.i.u.u.i.u.u.u.u.O...] ..^ [ [ O.%.%.#.O.%.%.#.#.O.#.#.#.#.%.%.$.%.$.",
"4.4.4.4.v.4.v.4.v.v.v.4.v.b.k.4.k.4.2.>.+.` -.-.&.$.v.k.2.2.k.k.v.v.b.v.4.>.` $.v.p.b.b.v.v.v.9.v.n.v.k.k.4.+.<.4.4.4.<.1.1.2.<.",
"4.n.n.4.v.v.n.b.b.b.Z.Z.b.b.v.b.b.4.2.2.$.$.2.>.%.! x.b.k.2.4.b.C.G.G.Z.n.b.n.<.$.B.S.S.D.N.n.n.n.N.n.n.v.9.9.0.0.4.4.4.9.v.9.4.",
"x.B.x.&.v.v.Z.U.U.U.H.H.D.n.n.n.Z.C.v.C.C.G.U.Z.C.] $.v.k.v.S.E.S.G.U.U./.!.Y.Z.B.C.G.b.n.n.n.n.b.v.n.4.9.9.9.n.0.4.4.v.v.S.S.v.",
"G.U.U.C.i.} ] s.P.I.C.I.I.Y.Y.G.&.+.+.p.B.C.P.g.g.u.i.G.C.G.H.S.n.9.v.v.v.k.b.Z.C.p.k.v.H.K.N.v.k.4.n.N.v.n.n.n.N.Z.n.4.9.Z.Z.Z.",
"Z.G.I.C.o.] K >.<.$.4.v.v.n.n.9.4.n.S.b.v.C.C.A.v.b.H.D.H.D.n.N.0.5.Z.G.p.<.4.4.k.$.Z.H.N.0.N.n.9.N.n.N.k.b.9.v.b.n.v.4.9.n.v.v.",
"Z.C.C.C.%.! ` v.C.$.2.D.K.K.K.0.<.4.n.v.k.C.b.b.k.k.b.b.n.N.N.N.0.N.G.Z.v.4.9.n.k.%.D.N.n.0.N.n.n.0.5.$.4.K.K.K.K.K.L.D.H.H.b.b.",
"x.x.b.&.+.^ O.P.C.&.&.4.4.4.4.2.2.2.2.2.2.4.2.&.&.<.4.2.4.4.5.1.<.<.<.$.+.( +.&.&.&.&.&.&.2.&.&.2.<.+.%.4.n.n.n.v.v.n.n.Z.C.C.x.",
"W W W ! ! [ ' ' ] } #.$.$.O.| | | | O.| | O.O.| [ ^ | O.( ( +.+.O.O.[ [ ^ [ O.O.O.( Q Y Q / ^ Z Y Q Q Q Q Q Q Q W L L K W W ! ! ",
"B.C.C.C.C.C.C.B.C.C.A.Z.C.C.b.v.b.b.b.b.v.b.b.b.n.b.v.n.N.D.N.n.n.n.v.#.O.9.v.v.k.4.2.<.<.0.4.4.4.4.4.5.4.<.4.9.4.4.v.p.p.B.C.B.",
"d.d.v.B.B.C.C.C.C.B.C.C.C.Z.C.b.C.b.v.v.4.4.<.4.v.k.v.v.9.4.k.k.k.2.&.^ | 2.4.4.k.4.k.v.v.k.v.C.Z.b.C.Z.C.C.C.U.A.C.C.I.R.I.T.g.",
"B.C.$.<.$.O.#.p.v.p.v.k.<.<.4.k.b.U.G.U.U.U.A.C.Z.C.C.C.C.A.G.Z.C.p.p.B.C.C.A.A.U.I.A.C.C.C.v.4.C.v.5.5.4.<.2.4.4.4.4.4.4.4.v.k.",
"C.g.%.1.-.O.p.p.v.v.b.k.k.k.v.b.v.G.U.C.U.Y.Y.Z.b.4.4.<.4.k.k.b.G.C.C.A.U.C.I.T.T.Y.I.C.C.b.G.G.A.n.H.U.!.I.T.Y.I.I.C.C.P.C.B.B.",
"C.C.g.d.C.v.Z.C.U.U.U.U./.Y.U.U.U.H.Z.C.G.U.U.U.C.Y.I.C.C.U.I.A.C.C.v.v.v.A.A.U.C.C.v.C.U.I.G.U.A.I.I.I.C.p.p.p.v.B.B.C.C.C.C.C.",
"C.C.g.g.Y.U.G.C.Z.Z.Z.S.Z.Z.b.b.Z.b.v.b.b.b.b.b.b.v.b.b.b.b.v.4.4.v.4.4.k.v.b.v.b.b.v.v.C.b.Z.n.b.b.b.v.b.k.k.b.b.b.v.v.v.Z.Z.G.",
"k.p.i.d.I.I.C.C.C.Z.Z.Z.Z.S.C.n.Z.n.b.b.b.b.b.b.C.b.b.b.v.C.Z.n.b.b.b.b.b.n.n.b.b.b.k.v.C.Z.k.v.v.k.v.v.v.&.&.p.k.p.p.x.v.b.x.k.",
"%.i.u.%.u.#.#.%.%.%.%.#.#.O.O.#.#.#.#.#.| [ [ [ [ O.O.O.[ [ | O...O.#.O.O.O.O.| O.O.O.O.| | [ [ | | [ O.O.[ [ O.O.o.o.O.#.O.%.#.",
"B.B.v.v.C.C.C.C.C.C.Z.Z.Z.n.Z.Z.Z.Z.n.n.b.b.v.b.v.b.b.4.9.4.4.k.v.C.C.v.C.v.b.n.b.v.b.v.b.n.v.4.n.n.n.0.4.4.v.b.C.b.C.b.v.k.B.B.",
"s.g.i.p.v.v.B.B.v.v.b.v.p.v.b.v.v.v.b.v.b.v.v.v.v.b.v.v.v.v.n.k.v.C.C.v.p.v.v.C.C.B.B.C.C.Z.Z.Z.Z.G.G.H.v.v.b.v.v.p.p.k.p.p.p.x.",
"s.g.s.u.Y.Y.I.I.P.P.T.I.P.Y.U.G.C.G.C.b.v.B.C.C.B.C.C.C.b.b.b.b.v.b.C.C.C.C.C.C.B.p.v.B.C.x.v.B.B.C.B.P.I.T.T.T.P.g.s.h.f.s.s.p.",
"v.n.C.p.U.E.U.C.A.A.Y.U.C.U.W.Y.U.Y.Y.Y.I.P.I.I.Y.Y.R.a.z f z j f u.P.g.h.T.T.!.I.I.R.R.R.I.T.R.Y.!.I.I.Y.!.!.Y.I.C.P.g.I.C.v.k.",
"0.n.b.b.Z.D.n.n.n.n.n.n.n.n.n.v.v.b.v.v.b.d.v.B.G.G.{ t 2.XX$XoX,.t H d.y.h.T.T.T.R.R.T.I.I.Y.U.U.U.C.C.Z.Z.G.C.C.v.b.v.n.v.v.v.",
"C.I.C.b.b.n.n.n.n.n.n.n.4.4.v.b.k.v.b.v.k.k.4.v.b.k.u '.*X=X$X$X#X_.u i.p.C.C.C.B.I.U.C.Z.Z.N.N.D.H.D.Z.n.Z.S.Z.Z.Z.Z.C.v.n.D.H.",
"g.g.p.k.k.4.4.&.&.&.p.k.&.&.&.%.&.&.p.p.&.&.$.&.&.J N $X=X-X$X$X$XOXA m #.%.%.%.%.%.p.k.k.b.k.k.b.k.k.k.k.k.k.v.k.p.p.p.p.v.v.p.",
"{ X.{ } #.[ [ } o.o.o.} ' ' ] ] } X.{ ] ] [ ] ] { S #.$X$X$X$X$X$X#X2.m #...} [ [ [ [ o.o.} } [ [ [ [ } } ! ! o.#.o.' o.[ X.X.{ ",
"j.h.T.Q.T.I.I.C.I.!.U.$.#.a.s.s.g.g.B.p.p.v.B.x.p.R u.@X@X$X$X$X$X$Xz.S C.C.v.v.C.C.C.Z.Z.Z.C.C.C.C.I.I.d.} E u.x.[ p.!.C.h.T.j.",
"h.g.I.!.I.P.I.I.!.!.d.#.C.I.T.{.{.C.B.!.!.Y.C.k.&.] Z 6.J.oX@X+X@X$X/.F C.A.C.Z.b.v.v.&.k.b.C.C.C.C.C.d.%.v.C.g.B.$.C.Y.C.C.C.g.",
"%.p.b.&.%.$.%.&.k.4.k.C.v.v.x.C.Z.Z.C.C.B.C.x.k.k.| v =.@X'.(.e.z $XJ u.T.Y.!.W.&.Y.k.p.U.k.U.p.U.p.A.v.$.U.W.C.C.!.Z.x.C.C.v.v.",
"p.p.&.v.B.B.C.x.k.k.x.v.v.b.b.Z.C.C.b.k.k.k.k.k.v.4.+.7 I ).@X%Xc $Xm k.k.k.k.k.k.v.v.v.4.4.k.k.b.b.k.k.b.Z.C.G.U.v.k.k.&.$.4.k.",
"4.4.4.b.U.Z.n.n.n.n.Z.n.n.Z.Z.C.C.C.b.b.b.b.x.b.b.k.! 8 b _.#X$X@Xk.n k.k.b.v.k.k.k.4.4.4.4.z.5.5.z.4.4.n.b.b.C.Z.Z.b.b.k.4.4.4.",
"4.4.4.n.H.H.D.n.n.4.o.4.n.n.n.C.C.C.b.b.v.n.Z.G.D.#.d +Xc.C U :.C 3 F b.b.Z.n.n.b.n.n.z.n.n.n.n.n.n.5.4.4.5.v.C.C.b.b.b.k.4.9.n.",
"+.+.+.O.+.$.$.O.O.O.( +.+.O.O.O.O.O.O.| _ _ O.O.+.a l.-X$XXX).).q.) n +.+.+.+.@.@.@.>.$.+.+.@.<.>.>.$.+.+.+.+.#.&.+.+.+.+.$.+.+.",
"@.@.@.&.@.+.@.@.O.O.O.O.O.O.#.%.%.&.p.&.%.$.O.O.@.a @X@X].$X$X$X$X/.M $.#.&.&.&.4.4.@.@.@.@.@.@.@.$.@.+.4.&.+.+.$.&.@.<.@.$.+.@.",
"<.4.4.0.n.4.4.4.4.4.@.&.<.@.4.4.4.4.4.v.v.v.v.n.n.a  X}.3.@X*X&X$X2.M 4.4.9.0.0.N.N.0.0.0.n.0.0.0.0.0.8.8.0.N.G.v.9.0.0.0.9.<.<.",
">.>.>.4.9.` ` +.@.@.+.@.+.&.&.@.v.@.&.v.d.d.M.4.4.M ~ &XI / z. X@Xp B v.9.4.<.<.<.9.9.n.v.v.v.9.N.W.0.<.<.9.v.Y.G.n.v.v.4.@.<.+.",
"` +.` _ _ ) +.@.@.@.v.v.&.d.d._ $.$.#.d.v.$.&.4.9.O.p `.].P N P.[.o > [ 4.4.@.4.v.A.S.d.A.v.4.v.!.~.N.0.9.v.v.A.v.U.G.+.v.9.+.O.",
"@.4.9.9.9.@.@.v.d.@.v.v.d.&.&.%.&.%.&.d.v.A.&.*.9.4._ 9 :.*X.X1 % : 0 w 4 y o.i.~.|.W.A.C.9.v.A.A.A.v.9.4.9.v.v.9.v.v.v.v.9.&.@.",
"4.4.9.9.4.9.v.v.v.v.p.p.&.&.*.*.*.&.%.&.v.v.d.@.@.4.[ $ % ~ z.; + 5 < w.r.t.e w q h o...v.9.v.~.~.!.I.A.v.v.v.v.v.9.v.v.9.9.4.<.",
"Z.S.N.N.v.S.G.G.U.I.a.i.g.A.p.%.d.C.C.v.M.A.I.v.v.S.a @ +   . # * = 4 l y s g r.t.t.e w 0 y o.I.W.W.E.W.U.W.U.S.v.v.v.v.v.v.v.n.",
"O.%.%.#.O.#.%.%.%.#.o.X.' R R ] ..%.#.....O.O.^ ^ V X O # = 6 2 # 6 , k D ! ' l y h g r.t.r.x y O.O.O.O.O.#.#.O.[ ( O.O.O.O.O.O.",
"%.%.i.i.d.p.p.p.i.i.i.i.i.i.%.i.f.f.f.i.i.i.u.i.] 7 1 $ @ # & # = , i P M H %.&.i.i.%.B j j j ' %.i.p.&.p.&.i.o.#.p.d.%.%.%.%.#.",
"9.9.9.v.n.v.v.4.&.&.9.v.9.&.@.&.9.9.9.v.v.4.4.9.! N ].3.1 X - : - r =.,.t O.v.v.v.v.v.b.v.v.v.v.v.v.n.n.v.9.4.] R v.b.v.v.v.9.9.",
"9.9.v.v.v.9.9.9.v.v.v.v.v.v.v.v.N.N.n.n.n.v.n.n.n.V ~ (.J.a 9.9.@.a r k #.v.Z.S.G.G.G.H.H.H.G.H.W.H.H.H.N.v.@.! R p.4.<.4.v.v.v.",
"v.v.v.H.S.v.D.H.^.^.H.S.G.S.G.S.H.H.D.S.H.H.D.N.n.n.T M n [ v.v.N.v.p.G.G.A.A.G.A.G.A.G.G.G.U.U.H.G.G.%.&.n.S.C.v.&.9.H.v.<.@.4.",
"v.v.v.n.n.N.^.E.9.n.W.W.G.G.G.H.W.U.H.U.W.H.n.v.v.9.9.4.9.v.v.^ p.g.O.9.C.C.A.G.A.A.C.v.v.v.G.G.G.G.v.O.&.v.I.d.d.v.S.G.v.v.v.v.",
"v.v.b.v.v.9.9.%.O.v.v.v.v.v.v.v.v.v.v.n.N.n.v.9.9.4.4.9.9.9.@.B ' i.&.&.O.d.v.v.A.A.G.A.C.A.v.v.v.v.n.N.v.v.v.p.v.v.S.v.v.C.C.v.",
"n.b.n.n.n.n.N.S.G.C.Z.S.v.v.9.9.9.9.9.n.n.n.v.9.4.4.<.<.9.9.v.i.&.%.&.$.&.4.v.v.v.n.n.v.v.v.9.0.0.9.9.v.v.9.9.4.9.n.N.Z.v.n.v.v.",
"$.@.&.&.<.<.@.&.&.&.&.%.$.$.$.$.O.+.+.$.$.%.&.$.$.+.+.+.+.+.O.o.O.O._ ( O.+.+.@.&.@.&.$.+.O.+.+.+.+.+.+.+.+.+.$.$.@.$.$.@.&.$.@.",
"%.%.&.4.Z.n.<.<.<.&.&.p.v.v.d.%.O.#.p.p.p.p.p.%.%.i.i.p.+.+.&.O._ $.#.( ( $.+.&.&.+.+.O.$.$.+.( +.+.+.%.%.O.#.$.O.&.&.4.&.&.&.&.",
"v.0.0.0.8.8.0.0.0.0.0.0.0.4.4.4.4.<.<.4.4.4.4.@.@.<.@.<.<.<.<.4.4.4.p.k.<.4.9.1.1.<.<.4.9.5.1.5.4.0.0.0.n.n.n.n.v.n.0.n.0.9.0.0.",
"5.0.0.5.0.0.0.5.0.0.5.0.4.4.4.4.4.<.<.@.@.4.@.@.4.4.@.4.9.9.9.9.&.&.f.C.@.+.4.n.9.4.4.n.n.n.n.9.v.Z.H.D.n.0.0.n.0.0.0.4.4.0.5.5.",
"n.N.0.5.5.0.5.2.4.<.<.4.<.2.v.9.@.v.9.v.<.4.v.&.v.9.` ( +.$.$.( E o.C.C.v.4.4.&.A.v.v.v.v.n.S.S.S.G.S.9.4.n.Z.Z.n.9.4.9.v.0.9.0.",
"C.4.D.^.L.D.0.` ` >.2.$.$.k.S.n.4.Z.v.v.4.v.n.v.v.v.k.4.v.v.4.O.[ @.v.b.b.v.v.C.G.S.b.b.v.v.v.N.N.S.H.H.S.S.C.H.U.&.C.G.G.C.k.2.",
"s.O.N.K.K.K.N.N.N.D.G.G.G.H.D.n.n.n.b.p.v.n.S.S.v.v.v.v.v.v.v.4.9.9.v.v.b.b.S.S.S.S.C.v.v.v.9.9.v.n.b.b.b.n.v.v.v.v.b.G.S.G.G.B.",
"I.#.v.K.H.H.S.H.D.N.S.S.H.Z.Z.v.v.v.C.b.n.n.n.Z.S.S.S.G.S.C.b.v.C.G.H.U.H.H.H.G.U.H.H.G.S.G.S.G.G.Z.C.v.C.C.C.A.A.G.G.G.H.H.G.U.",
"v.p.i.+.+.+.O.$.&.#.O.O.#.$.#.%.#.#.%.#.O.O.O.O.%.%.#.#.%.%.O.O.#.%.&.%.%.p.#.O.#.p.%.i.p.%.i.%.+.O.O.%.$.&.@.&.&.4.4.@.&.$.p.p.",
"9.9.0.;.<.1.<.1.0.4.+.` >.>.>.<.$.<.4.<.<.` +.O.( @.@.@.@.@.+.+.+.@.@.+.@.@.@.+.O.$.O.&.4.&.4.@.+.<.>.4.4.N.0.<.1.0.0.1.1.0.0.0.",
"0.5.>.>.>.<.>.2.2.+.>.2.4.2.>.>.>.>.>.>.+.+.+.[ G O.<.<.<.1.<.<.<.<.0.0.8.7.0.<.>.-.>.>.>.<.<.<.<.<.<.<.<.<.4.0.0.0.N.0.0.0.5.<.",
"k.b.k.&.2.k.4.k.2.&.x.b.b.b.n.4.2.4.n.4.&.&.%.$.$.k.v.4.k.4.0.9.0.4.4.n.0.v.v.O.p.@.9.v.2.$.<.<.<.k.k.&.k.&.<.k.b.2.2.+.4.k.Z.b.",
"P.p.T. .Z.$.x.| $.C.C.$.$.k.+.v.W.U.p.( A.O.&.Z.n.$.&.U.k.k.G.b.9.H.S.n.n.S.G.A.G.N.H.S.D.Z.v.Z.S.A.g.p.C.H.v.b.C.b.b. .b./.C.O.",
"C.s.d.p.U.#.C.#.+.<.&.$.&.b.H.H.K.Z.U.x.v.b.k.k.k.b.Z.D.+.p.U.n.2.U././.v.C.W.U.v.S.&.Z.&.v.U.U.C.$.v.i.Y.I.b.C.Z.C.C.C.x.2.C.C.",
"C.v.C.C.U.Y.G.G.b.2.x.C.k.b.n.b.N.N.b.Z.k.v.b.N.N.N.z.5.b.b.4.4.n.n.v.v.v.v.Z.n.v.n.@.S.&.$.G.U.4.+.&.%.T.C.O.v.Z.S.Z.b.v.v.b.k.",
"G.A.G.Z.H.Z.Z.H.v.n.Z.Z.H.Z.G.Z.Z.H.Z.N.n.N.D.D.D.K.H.D.D.N.n.n.N.n.0.N.N.H.C.n.S.D.H.K.H.N.v.N.S.G.G.G.C.Z.H.D.N.D.H.D.K.D.H.S.",
"%.O.O.#.O.[ %.%.&.&.$.%.p.%.k.k.$.&.+.+.+.$.+.@.O.4.4.<.$.@.O.&.@.` / ( @.O.O.O.O.O.%.%.O.O.^ O.| [ O.O.| O.+.+.+.( / O.&.@.#.#."
};
