/* XPM */
static char *c20187b800b14ab4bb8374a444f04710weRsXpgcYiPP7j6T[] = {
/* columns rows colors chars-per-pixel */
"64 64 194 2 ",
"   c #1E1516",
".  c #361D12",
"X  c #3C2419",
"o  c #3D2421",
"O  c #312A20",
"+  c #3B3329",
"@  c #49250D",
"#  c #452712",
"$  c #4D2A12",
"%  c #41251C",
"&  c #522D15",
"*  c #583218",
"=  c #482B25",
"-  c #543426",
";  c #553A2B",
":  c #4A3431",
">  c #543934",
",  c #513D3C",
"<  c #633C22",
"1  c #683D24",
"2  c #59403B",
"3  c #5A4C3E",
"4  c #6B4227",
"5  c #6C452B",
"6  c #6C443B",
"7  c #78463D",
"8  c #795033",
"9  c #5E5245",
"0  c #5F554A",
"q  c #6C4641",
"w  c #724E45",
"e  c #655448",
"r  c #65554A",
"t  c #6A5B4B",
"y  c #765348",
"u  c #7C5C4C",
"i  c #635C51",
"p  c #735E54",
"a  c #7C5F52",
"s  c #6F6150",
"d  c #736653",
"f  c #7B6555",
"g  c #756458",
"h  c #7E675B",
"j  c #7B6A5A",
"k  c #676462",
"l  c #756C62",
"z  c #87594A",
"x  c #845C4C",
"c  c #955548",
"v  c #A95749",
"b  c #826654",
"n  c #8A695A",
"m  c #8A6C5B",
"M  c #966659",
"N  c #8B725C",
"B  c #B76A55",
"V  c #AA7F5D",
"C  c #856D61",
"Z  c #947264",
"A  c #987867",
"S  c #9A7D67",
"D  c #A67F62",
"F  c #A87F61",
"G  c #BA7B64",
"H  c #A47F73",
"J  c #C1795F",
"K  c #C57E65",
"L  c #95855C",
"P  c #AB825E",
"I  c #9D836C",
"U  c #968371",
"Y  c #9B8173",
"T  c #A58165",
"R  c #AC8463",
"E  c #A3846B",
"W  c #A78868",
"Q  c #AD8C6D",
"!  c #B68D66",
"~  c #B38D6C",
"^  c #B5916E",
"/  c #BC936E",
"(  c #A48671",
")  c #A58A73",
"_  c #AC8D74",
"`  c #A78D7B",
"'  c #AB8E7A",
"]  c #B28F73",
"[  c #B78C75",
"{  c #AE9275",
"}  c #A7907D",
"|  c #AE927B",
" . c #B49274",
".. c #BB9574",
"X. c #BD9976",
"o. c #B4957A",
"O. c #BA967A",
"+. c #B6997C",
"@. c #BC9A7C",
"#. c #BFA17E",
"$. c #C78669",
"%. c #C2956E",
"&. c #CA956D",
"*. c #C68E71",
"=. c #C29673",
"-. c #C39B75",
";. c #C99D75",
":. c #C0977A",
">. c #C39D7C",
",. c #C99E7C",
"<. c #DB9D7C",
"1. c #C7A077",
"2. c #CBA077",
"3. c #C5A17E",
"4. c #CAA27C",
"5. c #708B94",
"6. c #908888",
"7. c gray58",
"8. c #9C9C9C",
"9. c #AE9480",
"0. c #B59781",
"q. c #B69A82",
"w. c #BC9D82",
"e. c #B69E88",
"r. c #BB9E8A",
"t. c #BEA184",
"y. c #B7A18B",
"u. c #BDA28C",
"i. c #BCA492",
"p. c #BDAB9D",
"a. c #C29E82",
"s. c #C99F81",
"d. c #C89789",
"f. c #C19F88",
"g. c #D59C84",
"h. c #C5A284",
"j. c #C8A386",
"k. c #C9A484",
"l. c #CAA585",
"z. c #C4A887",
"x. c #CBA986",
"c. c #C1A289",
"v. c #C4A58A",
"b. c #C6A68A",
"n. c #C9A78D",
"m. c #C6A98D",
"M. c #CAA98A",
"N. c #CDAA89",
"B. c #CBAA8C",
"V. c #CAA98E",
"C. c #CEAA8E",
"Z. c #D3A586",
"A. c #DAA28B",
"S. c #D1AC8B",
"D. c #D4B18F",
"F. c #C3A691",
"G. c #CCA093",
"H. c #C5A991",
"J. c #C5AA93",
"K. c #CAAC92",
"L. c #CAAC94",
"P. c #C5AC99",
"I. c #C9AE99",
"U. c #D0AF93",
"Y. c #DEAE90",
"T. c #CDB194",
"R. c #CCB29A",
"E. c #CBB49F",
"W. c #D3B392",
"Q. c #D3B49A",
"!. c #D9B599",
"~. c #E0A482",
"^. c #E4AC8B",
"/. c #EAB38F",
"(. c #E5B395",
"). c #E8B798",
"_. c #EEBD9D",
"`. c #D2B9A4",
"'. c #CDBEB1",
"]. c #E9BCA1",
"[. c #EEC3A5",
"{. c #E5C3AB",
"}. c #F1C4A6",
"|. c #F4CDB2",
" X c #F3CFB9",
".X c #F7D2B7",
"XX c #F8D3B7",
"oX c #F9D5BA",
"OX c #D2CFC1",
"+X c #F9DAC5",
"@X c #F6DDCF",
"#X c #F9DECE",
"$X c #F9E2D4",
"%X c #FAEBE5",
/* pixels */
"+.+.+.q.O. . ...@.@.+.O.O.+.O.O.+.w.a.>.a.>.O.O.+.a.a.a.q.q.q.0.0.q.0.0.0.0. .{ ) { Q _ _  .+.+.o. .+.+.o.o. .o.o.o.o.+.+.O.+.O.",
">.>.>.>.h.>.h.>.h.h.h.a.h.j.a.>.a.>.-.=.../ %.%.@.O.h.a.:.:.a.a.h.h.j.h.>.=./ O.h.w.j.j.h.h.h.3.h.k.h.a.a.>...-.>.>.>.-.;.;.-.-.",
">.k.k.>.h.h.k.j.j.j.n.n.j.j.h.j.b.>.:.:.O.O.:.=.+.E f.j.a.:.>.j.b.V.V.n.k.j.k.-.O.c.M.M.S.x.k.k.k.k.k.k.h.3.3.4.4.>.>.>.3.h.3.>.",
"f.c.f.@.h.h.n.K.K.K.C.C.N.k.k.k.n.b.h.b.b.V.K.n.b.) O.h.f.h.M.U.M.V.K.K.Q.R.L.n.c.b.V.j.k.k.k.k.j.h.k.>.3.3.3.k.4.>.>.h.h.M.M.h.",
"V.K.K.b.q.' ) r.F.H.b.H.H.L.L.V.@.....w.c.b.F.u.u.0.q.V.b.V.C.N.k.3.h.h.h.a.j.n.b.w.a.h.C.S.x.k.a.>.k.x.h.k.k.k.x.n.k.>.3.n.n.n.",
"n.V.H.b.| ) D =.-.O.>.h.h.k.k.3.>.k.M.j.h.b.b.m.h.h.V.N.C.N.k.x.4.,.n.V.w.-.>.>.a.O.n.C.k.4.k.k.3.x.k.k.a.j.3.h.j.k.h.>.3.k.h.h.",
"n.b.b.b.+.E / h.b.O.-.N.S.S.S.4.-.>.k.h.a.b.j.j.a.a.j.j.k.k.Z.x.4.x.V.n.h.>.3.k.a.+.N.x.k.4.k.k.k.4.,.O.>.S.S.S.S.S.D.N.C.C.j.j.",
"f.f.j.@...Q  .F.b.@.@.>.>.>.>.-.-.-.-.:.:.a.:.@.@.-.>.-.>.-.,.;.-.-.-.O...~ ..@.@.@.@.@.@.:.@.@.:.-...+.>.k.k.k.h.h.k.k.n.b.b.f.",
"T T T E E _ ( ( ) ' o.O.O. .] ] ] ]  .] ]  . .] _ Q ]  .~ ~ .... . ._ _ Q _  . . .~ R P R ~ Q V P R R R R R R R T F F D T T E E ",
"c.b.b.b.b.b.b.c.b.b.m.n.b.b.j.h.j.j.j.j.h.j.j.j.k.j.h.k.x.N.x.k.k.k.h.o. .3.h.h.a.>.-.-.-.4.>.>.>.>.>.,.>.-.>.3.>.a.h.w.w.c.b.c.",
"t.t.h.c.c.b.b.b.b.c.b.b.b.n.b.j.b.j.h.h.>.>.-.>.h.a.h.h.3.>.a.a.a.:.@.Q ] :.>.>.a.>.a.h.h.a.h.b.n.j.b.n.b.b.b.K.m.b.b.H.I.H.H.u.",
"c.b.O.-.O. .o.w.h.w.h.a.-.-.>.a.j.K.V.K.K.K.m.b.n.b.b.b.b.m.V.n.b.w.w.c.b.b.m.m.K.H.m.b.b.b.h.>.b.h.,.,.>.-.:.>.>.>.>.>.>.>.h.a.",
"b.u.+.;.%. .w.w.h.h.j.a.a.a.h.j.h.V.K.b.K.L.L.n.j.>.>.-.>.a.a.j.V.b.b.m.K.b.H.P.P.L.H.b.b.j.V.V.m.k.C.K.R.H.H.L.H.H.b.b.F.b.c.c.",
"b.b.u.t.b.h.n.b.K.K.K.K.Q.L.K.K.K.C.n.b.V.K.K.K.b.L.H.b.b.K.H.m.b.b.h.h.h.m.m.K.b.b.j.b.K.H.V.K.m.H.H.H.b.w.w.w.h.c.c.b.b.b.b.b.",
"b.b.u.u.L.K.V.b.n.n.n.M.n.n.j.j.n.j.h.j.j.j.j.j.j.h.j.j.j.j.h.>.>.h.>.>.a.h.j.h.j.j.h.h.b.j.n.k.j.j.j.h.j.a.a.j.j.j.h.h.h.n.n.V.",
"a.w.q.t.H.H.b.b.b.n.n.n.n.M.b.k.n.k.j.j.j.j.j.j.b.j.j.j.h.b.n.k.j.j.j.j.j.k.k.j.j.j.a.h.b.n.a.h.h.a.h.h.h.@.@.w.a.w.w.f.h.j.f.a.",
"+.q.0.+.0.o.o.+.+.+.+.o.o. . .o.o.o.o.o.] _ _ _ _  . . ._ _ ]  .{  .o. . . . .]  . . . . . ._ _ ] ] _  .{ _ _  . .| |  .o. .+.o.",
"c.c.h.h.b.b.b.b.b.b.n.n.n.k.n.n.n.n.k.k.j.j.h.j.h.j.j.>.3.>.>.a.h.b.b.h.b.h.j.k.j.h.j.h.j.k.h.>.k.k.k.4.>.>.h.j.b.h.b.j.h.h.c.c.",
"r.u.q.w.h.h.c.c.h.h.j.h.w.h.j.h.h.h.j.h.j.h.h.h.h.j.h.h.h.h.k.a.h.b.b.h.w.h.h.b.b.c.c.b.b.n.b.n.n.V.C.C.h.h.j.h.h.w.w.a.w.w.w.f.",
"r.u.r.0.L.L.H.H.F.F.P.H.F.L.K.V.b.V.b.j.h.c.b.b.c.b.b.b.j.j.j.j.h.j.b.b.b.b.b.b.c.w.h.c.b.f.h.c.c.b.c.F.H.P.P.I.F.u.r.i.y.r.r.w.",
"h.k.b.w.K.U.K.b.m.m.L.K.b.K.T.L.K.L.L.L.H.F.H.H.L.L.I.I.H.F.L.P.H.H.F.u.i.H.P.R.H.H.I.I.I.H.I.I.L.R.H.H.L.R.R.L.H.b.F.u.b.b.h.a.",
"4.k.j.j.n.N.k.k.k.k.k.k.k.k.k.h.h.j.h.h.j.t.h.c.V.V.m.h 6 n A x q Y c.t.9.i.P.P.P.I.I.I.H.H.L.K.K.K.b.b.n.n.V.b.b.h.j.h.k.h.h.h.",
"b.H.b.j.j.k.k.k.k.k.k.k.>.>.h.j.a.h.j.h.a.a.>.h.j.j.w $..XoXoXoX^.c S c.w.b.b.b.c.H.K.b.n.n.k.k.N.C.N.n.k.n.M.n.n.n.n.b.h.k.N.C.",
"u.u.w.a.a.>.>.@.@.@.w.a.@.@.@.+.@.@.w.w.@.@.O.@.@.S M .X%X$XoXoXoX/.q o.o.+.+.+.+.+.w.a.a.j.a.a.j.a.a.a.a.a.a.h.a.w.w.w.w.h.h.w.",
"` } ` ' o._ _ ' | | | ' ( ( ) ) ' } ` ) ) _ ) ) ` p Z.oX#X+XoXoXoX_.x _ o.{ ' _ _ _ _ | | ' ' _ _ _ _ ' ' E E | o.| ( | _ } } ` ",
"p.i.H.E.P.H.H.b.H.R.K.O.o.r.r.r.u.u.c.w.w.h.c.f.w.h {.oXoXoXoXoXoXoXn w.b.b.h.h.b.b.b.n.n.n.b.b.b.b.H.H.t.' Y 0.f._ w.E.b.i.P.p.",
"i.u.H.R.H.F.H.H.R.E.t.o.b.H.I.`.`.b.c.R.E.L.b.a.@.m !.(.].oXoXoXoXoXZ h.b.m.b.n.j.h.h.@.a.j.b.b.b.b.b.t.+.h.b.u.c.O.b.L.b.b.b.u.",
"+.w.j.@.+.+.+.w.a.>.a.b.h.h.f.b.n.n.b.b.c.b.a.a.a.f $.^.^.}.).d.[.oXZ c.P.L.R.T.@.L.a.w.K.a.K.w.K.w.m.h.O.K.T.b.b.R.n.f.b.b.h.h.",
"w.w.@.h.b.c.b.f.a.a.f.h.h.j.j.n.b.b.j.a.a.a.a.a.h.>.u G }._.OX5.6.oXp a.a.a.a.a.a.h.h.h.>.>.a.a.j.j.a.a.j.n.b.V.K.h.a.a.@.O.>.a.",
">.>.>.j.K.n.k.k.k.k.n.k.j.n.n.b.b.b.j.j.j.j.f.j.j.a.>.= J _.XX'.P.[.a a.a.j.h.a.a.a.>.>.>.>.s.,.,.s.>.>.k.j.j.b.n.n.j.j.a.>.>.>.",
">.>.>.k.C.C.N.k.k.>.| >.k.k.k.b.b.b.j.j.h.k.n.V.N.h.y G v <.|.|.A.> >.j.j.n.k.k.j.k.k.s.k.k.k.k.k.k.,.>.>.,.h.b.b.j.j.j.a.>.3.k.",
"...... ...O.O. . . .~ .... . . . . . .] ^  . . ...u G.%X_.K J J B 7 ^ ........X.X.X.=.O.....X.-.=.=.O.........o.@.........O.....",
"X.X.X.@.X...X.O. . .^  . . .o.+.+.@.w.@.+.O. . .X.6  X+XXX|._._._.Z o.O.o.@.@.@.>.>.X.X.X.X.X.X.X.O.X...>.@.....O.@.X.-.X.O...X.",
"-.>.>.4.k.>.>.>.>.>.X.X.-.X.>.>.>.>.>.h.h.h.h.k.k.b .X).[.oXoXoXoXY O.3.>.3.4.4.x.x.4.4.4.k.4.4.4.4.4.2.2.4.x.V.h.3.4.4.4.3.-.-.",
"=.=.=.>.3./ / ..X.X...X...@.@.X.h.X.@.h.t.t.z.>.>.6 |.A *.|.@X#XXXn O.h.3.>.-.-.-.3.3.k.h.h.h.3.x.T.4.-.-.3.h.L.V.k.h.h.>.X.-...",
"/ ../ ^ ^ ! ..X.X.X.3.h.@.t.t. .O.O.o.t.h.O.@.>.3.b !._.7 &.~.}.].o { h.3.>.X.>.h.m.M.t.m.h.>.h.R.Q.x.4.3.h.h.m.h.K.V...h.3... .",
"X.>.3.3.3.X.X.h.t.X.t.t.t.@.@.+.@.+.@.t.h.m.@.#.3.W M |.g.x Y.oXH   O 9 3 9 9 9 i i 0 9 9 3 e 9 m.m.h.3.>.3.h.h.3.h.h.h.h.3.@.X.",
">.>.3.3.>.3.h.h.h.h.w.w.@.@.#.3.#.@.+.@.h.h.t.X.X.>.y [ $XA., h = ; L 7.7.8.8.8.8.8.8.8.8.8.k l E.R.H.m.h.h.h.h.h.3.h.h.3.3.>.-.",
"n.M.x.x.h.M.V.V.K.H.e.q.u.m.w.+.t.b.b.h.z.m.H.h.h.M.h.: n.d.% < 5 ; + e t t s d d g j j f f V.T.T.T.U.T.K.T.K.M.h.h.h.h.h.h.h.x.",
" .+.+.o. .o.+.+.+.o.| } ( I I ) { +.o.{ { {  .Q W Q W X X . @ & 1 - f E E E ( ) _ y.+. . . . . . . . . . .o.o. ._ ~  . . . . . .",
"+.+.q.q.t.w.w.w.q.q.q.q.q.q.+.q.y.y.y.q.q.q.0.q.0.q.g # @ 4 1 * * 8 e +.+.+.+.@.q.q.+.q.q.q.q.q.+.q.w.@.w.@.q.| o.w.t.+.+.+.+.o.",
"3.3.3.h.k.h.h.>.>.>.3.h.3.@.X.@.3.3.3.h.h.>.>.3.>.a.h % # $ $ & 5 - e @.h.h.h.h.h.h.h.j.h.h.h.h.h.h.k.k.h.3.>.) I h.j.h.h.h.3.3.",
"3.3.h.h.h.3.3.3.h.h.h.h.h.h.h.h.x.x.k.k.k.h.k.k.k.h.m M ` > o = z $.G a b.h.n.M.V.V.V.C.C.C.V.C.T.C.C.C.x.h.X.E I w.>.-.>.h.h.h.",
"h.h.h.C.M.h.N.C.W.W.C.V.V.M.V.M.C.C.N.M.C.C.N.x.k.k.4.b C C f Q 6 u C 2 b.m.m.V.m.V.m.V.V.V.K.K.C.V.V.+.@.k.M.b.h.@.3.C.h.-.X.>.",
"h.h.h.k.k.x.W.U.3.k.T.T.V.V.V.C.T.K.C.K.T.C.k.h.h.3.3.>.3.h.h.Q w.u.o.h.b.b.m.V.m.m.b.h.h.h.V.V.V.V.h. .@.h.H.w.t.h.M.V.h.h.h.h.",
"h.h.j.h.h.3.3.+. .h.h.h.h.h.h.h.h.h.h.k.x.k.h.3.3.>.>.3.3.3.@.N ( q.@.@. .t.h.h.m.m.V.m.b.b.h.h.h.h.k.x.h.h.h.w.h.h.M.h.h.b.b.h.",
"k.j.k.k.k.k.x.M.V.b.n.M.h.h.3.3.3.3.3.k.k.k.h.3.>.>.-.-.3.3.h.q.@.@.@.O.@.>.h.h.h.k.k.h.h.h.3.4.4.3.3.h.h.3.3.>.3.k.x.n.h.k.h.h.",
"O.X.@.@.-.-.X.@.@.@.@.+.O.O.O.O. .....O.O.+.@.O.O........... .{  . .^ ~  .....X.@.X.@.O... ...................O.O.X.O.O.X.@.O.X.",
"+.+.@.>.n.k.-.-.-.@.@.w.h.h.t.+. .o.w.w.w.w.w.+.+.q.q.w.....@. .^ O.o.~ ~ O...@.@..... .O.O...~ ......+.+. .o.O. .@.@.>.@.@.@.@.",
"h.4.4.4.2.2.4.4.4.4.4.4.4.>.>.>.>.-.-.>.>.>.>.X.X.-.X.-.-.-.-.>.>.>.w.a.-.>.3.;.;.-.-.>.3.,.;.,.>.4.4.4.k.k.k.k.h.k.4.k.4.3.4.4.",
",.4.4.,.4.4.4.,.4.4.,.4.>.>.>.>.>.-.-.X.X.>.X.X.>.>.X.>.3.3.3.3.@.@.y.b.X...>.k.3.>.>.k.k.k.k.3.h.n.C.N.k.4.4.k.4.4.4.>.>.4.,.,.",
"k.x.4.,.,.4.,.-.>.-.-.>.-.-.h.3.X.h.3.h.-.>.h.@.h.3./ ~ ..O.O.~ U | b.b.h.>.>.@.m.h.h.h.h.k.M.M.M.V.M.3.>.k.n.n.k.3.>.3.h.4.3.4.",
"b.>.N.W.D.N.4./ / =.:.O.O.a.M.k.>.n.h.h.>.h.k.h.h.h.a.>.h.h.>. ._ X.h.j.j.h.h.b.V.M.j.j.h.h.h.x.x.M.C.C.M.M.b.C.K.@.b.V.V.b.a.:.",
"r. .x.S.S.S.x.x.k.N.V.V.V.C.C.k.k.k.j.w.h.k.M.M.h.h.h.h.h.h.h.>.3.3.h.h.j.j.M.M.M.M.b.h.h.h.3.3.h.k.j.j.j.k.h.h.h.h.j.V.M.V.V.c.",
"H.o.h.S.C.C.M.C.N.x.M.M.C.n.n.h.h.h.b.j.k.k.k.n.M.M.M.V.M.b.j.h.b.V.C.K.C.C.C.V.K.C.C.V.V.V.M.V.V.n.b.h.b.b.b.m.m.V.V.V.C.C.V.K.",
"h.w.q....... .O.@.o. . .o.O.o.O.o.o.+.o. . . . .+.+.o.o.+.+. . .o.+.@.+.+.w.o. .o.w.+.q.w.+.q.+... . .+.O.@.X.@.@.>.>.X.@.O.w.w.",
"3.3.4.&.-.;.-.;.4.>.../ =.=.=.-.O.-.>.-.-./ .. .~ X.X.X.X.X.......X.X...X.X.X... .O. .@.>.@.>.X...-.=.>.>.x.4.-.;.4.4.;.;.4.4.4.",
"4.,.=.=.=.=.=.-.-...=.-.>.-.=.=.=.=.=.=.=....._ S  .-.-.-.;.-.-.-.-.4.4.2.1.4.-.=.%.=.=.=.-.-.-.-.-.-.-.-.-.>.4.4.4.x.4.4.4.,.-.",
"a.j.a.@.:.a.>.a.:.@.f.j.j.j.k.>.:.>.k.>.@.@.+.O.O.a.h.>.a.>.4.3.4.>.>.k.4.h.j. .w.X.3.h.:.O.-.-.-.a.a.@.a.@.-.a.j.:.:...>.a.n.j.",
"F.w.P.[ n.O.f.] O.b.b.O.:.a...h.T.K.w.~ M. .@.n.k.O.@.K.a.a.V.j.3.C.M.k.k.M.V.m.V.x.C.M.N.n.h.n.M.m.u.w.b.C.h.j.b.j.j.[ j.Q.b. .",
"b.r.t.w.H.o.b.o.O.:.@.O.@.j.C.C.S.n.K.f.h.j.a.a.a.j.n.N...w.K.k.:.K.Q.Q.h.b.T.K.h.M.@.n.@.h.K.K.b.O.h.q.L.H.j.b.n.b.b.b.f.:.b.b.",
"b.h.b.b.K.L.V.V.j.:.f.j.a.j.k.j.x.x.j.n.a.h.j.k.x.k.s.,.j.j.>.>.k.k.h.h.h.h.n.k.h.k.X.M.@.O.V.K.>...@.+.P.b. .h.n.M.n.j.h.h.j.a.",
"V.m.V.n.C.n.n.C.h.k.n.n.C.n.n.n.n.C.n.x.k.k.N.N.N.S.C.N.N.x.k.k.x.k.4.x.x.C.b.k.M.N.C.S.C.x.h.x.M.V.V.V.b.n.C.N.x.N.C.N.S.N.C.M.",
"+. . .o. ._ +.@.@.:.O.@.q.+.a.a.O.@.......O...X. .>.>.-.O.X. .@.X./ ! ~ X. . . . . .+.+. . .Q  .] _  . .]  .......~ ~  .@.X. .o."
};
