/* XPM */
static char *_d1ae16ee406479f8cef4acf6e3f7ad7k2Gexgg1Chz6K34y[] = {
/* columns rows colors chars-per-pixel */
"64 64 199 2 ",
"   c #19150D",
".  c #271719",
"X  c #3F210E",
"o  c #3E241C",
"O  c #2E2420",
"+  c #372225",
"@  c #3C2729",
"#  c #3D292B",
"$  c #2B2631",
"%  c #422007",
"&  c #47260E",
"*  c #48260D",
"=  c #422411",
"-  c #4C2A11",
";  c #512E18",
":  c #5B3118",
">  c #4B2523",
",  c #422924",
"<  c #412A2B",
"1  c #4A3127",
"2  c #40312E",
"3  c #5D3425",
"4  c #5F3A20",
"5  c #443431",
"6  c #4D3B35",
"7  c #513934",
"8  c #623A21",
"9  c #683E25",
"0  c #693835",
"q  c #723B37",
"w  c #52443E",
"e  c #594B3E",
"r  c #5F503C",
"t  c #714529",
"y  c #69463D",
"u  c #754737",
"i  c #72413C",
"p  c #7C553D",
"a  c #574C41",
"s  c #5C5C5C",
"d  c #7C4B43",
"f  c #69564D",
"g  c #6C5C4C",
"h  c #7D5545",
"j  c #725A4F",
"k  c #7D5E4F",
"l  c #635C55",
"z  c #7C5F50",
"x  c #73614D",
"c  c #65615C",
"v  c #68635E",
"b  c #7B6459",
"n  c #796658",
"m  c #787572",
"M  c #825748",
"N  c #81594A",
"B  c #955B4C",
"V  c #816756",
"C  c #846C5C",
"Z  c #896F5E",
"A  c #996855",
"S  c #86715C",
"D  c #8A715C",
"F  c #977D5F",
"G  c #A56A56",
"H  c #B86C55",
"J  c #A57D5D",
"K  c #B1755C",
"L  c #BE745E",
"P  c #8A7463",
"I  c #957966",
"U  c #9C7E64",
"Y  c #957C71",
"T  c #A67F62",
"R  c #A87F61",
"E  c #B17466",
"W  c #C3795F",
"Q  c #C47B62",
"!  c #C37E68",
"~  c #AB825E",
"^  c #9C826B",
"/  c #998373",
"(  c #A58165",
")  c #AC8463",
"_  c #A4846B",
"`  c #A78C6F",
"'  c #AD8C6D",
"]  c #B68D66",
"[  c #B38D6C",
"{  c #B6916E",
"}  c #BC936E",
"|  c #A48671",
" . c #A58A73",
".. c #AC8D74",
"X. c #A78E7A",
"o. c #AB8E7A",
"O. c #B28F73",
"+. c #B58F77",
"@. c #AF9175",
"#. c #A7907D",
"$. c #AE927B",
"%. c #B49274",
"&. c #BB9574",
"*. c #BD9976",
"=. c #B4957A",
"-. c #BA967A",
";. c #B6997C",
":. c #BC9A7C",
">. c #BFA07D",
",. c #C0876A",
"<. c #C2956E",
"1. c #C6996C",
"2. c #C29673",
"3. c #C39B75",
"4. c #C99D75",
"5. c #C0977A",
"6. c #C39D7C",
"7. c #C99E7C",
"8. c #D89977",
"9. c #C7A077",
"0. c #CBA077",
"q. c #C5A17E",
"w. c #CAA27C",
"e. c #E3A57F",
"r. c #969696",
"t. c #9F9F9F",
"y. c #A89689",
"u. c #B59781",
"i. c #B69A83",
"p. c #BC9D82",
"a. c #B69E88",
"s. c #BB9E8A",
"d. c #BEA184",
"f. c #B7A18B",
"g. c #BDA28C",
"h. c #BCA493",
"j. c #BDAB9D",
"k. c #A0A0A0",
"l. c #C29087",
"z. c #C29E82",
"x. c #CA9F82",
"c. c #C19F88",
"v. c #D19F85",
"b. c #C5A284",
"n. c #C8A386",
"m. c #CAA484",
"M. c #CAA585",
"N. c #C4A887",
"B. c #CBA986",
"V. c #C1A289",
"C. c #C4A58A",
"Z. c #C6A68A",
"A. c #C9A68A",
"S. c #C6A98D",
"D. c #CAA98A",
"F. c #CBAA8C",
"G. c #CAA98E",
"H. c #CEAA8E",
"J. c #D0A786",
"K. c #D4A38C",
"L. c #DDA488",
"P. c #D1AC8B",
"I. c #DDA98C",
"U. c #D4B18F",
"Y. c #C3A691",
"T. c #C5AA93",
"R. c #CBAC92",
"E. c #C6AC99",
"W. c #C9AE99",
"Q. c #D1AD93",
"!. c #CDB195",
"~. c #C6B09F",
"^. c #CCB29B",
"/. c #CFB99E",
"(. c #D3B392",
"). c #D3B49A",
"_. c #D1B89B",
"`. c #E6AA83",
"'. c #E2AD8F",
"]. c #E5AF90",
"[. c #EAB594",
"{. c #E6B99F",
"}. c #CFBBA3",
"|. c #D2B9A4",
" X c #D4C1A8",
".X c #EBC2AB",
"XX c #F0C2A3",
"oX c #F2C7AB",
"OX c #F3CAAF",
"+X c #F5CDB1",
"@X c #F6D0B4",
"#X c #F6D2BA",
"$X c #F9D5BA",
"%X c #B0E3EB",
"&X c #F6D7C3",
"*X c #F9DFCD",
"=X c #F5DFD5",
"-X c #F8E4D9",
";X c #FAECE7",
/* pixels */
";.;.;.i.-.%.%.&.:.:.;.-.:.;.-.-.;.p.z.6.z.6.*.:.;.z.z.z.i.i.i.u.u.i.u.u.u.u.%.@. .@.' ....%.;.;.=.%.;.;.=.=.%.=.=.=.=.;.;.-.;.-.",
"6.6.6.6.b.6.b.6.b.b.b.z.b.n.z.6.z.6.3.2.&.} <.<.:.:.b.z.5.5.z.z.b.b.n.b.6.2.} *.b.p.n.n.b.b.b.q.b.m.b.z.z.6.&.3.6.6.6.3.4.4.3.3.",
"6.m.m.6.b.b.m.n.n.n.A.A.n.n.b.n.Z.6.5.5.-.-.5.2.;._ c.n.z.5.6.n.Z.G.G.A.m.n.m.3.-.V.A.D.P.B.m.m.m.m.m.m.b.q.q.w.m.6.6.6.q.b.q.6.",
"c.V.c.:.b.b.A.R.R.R.H.P.D.m.m.m.A.Z.b.Z.Z.G.R.A.Z. .-.b.c.b.D.Q.D.G.R.R.).^.W.A.V.Z.G.n.m.m.m.m.n.b.m.6.q.q.q.m.w.6.6.b.b.D.D.b.",
"G.R.R.Z.i.o. .s.Y.T.Z.T.T.W.W.G.:.&.&.p.V.Z.Y.g.g.u.i.G.Z.G.H.D.m.q.b.b.b.z.n.A.Z.p.z.b.H.P.B.m.z.6.m.B.b.m.m.m.B.A.m.6.q.A.A.A.",
"A.G.T.Z.$. .T 2.3.-.6.b.b.m.m.q.6.m.D.n.b.Z.Z.S.b.b.G.D.H.D.m.B.w.7.A.G.p.3.6.6.z.-.A.H.m.w.m.m.q.B.m.m.z.n.q.b.n.m.b.6.q.m.b.b.",
"A.Z.Z.Z.;._ } b.Z.*.3.D.P.P.P.w.3.6.m.b.z.Z.n.n.z.z.n.n.m.m.J.B.w.B.G.A.b.6.q.m.z.;.D.B.m.w.m.m.m.w.7.-.6.P.P.P.P.P.U.D.H.H.n.n.",
"c.c.n.:.&.' %.Y.Z.:.:.6.6.6.6.3.3.3.3.5.5.z.5.:.:.3.6.3.6.3.7.4.3.3.3.-.&.[ &.:.:.:.:.:.:.5.:.:.5.3.&.;.6.m.m.m.b.b.m.m.A.Z.Z.c.",
"( ( ( _ _ ..| |  .o.=.-.-.%.O.O.O.O.=.O.O.%.%.O...' O.%.[ [ &.&.%.%.....' ..%.%.%.[ ) ~ ) [ ' J ~ ) ) ) ) ) ) ) ( R R T ( ( _ _ ",
"V.Z.Z.Z.Z.Z.Z.V.Z.Z.S.A.Z.Z.n.b.n.n.n.n.b.n.n.n.m.n.b.m.B.D.B.m.m.m.b.=.%.q.b.b.z.6.3.3.3.w.6.6.6.6.6.7.6.3.6.q.6.z.b.p.p.V.Z.V.",
"g.g.b.V.V.Z.Z.Z.Z.V.Z.Z.Z.A.Z.n.Z.n.b.b.6.6.3.6.b.z.b.b.q.6.z.z.z.5.:.` O.5.6.6.z.6.z.b.b.z.b.Z.A.n.Z.A.Z.Z.Z.R.S.Z.Z.T.W.T.T.g.",
"V.Z.-.3.*.%.=.p.d.p.b.z.3.3.6.z.n.R.G.R.R.R.S.Z.A.Z.Z.Z.Z.S.G.A.Z.p.p.V.Z.Z.S.S.R.T.S.Z.Z.Z.b.z.Z.b.7.7.6.3.5.6.6.6.6.6.6.6.b.z.",
"Z.g.;.4.<.%.p.p.b.b.b.z.z.z.b.n.n.G.R.Z.R.W.T.A.n.6.6.3.6.z.z.n.G.Z.Z.S.R.Z.T.E.E.W.T.Z.Z.n.G.R.S.m.H.R.^.T.T.T.T.T.Z.Z.Y.Z.V.V.",
"Z.Z.g.g.Z.b.A.Z.R.R.R.R.).W.R.R.R.H.A.Z.G.R.R.R.Z.T.T.Z.Z.R.T.S.Z.Z.b.b.b.S.S.R.Z.Z.n.Z.R.T.G.R.S.T.T.T.Z.p.p.p.b.V.V.Z.Z.Z.Z.Z.",
"Z.Z.g.g.W.R.G.Z.A.A.A.D.A.A.n.n.A.n.b.n.n.n.n.n.n.b.n.n.n.n.b.6.6.b.6.6.z.b.n.b.n.n.b.b.Z.n.A.m.n.n.n.b.n.z.z.n.n.n.b.b.b.A.A.G.",
"z.p.i.d.Y.Z.Z.Z.Z.A.A.A.A.G.Z.m.A.m.n.n.n.n.n.n.Z.n.n.n.b.Z.A.m.n.n.n.n.n.m.m.n.n.n.z.b.Z.A.z.b.b.z.b.b.b.:.:.p.z.p.p.c.b.n.c.z.",
";.i.u.i.u.=.=.;.;.;.;.=.=.%.%.=.=.=.=.=.O.........%.%.%.....O.%.@.%.=.%.%.%.%.O.%.%.%.%.%.%.....O.O...%.%.....%.%.$.$.%.=.%.;.=.",
"V.V.b.b.Z.Z.Z.Z.Z.Z.A.A.A.m.A.A.A.A.m.m.n.b.b.n.b.n.n.6.q.6.6.z.b.Z.Z.b.b.b.n.m.n.b.n.b.n.m.b.6.m.m.m.w.6.6.b.n.Z.b.Z.n.b.b.V.V.",
"g.g.i.p.b.b.V.V.b.b.n.b.p.b.n.b.b.Z.n.b.n.b.b.b.n.n.b.b.b.b.m.z.b.Z.Z.b.z.b.b.Z.Z.V.V.Z.Z.A.A.A.A.G.G.H.b.b.n.b.b.p.p.z.p.p.p.c.",
"s.g.g.u.T.T.Y.T.Y.Y.E.T.Y.T.R.G.Z.R.Z.n.b.V.Z.Z.V.Z.Z.Z.n.n.n.n.p.p.g.g.Z.Z.Z.Z.V.p.b.V.Z.c.b.V.V.Z.V.Y.T.E.E.E.Y.g.s.h.f.s.s.p.",
"b.m.b.p.R.Q.R.Z.S.S.W.R.Z.R.!.W.R.W.W.W.T.Y.T.T.W.W.W.W.T.Y.Y.b d I Y M f y.E.^.T.T.W.W.W.T.E.W.W.^.T.T.W.^.^.W.Y.Z.Y.g.Y.Z.b.z.",
"w.m.n.n.A.D.m.m.m.m.m.m.m.m.n.n.b.n.b.b.n.d.b.V.G.G.S.T.Y.T.0 L.$X$X$X$X8.q g.E.E.W.W.E.T.T.W.R.R.R.Z.Z.A.A.G.Z.Z.b.n.b.m.b.b.m.",
"Z.T.Z.n.n.m.m.m.m.m.m.m.6.6.b.n.z.b.n.b.z.z.6.b.n.n.b.b.b.b v.$X;X&X$X$X$X`.f Z.V.T.R.Z.A.A.m.m.D.H.D.A.m.A.D.A.A.A.A.Z.b.m.D.H.",
"g.g.p.z.z.6.6.:.:.:.p.z.:.:.:.;.:.:.p.p.:.:.:.:.:.;.;.;.;.5 oX$X*X$X$X$X$X`.@ ;.;.;.p.z.z.n.z.z.n.z.z.z.z.z.z.b.z.p.p.p.p.b.b.p.",
"X.#.X.o.=.....o.$.$.$.o.| | X.X.o.#.X.X.X... .X.X.X.o.$...2 $X$X$X$X$X$X$X$X# ........$.$.o.o.........o.o._ _ $.=.$.| $...#.#.X.",
"j.h.T.~.E.T.T.Z.T.^.R.-.=.s.s.s.g.g.V.p.p.b.V.c.p.p.z.z.b.5 $X$X$X$X$X@X'.+X# b.Z.Z.Z.A.A.A.Z.Z.Z.Z.T.T.g.o./ u.c...p.^.Z.h.E.j.",
"h.g.T.^.T.Y.T.T.^.^.d.=.Z.T.E.|.|.Z.V.^.^.W.Z.z.:.G.Q.z.A.6 +X$Xl.Q.@X`.@X8.< A.n.b.b.:.z.n.Z.Z.Z.Z.Z.d.;.b.Z.g.V.-.Z.W.Z.Z.Z.g.",
";.p.n.:.;.-.;.p.z.6.z.Z.b.b.c.Z.A.A.Z.Z.V.Z.c.z.z.:.n.z.6.3.W.$X$ %X+X[.I.h Y.!.:.W.z.p.R.z.R.p.R.p.S.b.&.R.!.Z.Z.^.A.c.Z.Z.b.b.",
"p.p.:.b.V.V.Z.c.z.z.c.b.b.Z.n.A.Z.Z.n.z.z.z.z.z.b.6.3.6.3.6.+.$Xy.$XXXe.0 ^ z.z.z.b.b.b.6.6.z.z.n.n.z.z.n.A.Z.R.R.b.z.z.:.-.5.z.",
"6.6.6.n.R.A.m.m.m.m.A.m.m.A.Z.Z.Z.Z.n.n.n.n.c.n.n.z.q.m.7.6.V E .XOX[.H Q d ..z.z.z.6.6.6.6.x.7.7.x.6.6.m.n.n.Z.A.A.n.n.z.6.6.6.",
"6.6.6.m.H.H.D.m.m.6.$.6.m.m.m.Z.Z.Z.n.n.b.m.A.H.D.m.m.J.m.B.5 H W Q Q '.-X;X< n.n.m.m.x.m.m.m.m.m.m.7.6.6.7.b.Z.Z.n.n.n.z.6.q.m.",
"&.&.&.%.&.-.-.%.%.%.[ &.&.%.%.%.%.%.%.O.{ { %.%.&.&.&.&.%.&.2 XXXXXXXX$X+X*X! ' *.*.2.*.&.&.*.3.*.2.*.&.&.&.&.=.:.-.&.&.&.*.&.&.",
"*.*.*.:.*.&.*.:.%.%.{ %.%.%.=.;.;.:.p.;.;.:.%.%.&.&.*.&.&.&.2 @X$X$X$X$XL $X+X` 6.6.*.*.*.*.&.*.*.*.*.&.6.:.&.&.:.:.*.3.*.:.&.*.",
"3.6.6.w.m.6.6.6.6.6.*.*.3.*.6.6.6.6.6.b.b.b.b.m.m.m.m.m.D.D.5 {.&X=X@XI.L $XG %.B.B.w.w.w.m.w.w.w.w.w.0.0.w.B.G.b.q.w.w.w.q.3.3.",
"2.2.2.6.q.} } &.*.*.&.*.&.:.:.*.b.*.*.b.d.d.N.6.q.q.q.q.b.6.O G #XK.N i &X+X< 3.3.q.b.m.b.b.q.q.B.!.w.3.3.q.b.W.G.m.b.b.6.*.3.&.",
"} &.} { { ] &.*.*.*.q.b.:.d.d.%.:.:.:.b.d.:.:.6.q.6.q.J ( e   , n i .XoX].h %.6.b.S.D.d.S.b.6.b.^._.B.w.q.b.b.S.b.R.G.&.b.q.&.%.",
"*.6.q.q.q.*.*.b.d.*.b.b.d.:.:.;.:.;.:.d.b.S.:.` ` e e s s r.r u - K $Xx.3 ^ G.R./. X^.S.Z.q.b.S.S.S.b.q.6.q.b.b.q.b.b.b.b.q.:.*.",
"6.6.q.q.6.q.b.b.b.b.p.p.:.:.>.>.>.:.;._  .a a s s t.r.m l g 1 9 & > j o & . Z.R. X}.S.b.b.q.b././.^.T.S.b.b.b.b.b.q.b.b.q.q.6.3.",
"A.D.B.B.b.D.G.G.R.T.a.i.g.S.p.;.;.n l s s k.r.m v n n ;.D.=.p - : 8 ; * - % I S.g.T.^.R.R.G.G.!.!.!.R.!.R.!.R.D.b.b.b.b.b.b.b.m.",
"%.;.;.=.%.=.;.;.;.=.$.#.| ^ ^  .| l c c c g x F ' ' ' U j i 3 8 - 4 t * & X + S ..f.;.%.%.%.%.%.%.%.%.%.%.=.%.%...[ %.%.%.%.%.%.",
";.;.i.i.d.p.p.p.i.i.i.i.i.i.;.i.p.f.f.i.i.i.u.i.u.u.i.w 8.8.A , ; = = = o A 8.+ i.i.;.i.i.i.i.i.;.i.p.:.p.p.i.$.=.p.d.;.;.;.;.=.",
"b.q.q.b.m.b.b.6.:.:.q.b.q.:.*.:.q.q.q.b.b.6.6.q.6.z.b.b.y B K 7 P P Z M K.OX,.C b.b.b.n.b.b.b.b.b.b.m.m.b.q.6. .^ b.n.b.b.b.q.q.",
"q.q.b.b.b.q.q.q.b.b.b.b.b.b.b.b.B.B.m.m.m.b.m.m.m.q.m.m.m.I D %.q.b.S.z C k Z D.G.G.G.H.H.H.G.H.!.G.H.G.B.b.*._ ^ p.6.3.6.b.b.b.",
"b.b.b.G.D.b.D.H.(.(.H.G.G.D.G.D.G.D.D.D.H.H.D.D.m.m.m.w.6.q.b.b.B.b.p.G.G.S.S.G.S.G.S.G.G.G.R.R.H.G.G.;.:.m.D.Z.b.:.q.G.b.3.*.6.",
"b.b.b.m.m.B.(.Q.q.m.!.R.G.G.G.H.!.R.H.R.!.H.m.b.b.q.q.6.q.b.b.' p.g.%.b.Z.Z.S.G.S.S.Z.b.b.b.G.G.G.G.b.%.:.b.T.p.d.b.D.G.b.b.b.b.",
"b.b.n.b.b.q.q.;.%.b.b.b.b.b.b.b.b.b.b.m.B.m.b.q.q.6.6.q.q.q.:.D | i.:.:.=.d.b.b.Z.S.G.S.Z.S.b.b.b.b.m.B.b.b.b.p.b.b.D.b.b.Z.Z.b.",
"m.n.m.m.m.m.B.D.G.Z.A.A.b.b.q.q.q.q.q.m.m.m.b.q.6.6.3.3.q.q.b.i.:.;.:.:.:.6.b.b.b.m.m.b.b.b.q.w.w.q.q.b.b.q.q.6.q.m.B.A.b.m.b.b.",
"*.*.:.:.3.3.*.:.:.:.:.;.:.:.:.:.%.&.&.:.:.;.:.:.-.&.&.&.&.&.%.$.%.%.{ [ %.&.&.*.:.*.:.:.&.%.&.&.&.&.&.&.&.&.&.-.-.*.:.:.*.:.:.*.",
";.;.:.6.A.m.3.3.3.:.:.p.b.b.d.;.%.=.p.p.p.p.p.;.;.i.i.p.&.&.:.%.{ :.=.[ [ *.&.:.:.&.&.%.-.:.&.[ &.&.&.;.;.%.=.-.%.:.:.6.:.:.:.:.",
"b.w.w.w.0.0.w.w.w.w.w.w.w.6.6.6.6.3.3.6.6.6.6.*.*.3.*.3.3.3.3.6.6.6.p.z.3.6.q.4.4.3.3.6.q.7.4.7.6.w.w.w.m.m.m.m.b.m.w.m.w.q.w.w.",
"7.w.w.7.w.w.w.7.w.w.7.w.6.6.6.6.6.3.3.*.*.6.*.*.6.6.*.6.q.q.q.q.:.:.f.Z.*.&.6.m.q.6.6.m.m.m.m.q.b.A.G.D.B.w.w.m.w.w.w.6.6.w.7.7.",
"m.B.w.7.7.w.7.3.6.3.3.6.3.3.b.q.*.b.q.b.3.6.b.:.b.q.} [ &.*.*.' / $.Z.Z.b.6.6.:.S.b.b.b.b.m.D.D.D.G.D.q.6.m.A.A.m.q.6.q.b.w.q.w.",
"Z.6.D.(.U.D.w.} } 2.5.-.-.z.D.m.6.A.b.b.6.b.m.b.b.b.z.6.b.b.6.%...*.b.n.n.b.b.Z.G.D.n.b.b.b.b.B.B.D.H.H.D.D.Z.H.R.:.Z.G.G.Z.z.5.",
"s.+.B.P.P.P.B.B.m.D.G.G.G.H.H.m.m.m.n.p.b.m.D.D.b.b.b.b.b.b.b.6.q.q.b.b.n.n.D.D.D.D.Z.b.b.b.b.q.b.m.n.n.n.m.b.Z.b.b.n.G.D.G.G.V.",
"T.=.b.P.H.H.D.H.D.B.D.G.H.A.A.b.b.b.Z.n.m.m.m.A.D.D.D.G.D.Z.n.b.Z.G.H.R.H.H.H.G.H.H.H.G.G.G.D.G.G.A.Z.b.Z.Z.Z.S.S.G.G.G.H.H.G.R.",
"b.p.i.&.&.&.%.:.:.=.%.%.=.-.=.;.=.=.;.=.%.%.%.%.;.;.=.=.;.;.%.%.=.;.:.;.;.p.=.%.=.p.;.i.p.;.i.;.&.%.%.;.:.:.*.:.:.6.6.*.:.:.p.p.",
"q.q.w.1.3.4.3.4.w.6.&.} 2.2.2.3.*.3.6.3.3.} &.%.[ *.*.*.*.*.&.&.&.*.*.&.*.*.*.&.%.:.%.:.6.:.6.*.&.3.2.6.6.B.w.3.4.w.w.4.4.w.w.w.",
"w.7.2.3.2.3.2.3.3.&.2.3.6.3.2.2.2.2.2.2.2.&.&...U %.3.3.3.4.3.3.3.3.w.w.0.9.w.3.2.<.2.2.2.3.3.3.3.3.3.3.3.3.6.w.w.w.B.w.w.w.7.3.",
"z.n.z.:.5.z.6.z.5.:.c.n.n.n.m.6.5.6.m.6.:.:.;.-.:.z.b.6.z.6.w.q.w.6.6.m.w.b.b.%.p.*.q.b.5.*.3.3.3.z.z.:.z.:.3.z.n.5.5.&.6.n.A.n.",
"Y.p.E.+.A.-.c.O.-.Z.Z.-.5.z.&.b.!.R.p.[ D.%.:.A.m.-.:.R.c.z.G.n.q.H.D.m.m.D.G.S.G.B.H.D.D.A.b.A.D.S.g.p.Z.H.b.n.Z.n.n.+.n.).Z.%.",
"Z.s.g.p.R.=.Z.=.-.5.:.-.:.n.H.H.P.A.R.c.b.n.z.z.z.n.A.D.&.p.R.m.5.R.).).b.Z.!.R.b.D.:.A.:.b.R.R.Z.-.b.i.W.T.n.Z.A.Z.Z.Z.c.5.Z.Z.",
"Z.b.Z.Z.R.W.G.G.n.5.c.Z.z.n.m.n.B.B.n.D.z.b.n.m.B.m.x.7.n.n.6.6.m.m.b.b.b.b.A.m.b.m.*.D.:.*.G.R.6.&.:.;.E.Z.%.b.A.D.A.n.b.b.n.z.",
"G.S.G.A.H.A.A.H.b.m.A.A.H.A.A.A.A.H.A.B.m.m.D.D.D.P.H.D.D.B.m.B.B.m.w.B.B.H.Z.m.D.D.G.P.G.B.b.B.D.G.G.G.Z.A.H.D.B.D.H.D.P.D.H.D.",
";.%.%.=.%...;.;.:.5.-.:.i.;.z.z.:.:.&.&.&.*.&.*.%.6.6.3.*.*.%.:.*.} ] [ *.%.%.%.%.%.;.;.%.%.' %.O...%.=.O.%.&.&.&.[ [ %.:.*.%.=."
};
