/* XPM */
static char *result[] = {
/* columns rows colors chars-per-pixel */
"64 64 198 2 ",
"   c #040505",
".  c #05060A",
"X  c #07090B",
"o  c #0B0B0C",
"O  c #100F0C",
"+  c #12100F",
"@  c #070B12",
"#  c #0C0D13",
"$  c #0B0E1C",
"%  c #0D1216",
"&  c #0C121E",
"*  c #141414",
"=  c #13151A",
"-  c #1C1C1C",
";  c #2C2413",
":  c #060E2B",
">  c #0E1423",
",  c #0D152E",
"<  c #141827",
"1  c #1D1E23",
"2  c #111629",
"3  c #13192D",
"4  c #0A1437",
"5  c #151B33",
"6  c #11193A",
"7  c #18222A",
"8  c #1B223B",
"9  c #232323",
"0  c #2C2925",
"q  c #24252B",
"w  c #2B2A2B",
"e  c #332B24",
"r  c #272A36",
"t  c #333435",
"y  c #393632",
"u  c #39393C",
"i  c #4E380D",
"p  c #4A3813",
"a  c #49392E",
"s  c #4D3E34",
"d  c #724E0F",
"f  c #74500F",
"g  c #7C5816",
"h  c #4C4C2D",
"j  c #574E38",
"k  c #5A563A",
"l  c #775A2B",
"z  c #7D662C",
"x  c #0C1641",
"c  c #141743",
"v  c #181C45",
"b  c #191B4B",
"n  c #1C2543",
"m  c #1F2847",
"M  c #1A224D",
"N  c #1A295B",
"B  c #21284A",
"V  c #2F3148",
"C  c #393A47",
"Z  c #252859",
"A  c #23295C",
"S  c #2B335B",
"D  c #33365B",
"F  c #1E2A61",
"G  c #232A63",
"H  c #2C3769",
"J  c #2E396E",
"K  c #373A6A",
"L  c #2E3873",
"P  c #333B75",
"I  c #3D4769",
"U  c #3C427C",
"Y  c #44484C",
"T  c #4C4C4C",
"R  c #564A42",
"E  c #434759",
"W  c #4B545F",
"Q  c #565559",
"!  c #614A40",
"~  c #645B4C",
"^  c #696051",
"/  c #726757",
"(  c #555862",
")  c #50556E",
"_  c #40447E",
"`  c #5E686E",
"'  c #626363",
"]  c #68666B",
"[  c #6B6B6C",
"{  c #7B7362",
"}  c #6F6E70",
"|  c #666C7B",
" . c #706F72",
".. c #6F7172",
"X. c #697379",
"o. c #737275",
"O. c #767479",
"+. c #79767C",
"@. c #75797C",
"#. c #7B797E",
"$. c #86662B",
"%. c #916920",
"&. c #886A36",
"*. c #9A7531",
"=. c #83775C",
"-. c #9E785F",
";. c #AD715D",
":. c #9D7968",
">. c #877874",
",. c #B57C63",
"<. c #9E964A",
"1. c #AC8E53",
"2. c #A19652",
"3. c #B5985B",
"4. c #8A8962",
"5. c #908B6B",
"6. c #988E7F",
"7. c #AB9160",
"8. c #BB9268",
"9. c #AD8E74",
"0. c #CDAB53",
"q. c #C3866A",
"w. c #C78E72",
"e. c #CD9476",
"r. c #D39A79",
"t. c #CEBF6F",
"y. c #C6A977",
"u. c #464B82",
"i. c #6F7B81",
"p. c #747783",
"a. c #7D7B81",
"s. c #827D85",
"d. c #847F88",
"f. c #7C8286",
"g. c #7E8589",
"h. c #7D888F",
"j. c #818087",
"k. c #8C8383",
"l. c #85838B",
"z. c #88868F",
"x. c #81898E",
"c. c #938582",
"v. c #958B8B",
"b. c #888790",
"n. c #858B92",
"m. c #868A96",
"M. c #8A8B94",
"N. c #8C8F98",
"B. c #86929A",
"V. c #8D929B",
"C. c #8D989F",
"Z. c #969395",
"A. c #90969F",
"S. c #A7988F",
"D. c #B0988D",
"F. c #B2A19D",
"G. c #8392A2",
"H. c #8F97A0",
"J. c #8D9AA2",
"K. c #9097A1",
"L. c #929BA4",
"P. c #949FA8",
"I. c #96A3AC",
"U. c #9EA7AD",
"Y. c #97A6B0",
"T. c #98A7B1",
"R. c #97A8B2",
"E. c #9BACB6",
"W. c #B6A9A8",
"Q. c #B8B4BC",
"!. c #DF9C85",
"~. c #DDA481",
"^. c #CCB486",
"/. c #D7AE97",
"(. c #C6B698",
"). c #DAB795",
"_. c #E6AC87",
"`. c #EAAF89",
"'. c #EAB18C",
"]. c #E8AA92",
"[. c #EEB794",
"{. c #F1B894",
"}. c #F1BB99",
"|. c #C5B0A0",
" X c #D7BAA7",
".X c #C4B9BC",
"XX c #F3BCA3",
"oX c #F6C3A4",
"OX c #FBC5A6",
"+X c #FCC7A9",
"@X c #FDC9AD",
"#X c #F6CDB7",
"$X c #FDCCB3",
"%X c #FCD3BA",
"&X c #AEB9C9",
"*X c #BEC2CA",
"=X c #D6CCD5",
"-X c #FED3C3",
/* pixels */
"E.E.E.E.E.E.@.[ [ [ [ +.L.E.E.E.K.O.[ [ [ [ o.#.} z.E.I.d.s.] [ ] s.T.E.E.E.b. .[ [ [ [ O.L.E.E.E.L.O.[ [ ] [ ..a.} z.R.E.R.d.[ ",
"[ l.l.l.d. .a.P.R.I.M.o.a.d.l.l.+.o.s.O. .s.N.L.#.o.l.l.d.s.[ s.s.[ l.z.l.l...>.L.T.Y.M.O.+.d.d.l.+.O.s.+. .s.b.P.a. .b.E.E.s.[ ",
"s.[ [ [ [ [ s.l.l.l.l.o.] [ [ [ O.N.K.O.o.N.T.E.P.>.o.s.s.} d.R.T.s.[ [ [ [ } a.l.z.z.l.o.[ [ [ [ O.N.A.+.o.N.R.R.I.a. .l.l.[ s.",
"d.[ [ [ [ [ [ [ } } [ [ O.s.s.O.o.l.s.O.M.I.E.E.E.L.+.} } d.T.E.E.l.[ [ [ ] ] [ [  .[ [ [ O.s.s.O.o.l.a.O.b.T.E.E.R.P.a.[  .s.T.",
"I.s.[ [ +.s.a.a.a. .O.a.V.I.N.O.[  .[ o.N.E.E.E.Y.z.a.[ s.T.E.E.E.I.s.[ [ #.a.a.s.#.o.O.#.V.Y.V.O.[  .[  .N.R.E.E.I.l.s.[ s.I.E.",
"E.l.[ +.L.P.I.I.z.o.+.K.T.E.b.O.#.#.a.O.#.K.I.M.l.}  .[ d.E.E.E.E.E.l.} #.J.P.I.I.n.o.O.V.R.E.n.O.>.a.a.O.a.H.I.M.l. .} [ l.E.E.",
"E.P.s.o.b.Y.E.E.I.l.O.j.I.E.x.O.M.I.I.V.O.#.l...o.a.a.+.O.N.E.E.E.E.I.a.o.l.T.E.E.I.z.O.l.I.E.h.O.m.P.P.N.+.+.l. .O.s.+.+.o.V.E.",
"E.E.l.[ o.b.R.E.H.#.O.o.j.V.#.g.I.E.E.I.V.O.O.+.g.L.L.H.+.O.N.E.E.E.E.l.[ o.b.T.E.A.#.O.o.f.N.#.g.Y.E.E.T.N.+.O.+.s.L.L.L.+.o.V.",
"V.V.O.O.+.o.n.V.#.O.M.l.O.o.} f.I.E.E.E.T.b. .z.I.E.E.E.K.O.o.V.V.V.V.O.O.+.O.b.V.a.O.M.l.O.o.} a.L.E.E.E.T.n.} z.P.E.E.E.L.+.o.",
"o.O.O.A.L.a.O.o.O.N.T.I.l...[ [ j.L.I.V.V.l.@.P.E.E.E.E.T.o.[ O.O.O.O.O.V.L.a.O.o.O.M.Y.I.l...[ } f.I.I.V.V.x.O.P.E.E.E.E.R.o.[ ",
"O.[ s.T.E.L...o.M.T.E.E.N.o.[ ] O.M.l.O.O.o.@.L.E.E.E.R.N.[ O.O.O.O.[ s.R.E.L.o...M.Y.E.E.V.o.] [ o.b.z.O.O.o.O.L.E.E.E.T.V.[ O.",
"s.[ V.T.E.E.@.n.R.E.E.E.N.o.[ [ O.a.O.O.o.O.o.f.K.L.K.V.O.[ d.V.V.d.[ N.E.E.E.@.b.R.E.E.E.V.o.[ [ O.s.O.o.O.o.O.a.K.L.K.A.O.[ s.",
"+.[ A.L.T.I.o.N.R.E.E.E.V.o...#.f.O.f.V.V.M.#.[ O.+.+.O.[ [ O.L.L.+.[ V.J.R.P.o.B.Y.E.E.E.V.O.} #.a.o.f.A.V.M.a.} O.+.+.O.[ [ +.",
"o.o.+.O.A.f.[ o.V.L.I.L.l.o.g.I.n.@.L.E.E.Y.l...[ o.o.[ o.o.o.+.#.o.o.+.#.H.f.[ o.V.L.L.L.z.O.j.I.n.#.J.E.E.I.b. .[ o. .[  .o. .",
"M.N.f.a.#.[ [  .O.#.#.#.o.j.I.E.n.g.T.E.E.T.V.#.#.M.s.[ N.N.M.[ o.M.M.g.a.a.[ [ } O.#.#.#.O.a.P.E.B.f.I.E.E.R.V.+.O.M.s.} N.N.M.",
"E.E.E.E.f.} [ z.o.o.[ } j.L.E.E.M.o.M.T.R.V.O.O.V.T.l.o.E.R.C.o.M.T.E.E.E.g...[ l.@.o.[ } f.P.E.E.B.o.b.T.R.A.+.O.V.T.z...E.R.L.",
"E.E.E.E.R.o.s.I.V.l.o.o.V.T.E.T.N.o.o.b.V.+.+.V.E.E.I.o.I.R.] l.R.5 3 5 5 8 8 8 n n n E o.N.R.E.R.V.o.o.b.V.#.O.V.E.E.Y.} T.R.[ ",
"E.T.I.I.z.[ #.I.E.M.o.[ +.A.I.V.O.[ } o.O.o.V.E.E.E.L.[ < 3 > 2 3 2 5 5 7 8 8 8 5.=.k m m | B.Y.V.O.[ [ O.+...V.E.E.R.J.[ l.T.[ ",
"T.s.s.s.s.} #.L.R.M.o.] O.a.s.a.O.O.z.a.[ @.E.E.W 5 $ $ > $ $ > > 2 3 3 , 5 7 4.^.=.0.m m m D l.s.+.+.z.a.[ @.T.E.E.I.a.[ s.I.[ ",
"j.[ [ [ [ [ [ #.s.a.o.} [ [ [ ] O.A.E.L.#.o.q . . . @ @ # $ $ $ > > , 3 3 3 3 <.2.g t.> 3 5 5 ( [ o.V.E.L.+.o.b.R.I.a.[ [ [ s.[ ",
"[ [ s.l.l.l.s.} } [ a.j.o.] ] [ o.V.R.L.+.T     . . = 1 q 1 = o .     . % % % h k k 0 1 7 > T ] [ o.V.R.L.#.[ } s.s.s.[ [ [ [ j.",
"s.[ s.T.E.E.z.} >.L.E.E.V.o.[ [ [ O.d.+.[ [ Y u u % 1 ^ $.g &.$.&.z i i p ; % % % % = 1 t V.o.[ [ [ O.d.+.[ [ [ [ [ [ l.s.[ l.E.",
"T.l.[ R.E.E.E.+.#.l.l.l.l.o.O.s.O.[ [ o.s.s.s.#.} 0 y l R Y * ; $.*.*.y.3.*.g g f d d g %.3.O.o.>.O.] [ o.s.s.s.+. .z.I.s.[ d.E.",
"E.d.[ R.E.E.n.o.[ [ [ [ [ [ n.V.O.o.s.N.T.T.L.#.@.s j ~ / 9.oX9.h k { v...y X   % & & & 7 Y Z.n.H.@.o.a.M.T.R.P.#.O.R.R.I.s.} l.",
"E.s.[ l.l.b.d. .[ [ O.a.s.o.#.j.O.o.N.T.E.E.E.A.:.w.-.=.7.1.y.y.Q.c.&X.XS.#X%XF.*XZ.W.F.+.s.o.@.l.O.o.N.E.E.E.E.C. .M.T.l.s.[ [ ",
"b.o.#.o.} } } +.} [ +.K.I.M.O.} [ O.A.E.E.E.E.I.,.;.q.r.r.`.OX3.). XW.=Xy.-X%X(.>.S.=X|.V.I.M.O. .[ o.N.E.E.E.E.I.#.o.l. .[ [ [ ",
"..>.L.L.s.[ +.K.l.} +.P.E.R.g.g.g.o.A.E.E.E.E.I.+.;.e.e.e.~.{.+X@X#X$X%X}./.).}.$X$X@XXXL.E.T.g.f.g.o.V.E.E.E.E.I.#.[ o.a.#.[ [ ",
"[ s.M.N.l.} V.R.I.l.O.V.E.L.@.n.I.l.a.M.M.M.M.b.>.} s.L.e.r.`.{.@X@X@X!.XX$X].[.@X@X+X+.V.E.L.a.x.I.l.s.M.V.M.M.b.s.[ s.P.L.#.+.",
"] o.o.o. .+.I.A.N.l.o.j.N.a.[ a.M.f.[ o.o.o. .o.o.a.I.E.U.D.!.`.[.OX+X[.}.oXoX+X+X Xv. .f.V.a.} a.M.f.[  .o.o. . .O.s.P.E.E.P.P.",
"+.+.+.O.+.o.M.+.o.o.[  .O.O.+.o.o.[ [ [ O.O.o.} a.I.U.p.V ) u a s `.'.'.}.@XoX/.c.o.o.} } o.O.O.O.o. .[  .+.+.O.[ a.P.T.V.E.E.E.",
"J.L.L.L.L.a.o.O.+.+.O. .o.b.J.n.+.o.[ o.M.A.+. .b.) V 4 x M J = = - P N m.J.f.o.O.O.O.+.} o.b.L.z.O.o.[ o.b.V.+. .l.K.E.K.V.V.E.",
"E.E.E.E.E.b. .a.V.l.+.O.b.I.E.I.L.l.o.o.N.L.+. .c ! ! b b F A S 1 u.U G U E.b...a.N.b.#.O.l.I.E.I.J.z. . .N.P.s. .l.L.E.E.A.d.K.",
"E.E.E.E.E.z. .a.A.z.o.O.L.E.E.E.E.K.+.O.b.N.C 6 b b b b b Z L L A Z J N u.G.M. .a.m.b. .+.L.E.E.E.E.L.+. .b.N.a. .l.L.E.E.E.s.O.",
"L.E.E.E.E.M.[ o.O.O.} #.L.E.E.E.P.b. . .+.( : x D a.6 6 b S S J G B K L P P M. .o.@.+.} +.L.E.E.E.T.M. . .@.+.O.O.+.l.L.E.K.s.[ ",
"#.L.L.L.L.s.o.a.f.f.O.O.N.L.L.L.b.+. . . .( 4 | O.#., 6 M G G A N B v I H L p.O.a.g.g.@.O.M.L.L.L.M.O.o.} [ o.a.b.o.a.l.K.d.s.[ ",
"o.+.+.#.+.[ s.A.L.L.M.o.o.#.#.#.O.d.b.a. .d.c b p.o., , 6 N G N G G F +.V K L P _ _ P U %Xv.k.+.+.+.a.b.+.o.l.K.T.b.o.+.d.d.+. .",
"s.[ [ [ [ [ O.+.a.#.#. .[ o.o.[ O.N.m.+.a.H.G.c c p.r , 3 , 5 8 A n [ ] [ [ [ O.a.E n r _.-X6.o.[ O.M.N.O.a.L.E.E.T.b. .>.a.o.m.",
"M. .] [  . .}  . .[ }  .s.M.l.o. .a.O.o.N.E.R.6 8.!.e 9 * o O + + o o ' [ [ } }  .} [ } } a.z.z.O.o.a.O. .M.E.E.E.R.L.s.] o.M.E.",
"E.d.[ } l.b.z.z.d.o.+.z.I.E.V.o.} } } o.z.Y.E.I._.`.a * +   . o . o o 0 } l.z.b.z.l.o.+.l.P.E.V.O.} } } O.b.T.R.T.P.a.+.} l.E.E.",
"E.m.} >.I.R.E.E.A.o.+.A.R.E.x.O.d.z.z.a.O.b.L.>.6.>.T 1 0     + * * * } #.I.E.E.E.V.O.+.H.R.E.x.O.d.l.b.a.o.z.L.s.a.} [ } d.T.E.",
"E.E.l.[ s.P.E.E.T.M. .+.K.T.l.+.K.E.E.P.a. .+.} o.z.#.9 *   . o * * i.z.[ a.I.T.E.T.n.o.O.K.T.x.O.K.E.E.L.s.o.+.]  .l.b.d.} s.T.",
"E.R.l.[ ] a.I.E.M.o.a.o.+.s.o.x.E.E.E.E.P.a. .d.n.E.E.R.9   . o - X.R.z.} [ #.I.E.M.o.a.o.O.s.O.z.E.E.E.E.L.a. .d.M.E.E.T.d.[ s.",
"d.d.[ s.s.} #.s. .#.P.V.o.[ [ O.K.E.E.E.E.V. .M.E.E.| ` q   X . w s.s.[ s.s...a.s.o.#.L.V.o.[ [ O.V.E.E.E.E.J. .M.E.E.E.E.T.d.[ ",
"[ [ s.T.E.z. .[ a.L.E.E.N.o.[ [ O.A.L.d.j.a.a.T.` + - 9 -   X . X [ [ s.I.E.z...[ #.L.E.E.N.o.[ [ O.A.L.l.l.a.p.E.E.E.E.E.Y.[ [ ",
"s.[ s.R.E.E.O.#.L.E.E.E.M.o.[ [ O.l.#.[ [ Q - * - - - - C ;   . o + [ a.R.E.E.@.+.L.E.E.E.V.o.[ [ o.z.#.[ [ [  .N.E.E.E.R.l.[ s.",
"s.[ I.E.E.E.@.C.E.E.E.E.V.o.[ [ o.+.o.s.a.} w - 9 t #.j.] [ o . . . ^ h.B.G.E.@.V.E.E.E.E.V.o.[ ] o.+.o.s.a.s.+.o.l.z.z.l.[ [ d.",
"[ [ z.l.T.N...s.I.E.E.R.V.o.o.N.x.O.M.R.I.L.a.q 9 - w [ ] [ } * o * * * * q M...j.I.E.E.E.V.o.o.N.x.o.n.Y.Y.J.>.[ } [ } [ ] [ [ ",
"#.a.o.o.l.o.[ [ j.M.M.M.#.O.V.T.x.g.T.E.E.T.A.o.[ t [ [ a.#.+.Q o + * ] } l.o.[ } j.M.M.M.#.O.V.Y.n.g.T.E.E.E.A.+.[ s.+.[ s.+.s.",
"I.I.J.J.@.] ] O.o. .}  .O.N.Y.E.n.@.L.E.E.Y.j.o.j.L.a.o.P.P.P.[  .J.P.J.J.@.[ ] O.o. .o.o.O.V.T.E.n.@.L.E.E.I.z.o.j.L.s.} I.I.I.",
"E.E.E.E.J.} @.H.j.a.} O.N.T.E.E.V.O.a.J.I.l.O.l.I.R.H...E.T.a.a.L.E.E.E.E.J.o.O.V.j.#.[ o.N.I.E.E.C.@.#.J.I.x.o.j.I.E.A.} E.E.@.",
"E.E.E.E.H.} s.I.P.b.o.} l.P.E.P.j.} } a.l.O.g.P.E.E.I.} A.T.[ L.E.E.E.E.E.H.o.a.I.I.M.o.[ z.L.E.I.j.} [ a.z.o.l.I.E.E.I.} N.T.[ ",
"E.A.N.A.d.} >.I.E.N. .[ +.M.V.b.O.} +.O...@.P.E.E.R.n.[ l.T.[ A.E.E.H.N.V.l.} >.I.E.M.o.[ O.b.V.b.O.o.+.o.o.+.L.E.E.R.n.[ z.R.[ ",
"A.O.o.O. .} o.M.A.l.o.[ o.o.O.o.O.l.J.n.o.@.L.E.R.N.o.[ O.V.[ o.K.H.O.O.o.o.[ o.M.A.z.o.[ o.o.o.o.o.z.C.n.o.@.L.E.E.N.o.[ O.V.[ ",
"O.[ O.O.O.O.o.O.O.O.o.o.} ] ] [ O.V.E.L.+.} a.K.N.a.] [ [ O.O.o.+.O.] O.O.O.O.O.o.O.O.o.O.[ [ [ [ O.V.E.L.#.[ a.A.V.#.[ [ [ o.o.",
"o.[ s.V.A.A.l. .o.f.M.V.f.} [ [  .l.L.b.o.[ } O.+.@.O. .[ O.A.A.O.O.[ s.N.A.A.l. . .f.N.A.j.} ] [  .j.A.n.o.[ } O.O.O.o.o.[ O.V.",
"N.O.O.T.T.E.A.o.#.V.L.L.M.o.} o.}  .O.O.o.o.o...[ +.N.s.[ l.E.E.N.N.O.O.I.E.E.L.o.+.V.L.L.n.o...o. . .+.O.o.o.o.o.[ +.M.s.[ z.E.",
"E.l.[ I.E.E.I.o.O.+.+.+.+. .a.z.O.[ o.a.N.N.M.a.o.A.T.n.o.a.L.E.E.E.l.} I.E.E.P.@.o.+.#.#.+.o.a.l.+.}  .#.V.N.N.#.o.Z.R.M.o.a.L.",
"E.z.[ J.I.L.z.o.[ [  .o.o.} l.N.O.O.l.L.E.E.I.l.o.I.E.L.s.[ a.P.E.E.l.[ H.P.P.b...[ [ [  .o.[ l.V.+.o.l.L.E.E.I.x.o.I.E.L.s.[ #.",
"I.#.o.#.#.#.#.o.[ [ +.b.M.#.O.a.o.o.V.E.E.E.E.P.o.j.L.#.+.[ [ a.I.P.s. .+.a.a.a.o.[ [ #.b.M.a.O.>.o.O.V.E.E.E.E.I. .j.L.#.#.[ [ ",
"#.o.l.@...[ [ z.o.[ +.L.E.L.@.....O.V.E.E.E.E.I.#.} +.} } ] [ [ a.a. .z.+. .[ [ j.o.[ #.L.E.L.O.} o. .A.E.E.E.E.I.#.[ #.} [ [ ] ",
"[ s.I.I.l.} s.I.V.o.+.L.E.T.g.n.B.@.M.Y.I.I.I.L.a.[ o.l.l.} [ [ [ [ d.P.Y.z.} a.I.V.O.+.L.E.T.x.h.V.@.m.I.I.I.T.L.s.[ o.z.z.[ } ",
"[ #.s.s.s.} I.I.T.n.o.N.T.N.o.x.Y.n.o.s.s.s.s.s.#.o.M.E.T.z.l.[ ] ] s.s.s.s.} P.T.R.M.o.n.Y.V.o.h.T.M.o.s.s.s.s.s.#. .M.E.R.z.z.",
"[ [ [ [ [ s.I.b.s.s.o.o.s.o.[ O.>.@.[ [ [ [ [ [ o.M.E.E.E.E.T.s.[ [ ] [ [ [ a.P.z.s.s.o.O.j.O.[ O.a.O.[ [ [ [ [ [ [ M.E.E.E.E.E.",
"d.s.d.s.l.[ #.} [ [ [ [ [ O.l.O.] [ [ o.l.s.#.} M.E.I.z.E.E.E.s.[ s.d.d.d.s.} a.[ [ [ [ [ [ O.j.O.[ [ ] o.d.s.#.} M.E.I.z.E.E.E."
};
